<?xml version="1.0" encoding="UTF-8"?><svg id="Layer_1" xmlns="http://www.w3.org/2000/svg" viewBox="0 0 100 300"><defs><style>.cls-1{stroke-width:2px;}.cls-1,.cls-2,.cls-3{stroke:#000;stroke-miterlimit:10;}.cls-2{fill:#0010ff;}</style></defs><path class="cls-1" d="M1.65,149.53c0,52.78.87,108.08,14.91,133.29,7.19,12.9,28.31,20.51,37.28,20.51s24.56-10.67,31.69-23.3c14.18-25.11,12.12-77.41,12.12-130.49,0-41.69,3.79-95.73-5.59-122.1C83.48,3.33,62.78-3.33,50.12-3.33S17.79,2.22,9.11,28.36C.42,54.51,1.65,109.64,1.65,149.53Z"/><path class="cls-2" d="M4.34,148.14c0,51.56-.58,103.99,12.68,128.62,6.79,12.6,24.14,22.37,32.62,22.37s25.88-8.17,32.62-20.51c13.4-24.53,12.8-78.63,12.8-130.48,0-40.72,3.58-93.52-5.29-119.28C81.68,5.32,61.62.87,49.65.87S19.6,4.24,11.39,29.78c-8.21,25.54-7.05,79.39-7.05,118.37Z"/><circle class="cls-3" cx="45.35" cy="59.95" r="2.23"/><circle class="cls-3" cx="60.38" cy="59.95" r="2.23"/><circle class="cls-3" cx="45.91" cy="72.2" r="2.23"/><circle class="cls-3" cx="60.94" cy="72.2" r="2.23"/><circle class="cls-3" cx="46.03" cy="216.87" r="2.23"/><circle class="cls-3" cx="61.06" cy="216.87" r="2.23"/><circle class="cls-3" cx="46.58" cy="229.12" r="2.23"/><circle class="cls-3" cx="61.61" cy="229.12" r="2.23"/><path d="M11.46,105.1v-11.19h4.97c.68,0,1.26.24,1.75.73s.73,1.07.73,1.75v6.22c0,.67-.24,1.25-.73,1.74-.49.49-1.07.74-1.75.74h-4.97ZM13.95,103.86h1.25c.35,0,.64-.12.88-.37.24-.24.36-.53.36-.87v-6.22c0-.34-.12-.63-.37-.87-.25-.24-.54-.36-.88-.36h-1.25v8.69Z"/><path d="M23.88,93.92h2.49c.68,0,1.26.24,1.75.73s.73,1.07.73,1.75v6.22c0,.67-.24,1.25-.73,1.74-.49.49-1.07.74-1.75.74h-2.49c-.68,0-1.26-.24-1.75-.73-.49-.49-.73-1.07-.73-1.75v-6.22c0-.68.24-1.26.73-1.75s1.07-.73,1.75-.73ZM23.88,96.4v6.22c0,.33.12.62.36.87.24.24.54.37.88.37s.64-.12.88-.37c.24-.24.36-.53.36-.87v-6.22c0-.34-.12-.63-.37-.87-.25-.24-.54-.36-.88-.36s-.63.12-.88.36c-.24.24-.37.53-.37.87Z"/><path d="M31.34,105.1v-11.19h.57l6.89,6.21v-6.21h1.25v11.19h-.57l-6.89-6.21v6.21h-1.25Z"/><path d="M42.52,93.92h2.48v2.48c0,1.47-.83,2.3-2.48,2.49v-1.25c.8-.03,1.22-.45,1.25-1.25h-1.25v-2.48Z"/><path d="M48.73,105.1v-9.94h-2.48v-1.25h7.46v1.25h-2.48v9.94h-2.49Z"/><path d="M58.6,105.1v-11.19h4.97c.68,0,1.26.24,1.75.73s.73,1.07.73,1.75v.63c0,.73-.21,1.3-.62,1.71-.41.42-1.03.67-1.86.77.83,0,1.45.25,1.86.75.41.5.62,1.08.62,1.73v.63c0,.67-.25,1.25-.74,1.74-.49.49-1.07.74-1.74.74h-4.97ZM61.08,98.89h1.25c.34,0,.63-.12.88-.37s.37-.54.37-.88v-1.25c0-.34-.12-.63-.37-.87-.25-.24-.54-.36-.88-.36h-1.25v3.73ZM61.08,103.86h1.25c.34,0,.63-.12.88-.37.25-.24.37-.53.37-.87v-1.25c0-.83-.42-1.25-1.25-1.25h-1.25v3.73Z"/><path d="M68.54,105.1v-11.19h6.21v1.25h-3.73v3.73h2.49v1.24h-2.49v3.73h3.73v1.25h-6.21Z"/><path d="M80.88,105.1v-8.7c0-.68.24-1.26.73-1.75s1.07-.73,1.75-.73h2.49c.68,0,1.26.24,1.75.73s.73,1.07.73,1.75v8.7h-2.48v-4.97h-2.49v4.97h-2.48ZM83.36,98.89h2.49v-2.49c0-.34-.12-.63-.37-.87-.25-.24-.54-.36-.88-.36s-.63.12-.88.36c-.24.24-.37.53-.37.87v2.49Z"/><path d="M23.8,123v-11.19h4.97c.68,0,1.26.24,1.75.73s.73,1.07.73,1.75v1.25c0,.68-.24,1.26-.73,1.75-.49.49-1.07.73-1.75.73h-2.49v4.97h-2.48ZM26.28,116.79h1.25c.34,0,.63-.12.88-.37s.37-.54.37-.88v-1.25c0-.34-.12-.63-.37-.87-.25-.24-.54-.36-.88-.36h-1.25v3.73Z"/><path d="M36.22,111.81h2.49c.68,0,1.26.24,1.75.73s.73,1.07.73,1.75v6.22c0,.67-.24,1.25-.73,1.74-.49.49-1.07.74-1.75.74h-2.49c-.68,0-1.26-.24-1.75-.73-.49-.49-.73-1.07-.73-1.75v-6.22c0-.68.24-1.26.73-1.75s1.07-.73,1.75-.73ZM36.22,114.3v6.22c0,.33.12.62.36.87.24.24.54.37.88.37s.64-.12.88-.37c.24-.24.36-.53.36-.87v-6.22c0-.34-.12-.63-.37-.87-.25-.24-.54-.36-.88-.36s-.63.12-.88.36c-.24.24-.37.53-.37.87Z"/><path d="M49.89,114.3h-1.24c-.11-.83-.5-1.25-1.18-1.25-.44,0-.76.1-.98.31-.22.21-.33.52-.33.94,0,.31.12.6.37.87l2.63,2.96c.49.54.73,1.13.73,1.75v.63c0,.67-.24,1.25-.73,1.74-.49.49-1.07.74-1.75.74h-1.25c-.82,0-1.44-.21-1.86-.62-.42-.42-.62-1.03-.62-1.86h1.25c0,.09-.01.15-.01.2,0,.34.13.59.39.77.26.17.55.26.86.26.44,0,.76-.11.96-.32s.29-.52.29-.93c0-.31-.12-.61-.37-.87l-2.63-2.95c-.49-.54-.73-1.12-.73-1.75v-.63c0-.68.24-1.26.73-1.75s1.07-.73,1.75-.73h1.25c1.55,0,2.38.83,2.48,2.48Z"/><path d="M52.38,123v-11.19h6.21v1.25h-3.73v3.73h2.49v1.24h-2.49v3.73h3.73v1.25h-6.21Z"/><path d="M61.09,123v-11.19h4.97c.68,0,1.26.24,1.75.73s.73,1.07.73,1.75v.68c0,.56-.19,1.09-.57,1.6-.38.51-1.02.77-1.91.77h1.24c.34,0,.63.12.88.37.24.24.37.54.37.88v4.4h-2.48v-3.73c0-.34-.12-.63-.37-.88-.25-.24-.54-.37-.88-.37h-1.25v4.97h-2.48ZM63.57,116.79h1.25c.34,0,.63-.12.88-.37s.37-.54.37-.88v-1.25c0-.34-.12-.63-.37-.87-.25-.24-.54-.36-.88-.36h-1.25v3.73Z"/><path d="M72.26,119.27v-7.46h2.49v7.46h-2.49ZM72.26,123v-2.48h2.49v2.48h-2.49Z"/><path d="M30.54,194.78v-43.31c0-.2.04-.4.13-.58l.37-.79c.12-.25.31-.46.55-.58l1.89-1c.31-.17.68-.18,1.01-.04l2.15.91c.47.2.77.68.77,1.21v17.66l1.37-10.46c0-.06.01-.12.01-.18v-7.18c0-.76.66-1.51,1.38-1.45h.69s.66,0,.69,0h.69c.6,0,1.28.1,1.38.73l.69,4.36.67,4.26c.01.07.02.14.02.21v11.29l1.33-4.67c.03-.12.05-.25.05-.37v-35.31c0-.29.09-.57.26-.8l.74-1c.23-.31.59-.5.97-.5h2.43c.17,0,.35.04.51.11l.56.27c.44.21.73.67.73,1.19v.57c0,.11.01.22.04.33l.61,2.46c.03.11.04.22.04.33v34.38c0,.68.78,1.01,1.22.52h0c.1-.11.17-.25.19-.4l.64-4.02c.01-.07.02-.14.02-.21v-8.35c0-.1.01-.2.03-.3l-.72-2.87c.02-.1,0-2.08,0-2.18v-1.45l.69-.73c0-.78,1.33.38,2.06.47l1.22.15c.51.06.93.45,1.05.98l.44,1.88c.02.1.04.21.04.32v12.1c0,.07,0,.14-.02.21l-.65,4.14c-.01.07-.02.14-.02.21v2.07l1.99-5.6c.05-.15.08-.3.08-.46v-13.98c0-.52.3-1,.76-1.2l1.08-.48c.15-.07.31-.1.48-.1h.37c.47,0,.89.28,1.1.72l.22.46c.09.18.13.38.13.58v25.87h0c0,.78.64,1.38,1.37,1.29l4.76-.56s.09,0,.14,0h14.88c.13,0,.26.02.39.07l3.1,1.09c.5.18.84.67.84,1.23v1.2c0,.51-.28.98-.73,1.19l-.59.28s-.08.03-.12.05l-3.95,1.39c-.08.03-.17.05-.25.06l-6.07.71-9.91,1.4c-.27.04-.52.17-.71.37l-2.1,2.22c-.23.24-.36.58-.36.92v1.21c0,.28-.09.56-.25.78l-1.72,2.42c-.06.09-.12.19-.16.3l-1.27,3.35c-.03.08-.07.16-.12.24l-1.05,1.67c-.16.26-.41.44-.69.53l-4.22,1.27c-.11.03-.22.05-.34.05h-25.99"/></svg>