<?xml version="1.0" encoding="UTF-8"?><svg id="Layer_1" xmlns="http://www.w3.org/2000/svg" viewBox="0 0 653.87 771.9"><defs><style>.cls-1,.cls-2,.cls-3,.cls-4,.cls-5,.cls-6,.cls-7{fill:none;}.cls-8{fill:#673606;}.cls-8,.cls-9,.cls-10,.cls-11,.cls-12,.cls-13,.cls-14,.cls-2,.cls-3,.cls-15,.cls-16,.cls-17,.cls-18,.cls-19,.cls-20,.cls-4,.cls-5,.cls-6,.cls-21,.cls-22,.cls-23,.cls-24,.cls-25,.cls-7,.cls-26,.cls-27{stroke-miterlimit:10;}.cls-8,.cls-19,.cls-4,.cls-6,.cls-27{stroke:#0d122e;}.cls-9{opacity:.22;}.cls-9,.cls-10,.cls-11,.cls-12,.cls-13,.cls-14,.cls-2,.cls-3,.cls-20,.cls-21,.cls-22,.cls-23,.cls-7{stroke:#241f20;}.cls-9,.cls-19,.cls-5,.cls-21,.cls-7{stroke-width:4px;}.cls-9,.cls-27{fill:#2d3196;}.cls-10,.cls-13,.cls-14,.cls-18,.cls-23,.cls-24,.cls-26{fill:#fff;}.cls-10,.cls-2,.cls-6,.cls-27{stroke-width:5px;}.cls-11{fill:#d3945d;stroke-width:7px;}.cls-12{fill:#999;}.cls-12,.cls-15,.cls-18,.cls-20,.cls-22,.cls-23{stroke-width:2px;}.cls-13{stroke-width:3px;}.cls-14,.cls-3,.cls-17{stroke-width:6px;}.cls-15,.cls-16,.cls-17,.cls-25{stroke:#000;}.cls-16{fill:#ff000f;}.cls-17{fill:#00943a;}.cls-28{fill:#231f20;font-family:Arial-Black, 'Arial Black';font-size:22.18px;font-weight:800;}.cls-18,.cls-24{stroke:#808083;}.cls-19{fill:#292470;}.cls-20{fill:#ffef00;}.cls-5{stroke:#ffef00;}.cls-21,.cls-29{fill:#241f20;}.cls-22{fill:#f2f2f2;}.cls-30{opacity:.45;}.cls-31{opacity:.46;}.cls-32{opacity:.44;}.cls-26{stroke:#919396;}</style></defs><path class="cls-11" d="M253.26,162.82c2.17-2.68,8.69-10.73,8.69-10.73l12.29,7.01,2.51,1.78,6.47,5.69,17.19,13.78,40.08,31.23,66.01,55.35,21.17-71.92,15.51-42.29-10.86-60.13c3.74-8.05-8.2-13.86,10.58-27.98,12.61-9.48,22.38-8.14,26.15-4.41,4.47,4.42,9.31,15.53,10.1,26.95.79,11.41-13.22,30.99-13.22,30.99l-2.61,36.31c-.44,22.25-9.52,52.87-2.98,43.98,16.4,27.73-67.65,107.21-13.41,112.33l28.99-.27,12.08,7.32.99-.74,2.52-1.47,7.24-5.5,4.37-3.76,3.22-2.58,8.06.82c57.89,4.76,49.65,49.78,46.54,58.6,92.69,54.64,21.56,148.15,21.56,148.15-70.2,82.36-145.29,6.99-145.29,6.99l-20.42,7.52c-39.81-3.66-46.61-37.43-46.61-37.43l-1.07-4.16-1.62-5.36-1.88-5.19s-2.32-5.82,2.12-9.23l8.76-5.86s.89-1.41-5.85-7.54l-1.37-5.33s-2.95-15.13-8.17-42.08l-9.85-.97-31.42,7.47s-6.09,30.86-24.5,25.32c0,0,44.06,54.85,30.43,50.74-1.19-3.31-6.08,28.25-7,32-1.83,7.51.66,28.08-2,48-2,15,1,24,3,40,4.07,32.55-2,38-2,38,0,0-52.7,30.31-66.06,25.22l-14.98-10.5s-11.82-11.37,11.04-35.72c16.48-17.55,18.37-12.51,31.44-6.82,2.68,1.17,6.04,7.36,7.97,8.33,3.34,1.68-17.25-4.41.59-11.51,11.65-4.63-12.58-77.89-15-90-2-10,7-23,11-39,1.2-4.81,21.66-96.93,25.28-100.59s-15.87-15.28-30.25-27.91c-4.54-3.99-8.57-6.2-17.85-13.03-15.64-11.51-23.78-15.44-24.2-15.95-4.37-5.17-9.46-10.98-29.41-24.52-16.7-11.33-27.43-18.04-27.43-18.04l-1.41-3.79s-10.39-4.75-8.54-15.64c1.35-1.72,2.65-3.39,3.91-5q40.2-51.4,40.2-51.4l43.87-51.31"/><ellipse class="cls-21" cx="531.45" cy="398.1" rx="14.05" ry="7.05" transform="translate(-112.54 559.95) rotate(-50.94)"/><line class="cls-7" x1="486.85" y1="453.45" x2="431.42" y2="409.53"/><line class="cls-7" x1="457.5" y1="384.15" x2="434.58" y2="412.1"/><line class="cls-7" x1="509.18" y1="425.62" x2="454.35" y2="381.58"/><ellipse class="cls-21" cx="464.11" cy="481.31" rx="14.05" ry="7.05" transform="translate(-202.07 538.44) rotate(-50.94)"/><path class="cls-13" d="M313.65,631.29c-6.68,1.68-13.17-2.19-14.51-8.64s3-13.03,9.68-14.71c6.68-1.68,13.17,2.19,14.51,8.64,1.33,6.45-3,13.03-9.68,14.71Z"/><line class="cls-7" x1="312.82" y1="607.59" x2="303.25" y2="584.72"/><line class="cls-7" x1="290.68" y1="584.87" x2="301.13" y2="614.24"/><line class="cls-5" x1="306.82" y1="609.17" x2="298.29" y2="585.03"/><line class="cls-5" x1="142.45" y1="389.79" x2="142.65" y2="389.55"/><line class="cls-7" x1="451.99" y1="97.82" x2="447.14" y2="70.39"/><line class="cls-7" x1="446.96" y1="69.2" x2="429.25" y2="78.07"/><ellipse class="cls-7" cx="446.03" cy="70.55" rx="1.17" ry="1.1" transform="translate(279.16 490.16) rotate(-77.3)"/><path class="cls-7" d="M476.05,77.29c-1.26-8.81-7.2-11.56-12.82-16.08-4.85-3.9-6.83-1.19-12.87-.04-5.7,1.08-10.68,3.86-14.16,8.86-4.49,6.45-8.76,6.98-7.43,16.22.98,6.83,7.29,11.24,7.52,17.21.59,15.09,13.05,16.87,20.67,15.43,6.28-1.19,11.25-12.77,14.77-18.58,3.8-6.28,5.55-14.5,4.33-23.02Z"/><polyline class="cls-10" points="353.27 404.74 358.49 398.05 353.27 404.74 358.49 398.05"/><path class="cls-8" d="M562.88,364.41s74.81,45.85,19.81,134.81l-8.7,10.9s-69.61,72.5-134.37,6.6l22.37,2.58,29.38-.32,9.26-1.56,5.08-2.65,66.9-82.66,6.14-7.59-15.86-60.12Z"/><path class="cls-14" d="M353.27,404.74c-5.72,12.24-19.63,40.07-27.03,77.97-8,41-.55,29.98-19,20-11.62-6.28-34.49-16.51-31-23,3.73-6.93,10-33,10-33,0,0,4.39,1.12,3-17-2-26,19.93-45.85,19.93-45.85l.98-1.31-112.67-85.46s-5.57-1.77.04-6.3l91.6-112.82s.7-5.25,8.25-.34q95.73,76.79,95.73,76.79l13.02,12.41-.32.13c-4.67-4-.34-24.26-1.29-30.42-1.12-7.26-.59-13.83,1.1-23,2.06-11.18,1.82-22.36,1.82-22.36,0,0,20.26,4.49,30.69,5.67s22.9,1.49,22.9,1.49c0,0,17.17-4.04,15.64,9.75-3.51,31.53-15.33,46.44-36.79,90.37"/><path class="cls-19" d="M288.23,169.51l-53.66-89.03-6.43,11.66-33.97,47.36,6.51,23.03-.37,7.67c-5.14,5.05,8.63,46.17,38.68,52.56,3.74.8.71,3.79.71,3.79,0,0,6.93-3.45-2.69-.75-15.85-13.32-17.62-13.53-17.62-13.53,0,0-79.33-5.66-91.61,10.02-5.11,6.69-6.6,7.51-6.6,7.51,0,0-44.54,31.52-36.25,42.7,5.37,7.24,101.96,18.99,108.75,18.43,3.48-.29,6.57-7.18,10.98-12.89,73.06-94.61,74.92-95.1,74.92-95.1,0,0,10.59-12.22,8.64-13.4Z"/><path class="cls-26" d="M381.28,466.85l-6.73-1.73-4.44,5.49,2.96,6.39,7.52-2.33.69-7.82Z"/><polygon class="cls-24" points="509.95 319.16 501.37 320.93 498.54 314.32 503.58 308.09 509.99 309.64 509.95 319.16"/><path class="cls-1" d="M229.64,291.01l-18.21,4.48s-2.83-.15.71-3.76l17.69-4.51s5.13,1.31-.19,3.79Z"/><path class="cls-1" d="M353.27,404.74l81.45-104.46-81.45,104.46Z"/><line class="cls-6" x1="437.21" y1="518.31" x2="377.38" y2="457.18"/><line class="cls-6" x1="560.88" y1="365.94" x2="487.99" y2="317.8"/><line class="cls-3" x1="356.22" y1="402.14" x2="438.36" y2="299.81"/><path class="cls-27" d="M595,381.82s69.67,40.2,1.24,136.46l-6.14,8.42s-50.88,80.36-129,20.56l133.9-165.45Z"/><path class="cls-7" d="M494.14,565.39c42.48-50.86,83.3-104.37,125.38-155.92"/><line class="cls-7" x1="616.69" y1="404.64" x2="616.69" y2="404.64"/><line class="cls-4" x1="507.7" y1="547.59" x2="479.47" y2="524.56"/><line class="cls-4" x1="489.61" y1="512.04" x2="518.38" y2="535.16"/><line class="cls-4" x1="499.78" y1="499.47" x2="528.08" y2="522.4"/><line class="cls-4" x1="509.57" y1="487.37" x2="537.87" y2="510.31"/><line class="cls-4" x1="519.31" y1="474.53" x2="547.62" y2="497.47"/><line class="cls-4" x1="500.98" y1="555.54" x2="472.75" y2="532.51"/><line class="cls-4" x1="494.22" y1="562.93" x2="465.99" y2="539.91"/><line class="cls-4" x1="528.82" y1="462.78" x2="557.12" y2="485.72"/><line class="cls-4" x1="539.94" y1="450.23" x2="568.25" y2="473.16"/><line class="cls-4" x1="550.25" y1="436.75" x2="578.56" y2="459.68"/><line class="cls-4" x1="560.68" y1="423.42" x2="588.98" y2="446.35"/><line class="cls-4" x1="571.04" y1="410.61" x2="599.35" y2="433.54"/><line class="cls-4" x1="581.55" y1="397.63" x2="609.85" y2="420.57"/><line class="cls-4" x1="590.16" y1="386.99" x2="618.47" y2="409.92"/><line class="cls-9" x1="587.78" y1="521.77" x2="573.42" y2="508.13"/><line class="cls-9" x1="548.73" y1="554.33" x2="610.14" y2="478.45"/><line class="cls-7" x1="392.35" y1="422.76" x2="459.84" y2="340.5"/><line class="cls-7" x1="367.31" y1="428.43" x2="361.19" y2="395.37"/><line class="cls-7" x1="429.56" y1="311.51" x2="474.19" y2="310.19"/><line class="cls-7" x1="442.49" y1="298.92" x2="434.58" y2="309.08"/><line class="cls-7" x1="268.37" y1="642.16" x2="245.7" y2="636.31"/><line class="cls-7" x1="244.73" y1="636.04" x2="246.96" y2="623.35"/><path class="cls-7" d="M246.14,634.41c-.53-.11-1.06.22-1.19.74s.19,1.03.72,1.14,1.06-.22,1.19-.74-.19-1.03-.72-1.14Z"/><path class="cls-7" d="M288.3,625.76c-14.97-16.39-19.14-21.82-30.06-13.79-7.68,5.64-23.01,21.4-22.93,30.44.22,24.1,16.52,31.26,22.64,27.88,7.44-4.11,20.57-4.56,27.02-13.66,6.82-9.62,10.3-23.23,3.33-30.86Z"/><line class="cls-2" x1="351.68" y1="406.61" x2="358.66" y2="398.19"/><ellipse class="cls-18" cx="344.87" cy="404.47" rx="8.1" ry="11.3" transform="translate(-184.54 356.99) rotate(-44.42)"/><ellipse class="cls-18" cx="332" cy="381.42" rx="8.06" ry="12.29" transform="translate(-46.25 45.82) rotate(-7.38)"/><ellipse class="cls-20" cx="336.33" cy="397.61" rx="8.1" ry="8" transform="translate(-180.84 336.36) rotate(-43.02)"/><ellipse class="cls-18" cx="325.86" cy="349.4" rx="8.06" ry="12.29" transform="translate(-42.19 44.76) rotate(-7.38)"/><ellipse class="cls-18" cx="318.62" cy="319.38" rx="8.06" ry="12.29" transform="translate(-38.39 43.58) rotate(-7.38)"/><ellipse class="cls-20" cx="329.27" cy="366.73" rx="8.1" ry="8" transform="translate(-161.67 323.25) rotate(-43.02)"/><ellipse class="cls-20" cx="322.94" cy="335.57" rx="8.1" ry="8" transform="translate(-142.11 310.55) rotate(-43.02)"/><ellipse class="cls-18" cx="434.25" cy="295.96" rx="8.1" ry="10.62" transform="translate(-64.38 461.9) rotate(-52.68)"/><ellipse class="cls-18" cx="405.5" cy="294.55" rx="8.05" ry="12.31" transform="translate(78.66 674.5) rotate(-85.29)"/><ellipse class="cls-20" cx="422.33" cy="294.04" rx="8.1" ry="8" transform="translate(-87.05 367.19) rotate(-43.02)"/><ellipse class="cls-18" cx="372.83" cy="293.2" rx="8.05" ry="12.31" transform="translate(50.02 640.71) rotate(-85.29)"/><ellipse class="cls-18" cx="341.82" cy="293.38" rx="8.05" ry="12.31" transform="translate(21.37 609.97) rotate(-85.29)"/><ellipse class="cls-20" cx="390.53" cy="293.85" rx="8.1" ry="8" transform="translate(-95.47 345.45) rotate(-43.02)"/><ellipse class="cls-20" cx="358.65" cy="292.88" rx="8.1" ry="8" transform="translate(-103.38 323.43) rotate(-43.02)"/><ellipse class="cls-20" cx="307.12" cy="287.13" rx="31.28" ry="30.87" transform="translate(-113.32 286.73) rotate(-43.02)"/><text class="cls-28" transform="translate(321.45 265.89) rotate(140.09) scale(1.01 1) skewX(-.79)"><tspan x="0" y="0">Eric </tspan></text><path class="cls-17" d="M194.69,142.83l40.38-58.87-4.56-50.51-10.59-19.54S202.15.12,197.51,3.55c-9.04,2.54-18.4,12.3-18.4,12.3l-10.53,14.57-14.42,21.94-16.45,31.73-6.55,11.06,63.53,47.68Z"/><path class="cls-23" d="M153.65,103.73s-2.58-16.06,10.45-48.01c4.22-7.63,4.81-8.97,4.81-8.97,3.15-6.24,25.04-33.76,49.82-29.44,1.39.24-2.24-4.43-2.24-4.43,0,0-7.99-11.37-24.59-3.44-9.31,4.45-18.41,17.95-18.41,17.95,0,0-10.41,10.23-13.1,16.1-14.17,30.89-22.42,46.21-22.42,46.21,0,0-2.25,2.47-1.8,4.37.29,2.27,9.18,7.98,9.18,7.98,0,0,5.04,4.95,8.74,4.83.54-1.4-.89-6.29-.89-6.29"/><path class="cls-13" d="M199.81,74.67l20.89-10.59s4.18,4.01,1.67,8.01c-18.14,9.96-20.82,11.15-20.82,11.15,0,0-4.38-3.21-1.74-8.57Z"/><path class="cls-13" d="M218.32,33.47l-28.29,11.88s-10.2-2.43-7.1-5.9l6.2-6.79s19.72-10.75,24.67-8.45l2.35,1.71s4.33,5.36,2.18,7.55Z"/><path class="cls-13" d="M194.95,54.49l20.89-10.59s4.18,4.01,1.67,8.01c-18.14,9.96-20.82,11.15-20.82,11.15,0,0-4.38-3.21-1.74-8.57Z"/><path class="cls-13" d="M178.09,116.25l-12.33-8.82s-2.56-.1-1.71-3.8l.42-12.21s2.19-18.4,8.21-28.8l13.43,3.52s2.61.75,1.78,5.99c1.24,6.45,2.69,18.83,2.69,18.83,0,0,.77,9.23-5.86,17.82l-1.49,2.86s.02,6.15-5.12,4.6Z"/><path class="cls-17" d="M132.29,215.23l-40.42,58.87-48.87,14.07-22.1-2.76s-19.33-11.51-17.8-17.06c-.9-9.32,4.84-21.56,4.84-21.56l9.81-15.06,15.29-21.35,23.71-26.79,7.97-10.1,67.57,41.75Z"/><path class="cls-23" d="M80.88,191.27s-15.95,3.43-41.1,27.12c-5.61,6.69-6.65,7.72-6.65,7.72-4.69,5.19-22.5,35.5-9.5,56.97.73,1.21-4.95-.47-4.95-.47,0,0-13.52-3.3-12.11-21.6.79-10.27,10.12-23.62,10.12-23.62,0,0,5.8-13.38,10.31-18,23.75-24.36,35.08-37.58,35.08-37.58,0,0,1.5-2.99,3.43-3.26,2.22-.55,10.78,5.64,10.78,5.64,0,0,6.45,2.89,7.68,6.37-1.11,1.01-6.2,1.46-6.2,1.46"/><path class="cls-13" d="M70.42,244.7l-2.34,23.25s5.26,2.43,8.09-1.35c2.74-20.47,2.89-23.39,2.89-23.39,0,0-4.59-2.91-8.64,1.49Z"/><path class="cls-13" d="M38.6,276.84l.87-30.6s-5.96-8.59-8.09-4.46l-4.11,8.23s-2.92,22.22,1.03,25.99l2.45,1.56s6.57,2.08,7.85-.71Z"/><path class="cls-13" d="M49.79,247.5l-2.34,23.25s5.26,2.43,8.09-1.35c2.74-20.47,2.89-23.39,2.89-23.39,0,0-4.59-2.91-8.64,1.49Z"/><path class="cls-13" d="M101.43,209.44l-12.71-8.26s-1.02-2.35-4.17-.21l-11.26,4.81s-16.41,8.7-23.96,18.07l8.15,11.2s1.65,2.16,6.25-.52c6.47-1.19,18.57-4.33,18.57-4.33,0,0,8.9-2.63,14.53-11.91l2.14-2.42s5.76-2.22,2.45-6.43Z"/><g class="cls-31"><path class="cls-29" d="M188.5,580.65c-1.45-1.27-2.9-2.55-4.35-3.82-.36-.32-.89.21-.53.53,1.45,1.27,2.9,2.55,4.35,3.82.36.32.89-.21.53-.53h0Z"/></g><path class="cls-15" d="M295.96,643.05c-68.5,2.91-140.22,7.09-172.16,26.7-16.35,10.04-25.05,37.87-24.56,49.52.49,11.52,15.2,31.29,31.99,39.85,33.37,17.01,101.13,11.46,170.02,8.54,54.11-2.3,124.45-.35,158.16-13.98,30.81-12.46,38.31-39.7,37.61-56.13s-8.98-41.65-43.39-51.48c-34.41-9.83-105.89-5.2-157.67-3Z"/><path class="cls-16" d="M297.91,646.47c-66.91,2.84-135,4.97-166.23,23.55-15.98,9.51-27.7,32.56-27.24,43.57s12.02,33.14,28.41,41.21c32.57,16.04,102.75,12.28,170.05,9.43,52.85-2.24,121.57-.5,154.51-13.43,30.11-11.82,34.79-38.11,34.13-53.63s-6.03-38.82-39.63-48.06c-33.6-9.25-103.43-4.77-154.01-2.63Z"/><circle class="cls-25" cx="414.63" cy="694.84" r="2.89"/><circle class="cls-25" cx="415.46" cy="714.35" r="2.89"/><circle class="cls-25" cx="398.77" cy="696.24" r="2.89"/><circle class="cls-25" cx="399.59" cy="715.74" r="2.89"/><circle class="cls-25" cx="211.01" cy="704.35" r="2.89"/><circle class="cls-25" cx="211.84" cy="723.86" r="2.89"/><circle class="cls-25" cx="195.15" cy="705.75" r="2.89"/><circle class="cls-25" cx="195.98" cy="725.26" r="2.89"/><path d="M354.16,653.34l14.52-.62.27,6.46c.04.88-.25,1.65-.86,2.31s-1.35,1.01-2.23,1.04l-8.07.34c-.87.04-1.64-.25-2.3-.85-.66-.61-1.02-1.35-1.05-2.23l-.27-6.46ZM355.92,656.5l.07,1.62c.02.45.19.82.53,1.13.33.3.71.44,1.15.42l8.07-.34c.44-.02.81-.19,1.11-.53.3-.33.44-.72.42-1.16l-.07-1.62-11.28.48Z"/><path d="M369.36,668.85l.14,3.24c.04.88-.25,1.65-.86,2.31s-1.35,1.01-2.23,1.04l-8.07.34c-.87.04-1.64-.25-2.3-.85-.66-.61-1.02-1.35-1.05-2.23l-.14-3.24c-.04-.88.25-1.65.85-2.31.61-.66,1.35-1.01,2.23-1.05l8.07-.34c.88-.04,1.65.25,2.31.85s1.01,1.35,1.05,2.23ZM366.14,668.98l-8.07.34c-.43.02-.8.19-1.11.52-.3.33-.45.72-.43,1.17s.19.82.53,1.13c.33.3.71.44,1.15.42l8.07-.34c.44-.02.81-.19,1.11-.53.3-.33.44-.72.42-1.16s-.19-.82-.52-1.12c-.33-.3-.71-.45-1.15-.43Z"/><path d="M355.26,679.14l14.52-.62.03.73-7.68,9.29,8.06-.34.07,1.62-14.52.62-.03-.74,7.68-9.28-8.06.34-.07-1.62Z"/><path d="M370.39,693.04l.14,3.22-3.22.14c-1.91.08-3.03-.95-3.37-3.08l1.62-.07c.08,1.04.65,1.55,1.69,1.55l-.07-1.62,3.22-.14Z"/><path d="M356.22,701.71l12.9-.55-.14-3.22,1.62-.07.41,9.68-1.62.07-.14-3.22-12.9.55-.14-3.24Z"/><path d="M356.76,714.51l14.52-.62.27,6.46c.04.88-.25,1.65-.86,2.31s-1.35,1.01-2.23,1.04l-.82.03c-.94.04-1.69-.2-2.26-.71-.56-.51-.93-1.3-1.1-2.37.05,1.07-.24,1.89-.87,2.46-.62.56-1.36.86-2.22.9l-.82.03c-.87.04-1.64-.25-2.31-.86-.66-.61-1.02-1.35-1.05-2.22l-.27-6.46ZM364.96,717.39l.07,1.62c.02.44.19.81.53,1.12s.72.45,1.16.43l1.62-.07c.44-.02.81-.19,1.11-.53.3-.33.44-.72.42-1.16l-.07-1.62-4.84.21ZM358.51,717.67l.07,1.62c.02.44.19.81.52,1.12.33.31.71.45,1.15.43l1.62-.07c1.08-.05,1.59-.61,1.55-1.69l-.07-1.62-4.84.21Z"/><path d="M357.31,727.41l14.52-.62.34,8.06-1.62.07-.21-4.84-4.84.21.14,3.24-1.6.07-.14-3.24-4.84.21.21,4.84-1.62.07-.34-8.06Z"/><path d="M357.99,743.43l11.3-.48c.88-.04,1.65.25,2.31.85s1.01,1.35,1.05,2.23l.14,3.24c.04.88-.25,1.65-.86,2.31s-1.35,1.01-2.23,1.04l-11.3.48-.14-3.22,6.46-.27-.14-3.24-6.46.27-.14-3.22ZM366.18,746.31l.14,3.24,3.24-.14c.44-.02.81-.19,1.11-.53.3-.33.44-.72.42-1.16s-.19-.82-.52-1.12c-.33-.3-.71-.45-1.15-.43l-3.24.14Z"/><path d="M331.62,670.34l14.52-.62.27,6.46c.04.88-.25,1.65-.86,2.31s-1.35,1.01-2.23,1.04l-1.62.07c-.88.04-1.65-.25-2.31-.85-.66-.61-1.01-1.35-1.05-2.23l-.14-3.24-6.46.27-.14-3.22ZM339.81,673.22l.07,1.62c.02.44.19.81.53,1.12s.72.45,1.16.43l1.62-.07c.44-.02.81-.19,1.11-.53.3-.33.44-.72.42-1.16l-.07-1.62-4.84.21Z"/><path d="M346.82,685.85l.14,3.24c.04.88-.25,1.65-.86,2.31s-1.35,1.01-2.23,1.04l-8.07.34c-.87.04-1.64-.25-2.3-.85-.66-.61-1.02-1.35-1.05-2.23l-.14-3.24c-.04-.88.25-1.65.85-2.31.61-.66,1.35-1.01,2.23-1.05l8.07-.34c.88-.04,1.65.25,2.31.85s1.01,1.35,1.05,2.23ZM343.6,685.98l-8.07.34c-.43.02-.8.19-1.11.52-.3.33-.45.72-.43,1.17s.19.82.53,1.13c.33.3.71.44,1.15.42l8.07-.34c.44-.02.81-.19,1.11-.53.3-.33.44-.72.42-1.16s-.19-.82-.52-1.12c-.33-.3-.71-.45-1.15-.43Z"/><path d="M344.35,703.72l-.07-1.6c1.07-.19,1.59-.72,1.55-1.6-.02-.56-.18-.98-.46-1.26-.28-.28-.7-.4-1.24-.38-.4.02-.77.19-1.11.52l-3.7,3.58c-.68.66-1.42,1.01-2.24,1.04l-.82.03c-.87.04-1.64-.25-2.3-.85-.66-.6-1.02-1.35-1.05-2.24l-.07-1.62c-.05-1.07.19-1.88.71-2.45.52-.56,1.31-.87,2.38-.91l.07,1.62c-.11,0-.2,0-.27,0-.44.02-.76.2-.98.55-.21.35-.31.72-.29,1.13.02.57.18.98.47,1.22s.7.35,1.23.33c.41-.02.78-.19,1.11-.52l3.68-3.58c.67-.66,1.42-1.01,2.24-1.04l.82-.03c.88-.04,1.65.25,2.31.85s1.01,1.35,1.05,2.24l.07,1.62c.09,2.02-.94,3.14-3.08,3.36Z"/><path d="M333.19,707.43l14.52-.62.34,8.06-1.62.07-.21-4.84-4.84.21.14,3.24-1.6.07-.14-3.24-4.84.21.21,4.84-1.62.07-.34-8.06Z"/><path d="M333.67,718.73l14.52-.62.27,6.46c.04.88-.25,1.65-.86,2.31s-1.35,1.01-2.23,1.04l-.88.04c-.72.03-1.43-.19-2.11-.65-.69-.47-1.06-1.28-1.11-2.44l.07,1.6c.02.44-.12.83-.43,1.16-.3.33-.68.51-1.12.52l-5.72.24-.14-3.22,4.84-.21c.44-.02.82-.2,1.12-.53.3-.33.45-.72.43-1.16l-.07-1.62-6.46.27-.14-3.22ZM341.87,721.61l.07,1.62c.02.44.19.81.53,1.12s.72.45,1.16.43l1.62-.07c.44-.02.81-.19,1.11-.53.3-.33.44-.72.42-1.16l-.07-1.62-4.84.21Z"/><path d="M339.12,733.03l9.68-.41.14,3.23-9.68.41-.14-3.23ZM334.29,733.23l3.22-.14.14,3.23-3.22.14-.14-3.23Z"/><path d="M238.83,683.04l36.56-1.55,13.45-.57,6.21-.26c.26-.01.52.04.76.14l1.05.44c.33.14.61.38.79.68l1.4,2.4c.23.4.27.88.11,1.31l-1.06,2.85c-.23.62-.83,1.04-1.53,1.07l-2.63.11-2.83.12-4.58.19-3.36.14-5.71.24-3.8.16,13.64,1.2c.08,0,.15,0,.23,0l3.66-.16,2.83-.12,2.83-.12c.98-.04,2,.77,1.96,1.71l.04.89s.04.85.04.89l.04.89c.03.78-.06,1.66-.87,1.83l-5.62,1.13-5.49,1.11c-.09.02-.18.03-.28.03l-7.92.34-4.1.17-2.63.11,6.13,1.46c.16.04.32.05.49.05l4.43-.19,9.8-.42,4.54-.19,9.36-.4,11.85-.5,5.85-.25c.38-.02.75.09,1.06.3l1.34.91c.42.29.68.74.7,1.23l.04.86.1,2.29c0,.23-.03.45-.12.66l-.32.75c-.25.59-.84.98-1.5,1.01l-.73.03c-.14,0-.29.03-.42.07l-3.17.93c-.14.04-.28.06-.42.07l-6.13.26-4.13.18-4.13.18-4.26.18-4,.17-3.56.15-4.84.21-4.26.18-4.53.19-3.06.13-1.72.07c-.88.04-1.27,1.07-.61,1.62h0c.15.12.33.2.53.23l5.26.6c.09.01.19.01.28,0l5.97-.25,4.86-.21c.13,0,.27,0,.4.03l3.69-1.1c.13.02,2.7-.11,2.83-.12l1.89-.08.98.85c1.01-.04-.42,1.75-.5,2.7l-.13,1.59c-.05.66-.54,1.23-1.21,1.42l-2.41.68c-.13.04-.27.06-.41.07l-3.73.16-7.73.33-4.26.18c-.09,0-.19,0-.28-.01l-5.4-.62c-.09-.01-.19-.01-.28-.01l-2.69.11,7.37,2.27c.19.06.39.09.6.08l3-.13,5.08-.22,5.2-.22,3.86-.16,1.01-.04c.68-.03,1.31.33,1.6.92l.68,1.38c.09.19.15.4.16.61l.02.48c.03.61-.31,1.18-.87,1.47l-.58.31c-.23.12-.49.19-.75.2l-2.09.09-5.46.23-3.29.14-2.84.12-2.93.12-4.69.2-2.83.12-2.83.12-2.83.12-.94.04-2.83.12h0c-1.01.04-1.75.9-1.6,1.85l.99,6.15c0,.06.02.12.02.18l.22,5.27.15,3.57.23,5.36.22,5.1c0,.17-.01.34-.07.51l-1.24,4.08c-.2.66-.83,1.13-1.56,1.16l-1.56.07c-.66.03-1.28-.31-1.58-.88l-.4-.76s-.05-.1-.07-.15l-2.02-5.05c-.04-.11-.07-.21-.09-.33l-1.26-7.83-2.36-12.79c-.06-.35-.25-.66-.52-.9l-2.99-2.6c-.33-.29-.77-.44-1.21-.42l-1.57.07c-.37.02-.73-.08-1.03-.28l-3.24-2.1c-.12-.08-.25-.14-.39-.19l-4.42-1.46c-.11-.04-.22-.08-.32-.14l-2.23-1.28c-.34-.2-.6-.5-.72-.86l-1.88-5.4c-.05-.14-.08-.29-.08-.44l-.42-9.89-.28-6.56-.26-6.05-.22-5.21-.25-6.01"/><polygon class="cls-12" points="414.36 686.22 423.53 685.83 425.05 721.74 394.01 723.05 392.48 687.09 414.36 686.22"/><polygon class="cls-12" points="408.41 645.38 413.05 747.28 406.06 747.57 402.67 645.63 408.41 645.38"/><circle class="cls-12" cx="417.8" cy="694.03" r="2"/><circle class="cls-12" cx="418.6" cy="713.01" r="2"/><circle class="cls-12" cx="397.82" cy="694.88" r="2"/><circle class="cls-12" cx="398.62" cy="713.86" r="2"/><path class="cls-22" d="M414.61,644.12l-19.43.82s-8.39,10.76.84,19.69l19.44-.53s9.67-9.73-.85-19.98Z"/><path class="cls-22" d="M418.79,741.03l-19.43.82s-8.39,10.76.84,19.69l19.44-.53s9.67-9.73-.85-19.98Z"/><polygon class="cls-12" points="208.13 692.88 217.3 692.49 218.82 728.4 187.78 729.71 186.25 693.75 208.13 692.88"/><polygon class="cls-12" points="202.18 652.04 206.82 753.93 199.83 754.23 196.44 652.28 202.18 652.04"/><circle class="cls-12" cx="211.57" cy="700.68" r="2"/><circle class="cls-12" cx="212.37" cy="719.66" r="2"/><circle class="cls-12" cx="191.59" cy="701.53" r="2"/><circle class="cls-12" cx="192.39" cy="720.51" r="2"/><path class="cls-22" d="M208.38,650.77l-19.43.82s-8.39,10.76.84,19.69l19.44-.53s9.67-9.73-.85-19.98Z"/><path class="cls-22" d="M212.56,747.68l-19.43.82s-8.39,10.76.84,19.69l19.44-.53s9.67-9.73-.85-19.98Z"/><g class="cls-30"><path class="cls-29" d="M418.66,757c-6.67.28-13.33.57-20,.85-.48.02-.48.77,0,.75,6.67-.28,13.33-.57,20-.85.48-.02.48-.77,0-.75h0Z"/></g><g class="cls-30"><path class="cls-29" d="M416.92,750.67c-5.04.21-10.08.43-15.12.64-.48.02-.48.77,0,.75,5.04-.21,10.08-.43,15.12-.64.48-.02.48-.77,0-.75h0Z"/></g><g class="cls-30"><path class="cls-29" d="M413.55,746.6l-1.18.05c-.2,0-.38.17-.38.38,0,.2.17.38.38.38l1.18-.05c.2,0,.38-.17.38-.38,0-.2-.17-.38-.38-.38h0Z"/></g><g class="cls-30"><path class="cls-29" d="M408.15,746.32l-2.18.09c-.2,0-.38.17-.38.38,0,.2.17.38.38.38l2.18-.09c.2,0,.38-.17.38-.38,0-.2-.17-.38-.38-.38h0Z"/></g><g class="cls-30"><path class="cls-29" d="M415.1,755.29c-2.46.1-4.93.21-7.39.31-.48.02-.48.77,0,.75,2.46-.1,4.93-.21,7.39-.31.48-.02.48-.77,0-.75h0Z"/></g><g class="cls-30"><path class="cls-29" d="M419.81,747.34l-3.86.16c-.48.02-.48.77,0,.75l3.86-.16c.48-.02.48-.77,0-.75h0Z"/></g><g class="cls-31"><path class="cls-29" d="M414.4,651.45c-3.47.15-6.95.29-10.42.44-.48.02-.48.77,0,.75,3.47-.15,6.95-.29,10.42-.44.48-.02.48-.77,0-.75h0Z"/></g><g class="cls-31"><path class="cls-29" d="M412.98,657.74l-4.54.19c-.48.02-.48.77,0,.75l4.54-.19c.48-.02.48-.77,0-.75h0Z"/></g><g class="cls-31"><path class="cls-29" d="M413.37,655.03l-2.52.11c-.2,0-.38.17-.38.38,0,.2.17.38.38.38l2.52-.11c.2,0,.38-.17.38-.38,0-.2-.17-.38-.38-.38h0Z"/></g><g class="cls-31"><path class="cls-29" d="M411.31,662.02l-5.38.23c-.48.02-.48.77,0,.75l5.38-.23c.48-.02.48-.77,0-.75h0Z"/></g><g class="cls-31"><path class="cls-29" d="M402.64,656.16l-5.04.21c-.48.02-.48.77,0,.75l5.04-.21c.48-.02.48-.77,0-.75h0Z"/></g><g class="cls-31"><path class="cls-29" d="M400.57,650.86l-2.86.12c-.2,0-.38.17-.38.38,0,.2.17.38.38.38l2.86-.12c.2,0,.38-.17.38-.38,0-.2-.17-.38-.38-.38h0Z"/></g><g class="cls-30"><path class="cls-29" d="M205.65,657.58c-3.53.15-7.06.3-10.59.45-.48.02-.48.77,0,.75,3.53-.15,7.06-.3,10.59-.45.48-.02.48-.77,0-.75h0Z"/></g><g class="cls-30"><path class="cls-29" d="M208.37,667.66c-1.11.05-2.22.09-3.32.14-.48.02-.48.77,0,.75,1.11-.05,2.22-.09,3.32-.14.48-.02.48-.77,0-.75h0Z"/></g><g class="cls-30"><path class="cls-29" d="M208.6,663.28l-4.57.19c-.48.02-.48.77,0,.75l4.57-.19c.48-.02.48-.77,0-.75h0Z"/></g><g class="cls-30"><path class="cls-29" d="M196.86,661.28l-5.4.23c-.48.02-.48.77,0,.75l5.4-.23c.48-.02.48-.77,0-.75h0Z"/></g><g class="cls-30"><path class="cls-29" d="M198.87,669.52c-2.22.09-4.43.19-6.65.28-.48.02-.48.77,0,.75,2.22-.09,4.43-.19,6.65-.28.48-.02.48-.77,0-.75h0Z"/></g><g class="cls-32"><path class="cls-29" d="M212.24,754.07c-2.08.09-4.15.18-6.23.26-.48.02-.48.77,0,.75,2.08-.09,4.15-.18,6.23-.26.48-.02.48-.77,0-.75h0Z"/></g><g class="cls-32"><path class="cls-29" d="M212.42,758.23l-3.53.15c-.48.02-.48.77,0,.75l3.53-.15c.48-.02.48-.77,0-.75h0Z"/></g><g class="cls-32"><path class="cls-29" d="M202.7,754.89c-3.19.14-6.37.27-9.56.41-.48.02-.48.77,0,.75,3.19-.14,6.37-.27,9.56-.41.48-.02.48-.77,0-.75h0Z"/></g><g class="cls-32"><path class="cls-29" d="M205.74,757.68l-1.45.06c-.2,0-.38.17-.38.38,0,.2.17.38.38.38l1.45-.06c.2,0,.38-.17.38-.38,0-.2-.17-.38-.38-.38h0Z"/></g><g class="cls-32"><path class="cls-29" d="M206.64,764.24c-4.78,0-9.57.16-14.34.48-.48.03-.48.78,0,.75,4.77-.32,9.56-.48,14.34-.48.48,0,.48-.75,0-.75h0Z"/></g><g class="cls-32"><path class="cls-29" d="M201.93,761.17c-1.38.06-2.77.12-4.15.18-.48.02-.48.77,0,.75,1.38-.06,2.77-.12,4.15-.18.48-.02.48-.77,0-.75h0Z"/></g><g class="cls-32"><path class="cls-29" d="M200.56,758.31c-2.42.1-4.85.21-7.27.31-.48.02-.48.77,0,.75,2.42-.1,4.85-.21,7.27-.31.48-.02.48-.77,0-.75h0Z"/></g><g class="cls-30"><path class="cls-29" d="M212.69,764.67l-.62.03c-.1,0-.19.04-.27.11-.07.07-.11.17-.11.27s.04.2.11.27.17.11.27.11l.62-.03c.1,0,.19-.04.27-.11.07-.07.11-.17.11-.27s-.04-.2-.11-.27-.17-.11-.27-.11h0Z"/></g><g class="cls-30"><path class="cls-29" d="M200.72,665.6l-6.03.26c-.48.02-.48.77,0,.75l6.03-.26c.48-.02.48-.77,0-.75h0Z"/></g></svg>