<?xml version="1.0" encoding="UTF-8"?><svg id="Layer_1" xmlns="http://www.w3.org/2000/svg" width="640.42" height="13.4" viewBox="0 0 640.42 13.4"><defs><style>.cls-1,.cls-2,.cls-3,.cls-4,.cls-5,.cls-6,.cls-7,.cls-8,.cls-9,.cls-10,.cls-11,.cls-12{font-family:ThunkyDEMO-Regular, 'Thunky DEMO';}.cls-1,.cls-13{letter-spacing:0em;}.cls-2{letter-spacing:0em;}.cls-13,.cls-14{font-family:MyriadPro-Regular, 'Myriad Pro';}.cls-15{font-size:12px;}.cls-3{letter-spacing:0em;}.cls-4{letter-spacing:0em;}.cls-5{letter-spacing:-.05em;}.cls-7{letter-spacing:-.01em;}.cls-8{letter-spacing:-.01em;}.cls-9{letter-spacing:-.03em;}.cls-10{letter-spacing:-.05em;}.cls-11{letter-spacing:-.03em;}.cls-12{letter-spacing:0em;}</style></defs><text class="cls-15" transform="translate(0 10.4)"><tspan class="cls-6" x="0" y="0">H</tspan><tspan class="cls-3" x="5.34" y="0">A</tspan><tspan class="cls-6" x="10.22" y="0">K</tspan><tspan class="cls-12" x="15.36" y="0">A</tspan><tspan class="cls-6" x="20.24" y="0">MI</tspan><tspan class="cls-13" x="28.04" y="0">//</tspan><tspan class="cls-1" x="36.28" y="0">P</tspan><tspan class="cls-3" x="40.39" y="0">o</tspan><tspan class="cls-6" x="44.71" y="0">rt</tspan><tspan class="cls-5" x="51.46" y="0">f</tspan><tspan class="cls-9" x="54.13" y="0">o</tspan><tspan class="cls-6" x="58.17" y="0">l</tspan><tspan class="cls-8" x="60.59" y="0">i</tspan><tspan class="cls-1" x="62.88" y="0">o</tspan><tspan class="cls-14" x="67.28" y="0">//</tspan><tspan class="cls-6" x="75.51" y="0">H</tspan><tspan class="cls-12" x="80.85" y="0">A</tspan><tspan class="cls-6" x="85.74" y="0">K</tspan><tspan class="cls-3" x="90.87" y="0">A</tspan><tspan class="cls-6" x="95.76" y="0">MI</tspan><tspan class="cls-14" x="103.56" y="0">//</tspan><tspan class="cls-6" x="111.79" y="0">P</tspan><tspan class="cls-4" x="115.91" y="0">o</tspan><tspan class="cls-6" x="120.22" y="0">rt</tspan><tspan class="cls-5" x="126.97" y="0">f</tspan><tspan class="cls-9" x="129.64" y="0">o</tspan><tspan class="cls-6" x="133.69" y="0">l</tspan><tspan class="cls-8" x="136.1" y="0">i</tspan><tspan class="cls-1" x="138.39" y="0">o</tspan><tspan class="cls-14" x="142.8" y="0">//</tspan><tspan class="cls-6" x="151.03" y="0">H</tspan><tspan class="cls-3" x="156.37" y="0">A</tspan><tspan class="cls-6" x="161.25" y="0">K</tspan><tspan class="cls-3" x="166.39" y="0">A</tspan><tspan class="cls-2" x="171.27" y="0">MI</tspan><tspan class="cls-14" x="179.07" y="0">//</tspan><tspan class="cls-6" x="187.3" y="0">P</tspan><tspan class="cls-3" x="191.42" y="0">o</tspan><tspan class="cls-6" x="195.74" y="0">rt</tspan><tspan class="cls-5" x="202.48" y="0">f</tspan><tspan class="cls-9" x="205.16" y="0">o</tspan><tspan class="cls-6" x="209.2" y="0">l</tspan><tspan class="cls-8" x="211.61" y="0">i</tspan><tspan class="cls-6" x="213.91" y="0">o</tspan><tspan class="cls-13" x="218.31" y="0">//</tspan><tspan class="cls-6" x="226.54" y="0">H</tspan><tspan class="cls-3" x="231.88" y="0">A</tspan><tspan class="cls-6" x="236.77" y="0">K</tspan><tspan class="cls-12" x="241.9" y="0">A</tspan><tspan class="cls-6" x="246.79" y="0">MI</tspan><tspan class="cls-13" x="254.59" y="0">//</tspan><tspan class="cls-1" x="262.82" y="0">P</tspan><tspan class="cls-3" x="266.93" y="0">o</tspan><tspan class="cls-6" x="271.25" y="0">rt</tspan><tspan class="cls-5" x="278" y="0">f</tspan><tspan class="cls-9" x="280.67" y="0">o</tspan><tspan class="cls-6" x="284.72" y="0">l</tspan><tspan class="cls-7" x="287.13" y="0">i</tspan><tspan class="cls-6" x="289.42" y="0">o</tspan><tspan class="cls-14" x="293.82" y="0">//</tspan><tspan class="cls-6" x="302.06" y="0">H</tspan><tspan class="cls-3" x="307.4" y="0">A</tspan><tspan class="cls-2" x="312.28" y="0">K</tspan><tspan class="cls-3" x="317.42" y="0">A</tspan><tspan class="cls-6" x="322.3" y="0">MI</tspan><tspan class="cls-13" x="330.1" y="0">//</tspan><tspan class="cls-6" x="338.33" y="0">H</tspan><tspan class="cls-3" x="343.67" y="0">A</tspan><tspan class="cls-2" x="348.55" y="0">K</tspan><tspan class="cls-3" x="353.69" y="0">A</tspan><tspan class="cls-6" x="358.58" y="0">MI</tspan><tspan class="cls-13" x="366.38" y="0">//</tspan><tspan class="cls-6" x="374.61" y="0">P</tspan><tspan class="cls-4" x="378.72" y="0">o</tspan><tspan class="cls-6" x="383.04" y="0">rt</tspan><tspan class="cls-5" x="389.79" y="0">f</tspan><tspan class="cls-9" x="392.46" y="0">o</tspan><tspan class="cls-6" x="396.51" y="0">l</tspan><tspan class="cls-8" x="398.92" y="0">i</tspan><tspan class="cls-1" x="401.21" y="0">o</tspan><tspan class="cls-14" x="405.61" y="0">//</tspan><tspan class="cls-6" x="413.84" y="0">H</tspan><tspan class="cls-12" x="419.18" y="0">A</tspan><tspan class="cls-6" x="424.07" y="0">K</tspan><tspan class="cls-3" x="429.21" y="0">A</tspan><tspan class="cls-6" x="434.09" y="0">MI</tspan><tspan class="cls-14" x="441.89" y="0">//</tspan><tspan class="cls-6" x="450.12" y="0">P</tspan><tspan class="cls-3" x="454.24" y="0">o</tspan><tspan class="cls-1" x="458.56" y="0">rt</tspan><tspan class="cls-5" x="465.3" y="0">f</tspan><tspan class="cls-9" x="467.98" y="0">o</tspan><tspan class="cls-6" x="472.02" y="0">l</tspan><tspan class="cls-8" x="474.43" y="0">i</tspan><tspan class="cls-1" x="476.72" y="0">o</tspan><tspan class="cls-14" x="481.13" y="0">//</tspan><tspan class="cls-6" x="489.36" y="0">H</tspan><tspan class="cls-3" x="494.7" y="0">A</tspan><tspan class="cls-6" x="499.58" y="0">K</tspan><tspan class="cls-3" x="504.72" y="0">A</tspan><tspan class="cls-2" x="509.6" y="0">MI</tspan><tspan class="cls-14" x="517.4" y="0">//</tspan><tspan class="cls-1" x="525.63" y="0">P</tspan><tspan class="cls-3" x="529.75" y="0">o</tspan><tspan class="cls-6" x="534.07" y="0">rt</tspan><tspan class="cls-10" x="540.81" y="0">f</tspan><tspan class="cls-11" x="543.49" y="0">o</tspan><tspan class="cls-6" x="547.53" y="0">l</tspan><tspan class="cls-8" x="549.95" y="0">i</tspan><tspan class="cls-6" x="552.24" y="0">o</tspan><tspan class="cls-13" x="556.64" y="0">//</tspan><tspan class="cls-6" x="564.87" y="0">H</tspan><tspan class="cls-3" x="570.21" y="0">A</tspan><tspan class="cls-6" x="575.1" y="0">K</tspan><tspan class="cls-12" x="580.23" y="0">A</tspan><tspan class="cls-6" x="585.12" y="0">MI</tspan><tspan class="cls-13" x="592.92" y="0">//</tspan><tspan class="cls-1" x="601.15" y="0">P</tspan><tspan class="cls-3" x="605.26" y="0">o</tspan><tspan class="cls-6" x="609.58" y="0">rt</tspan><tspan class="cls-5" x="616.33" y="0">f</tspan><tspan class="cls-9" x="619" y="0">o</tspan><tspan class="cls-6" x="623.05" y="0">l</tspan><tspan class="cls-8" x="625.46" y="0">i</tspan><tspan class="cls-1" x="627.75" y="0">o</tspan><tspan class="cls-14" x="632.16" y="0">//</tspan></text></svg>