<?xml version="1.0" encoding="UTF-8"?><svg id="Layer_1" xmlns="http://www.w3.org/2000/svg" xmlns:xlink="http://www.w3.org/1999/xlink" viewBox="0 0 1933.98 1084"><defs><style>.cls-1,.cls-2,.cls-3,.cls-4,.cls-5,.cls-6,.cls-7{fill:none;}.cls-8,.cls-9,.cls-10,.cls-2,.cls-11,.cls-3,.cls-4,.cls-12,.cls-13,.cls-14,.cls-15,.cls-5,.cls-16,.cls-17,.cls-6,.cls-18,.cls-19,.cls-20,.cls-21,.cls-22,.cls-23,.cls-24,.cls-25,.cls-7,.cls-26,.cls-27{stroke-miterlimit:10;}.cls-8,.cls-9,.cls-10,.cls-11,.cls-3,.cls-4,.cls-17,.cls-18,.cls-19,.cls-20,.cls-7,.cls-27{stroke:#241f20;}.cls-8,.cls-10,.cls-11,.cls-14,.cls-28,.cls-20,.cls-21,.cls-26{fill:#fff;}.cls-8,.cls-3,.cls-6,.cls-23{stroke-width:5px;}.cls-9{fill:#999;}.cls-9,.cls-12,.cls-14,.cls-17,.cls-19,.cls-28,.cls-20{stroke-width:2px;}.cls-10{stroke-width:3px;}.cls-2{stroke:#fced00;}.cls-2,.cls-16,.cls-18,.cls-7{stroke-width:4px;}.cls-11,.cls-4,.cls-15{stroke-width:6px;}.cls-29{font-family:Arial-Black, 'Arial Black';font-size:24.04px;font-weight:800;}.cls-29,.cls-30{fill:#241f20;}.cls-12,.cls-13,.cls-15,.cls-22{stroke:#000;}.cls-13{fill:#ff000f;}.cls-31{fill:#231f20;}.cls-14,.cls-21{stroke:#808083;}.cls-32{stroke-linejoin:bevel;stroke-width:.75px;}.cls-32,.cls-16,.cls-28,.cls-23,.cls-24{stroke:#231f20;}.cls-32,.cls-24,.cls-33{fill:#ec1c24;}.cls-34{fill:blue;}.cls-15{fill:#00944b;}.cls-5,.cls-6,.cls-25{stroke:#0e132e;}.cls-16{fill:#2d2b6f;}.cls-17{fill:#f2f2f2;}.cls-18{opacity:.22;}.cls-18,.cls-23{fill:#303591;}.cls-19{fill:#fced00;}.cls-35{opacity:.45;}.cls-36{opacity:.46;}.cls-37{opacity:.44;}.cls-28{stroke-linejoin:round;}.cls-38{letter-spacing:-.02em;}.cls-39{letter-spacing:-.01em;}.cls-40{fill:#006837;}.cls-41{letter-spacing:-.04em;}.cls-24{font-family:ChakraPetch-SemiBold, 'Chakra Petch';font-size:171px;font-weight:600;}.cls-24,.cls-27{stroke-width:7px;}.cls-25{fill:#663815;}.cls-26{stroke:#919396;}.cls-27{fill:#d2945c;}</style><image id="image" width="135" height="52" xlink:href="../../../../../../IMG_6882.png"/></defs><rect class="cls-40" x="9" width="1920" height="1080"/><rect x="60" y="50" width="1778.72" height="970"/><rect class="cls-34" x="46" y="50" width="1838.33" height="970"/><path class="cls-12" d="M1542.19,483.02c0,128.77,2.13,263.68,36.39,325.19,17.53,31.48,69.07,50.03,90.96,50.03,21.65,0,59.92-26.03,77.32-56.85,34.58-61.27,29.56-188.85,29.56-318.37,0-101.71,9.25-233.57-13.64-297.9-20.93-58.8-71.45-75.04-102.33-75.04-32.34,0-78.87,13.53-100.06,77.32-21.19,63.79-18.19,198.29-18.19,295.63Z"/><path class="cls-13" d="M1548.76,479.63c0,125.79-1.42,253.72,30.95,313.8,16.57,30.75,58.9,54.58,79.59,54.58,20.46,0,63.15-19.92,79.59-50.03,32.68-59.85,31.23-191.83,31.23-318.35,0-99.36,8.74-228.16-12.89-291.01-19.78-57.44-68.74-68.31-97.93-68.31-30.56,0-73.32,8.22-93.35,70.53-20.03,62.31-17.19,193.7-17.19,288.79Z"/><circle class="cls-22" cx="1648.82" cy="264.46" r="5.43"/><circle class="cls-22" cx="1685.49" cy="264.46" r="5.43"/><circle class="cls-22" cx="1650.18" cy="294.34" r="5.43"/><circle class="cls-22" cx="1686.85" cy="294.34" r="5.43"/><circle class="cls-22" cx="1650.46" cy="647.31" r="5.43"/><circle class="cls-22" cx="1687.13" cy="647.31" r="5.43"/><circle class="cls-22" cx="1651.82" cy="677.19" r="5.43"/><circle class="cls-22" cx="1688.49" cy="677.19" r="5.43"/><path d="M1566.14,374.62v-27.29s12.14,0,12.14,0c1.66,0,3.08.6,4.27,1.79s1.78,2.61,1.78,4.26v15.18c0,1.64-.59,3.06-1.78,4.26-1.19,1.2-2.61,1.8-4.27,1.8h-12.14ZM1572.19,371.58h3.04c.84,0,1.56-.3,2.15-.9.59-.6.89-1.3.89-2.12v-15.18c0-.83-.3-1.53-.9-2.13-.6-.59-1.31-.89-2.14-.89h-3.04s0,21.21,0,21.21Z"/><path d="M1596.44,347.33h6.08c1.66,0,3.08.6,4.27,1.79,1.19,1.19,1.78,2.61,1.78,4.26v15.18c0,1.64-.59,3.06-1.78,4.26-1.19,1.2-2.61,1.8-4.27,1.8h-6.08c-1.66,0-3.08-.59-4.27-1.78-1.19-1.19-1.78-2.61-1.78-4.27v-15.18c0-1.66.6-3.08,1.78-4.27,1.19-1.19,2.61-1.78,4.27-1.78ZM1596.44,353.38v15.18c0,.82.3,1.52.89,2.12.59.6,1.31.9,2.15.9s1.56-.3,2.15-.9c.59-.6.89-1.3.89-2.12v-15.18c0-.83-.3-1.53-.9-2.13-.6-.59-1.31-.89-2.14-.89s-1.55.3-2.15.89c-.6.59-.89,1.3-.89,2.13Z"/><path d="M1614.63,374.62v-27.29s1.38,0,1.38,0l16.81,15.15v-15.15s3.04,0,3.04,0v27.29s-1.39,0-1.39,0l-16.8-15.15v15.15s-3.04,0-3.04,0Z"/><path d="M1641.92,347.33h6.05s0,6.05,0,6.05c0,3.59-2.02,5.62-6.05,6.08v-3.04c1.95-.08,2.97-1.09,3.04-3.04h-3.04s0-6.05,0-6.05Z"/><path d="M1657.07,374.62v-24.25s-6.05,0-6.05,0v-3.04s18.19,0,18.19,0v3.04s-6.05,0-6.05,0v24.25s-6.08,0-6.08,0Z"/><path d="M1681.13,374.62v-27.29s12.14,0,12.14,0c1.66,0,3.08.6,4.27,1.79,1.19,1.19,1.78,2.61,1.78,4.26v1.53c0,1.77-.5,3.16-1.51,4.18-1.01,1.01-2.52,1.64-4.54,1.88,2.02,0,3.53.61,4.54,1.83,1.01,1.22,1.51,2.63,1.51,4.23v1.53c0,1.64-.6,3.06-1.8,4.26-1.2,1.2-2.62,1.8-4.26,1.8h-12.14ZM1687.18,359.47h3.04c.83,0,1.54-.3,2.14-.9s.9-1.31.9-2.14v-3.04c0-.83-.3-1.53-.9-2.13-.6-.59-1.31-.89-2.14-.89h-3.04v9.1ZM1687.18,371.58h3.04c.83,0,1.54-.3,2.14-.9.6-.6.9-1.3.9-2.12v-3.04c0-2.03-1.01-3.04-3.04-3.04h-3.04v9.1Z"/><path d="M1705.38,374.62v-27.29s15.15,0,15.15,0v3.04s-9.1,0-9.1,0v9.1h6.08s0,3.01,0,3.01h-6.08v9.1s9.1,0,9.1,0v3.04s-15.15,0-15.15,0Z"/><path d="M1735.49,374.62v-21.23c0-1.66.6-3.08,1.78-4.27s2.61-1.78,4.27-1.78h6.08c1.66,0,3.08.6,4.27,1.79s1.78,2.61,1.78,4.26v21.23s-6.05,0-6.05,0v-12.14s-6.08,0-6.08,0v12.14s-6.05,0-6.05,0ZM1741.55,359.47h6.08v-6.08c0-.83-.3-1.53-.9-2.13-.6-.59-1.31-.89-2.14-.89s-1.55.3-2.15.89c-.6.59-.89,1.3-.89,2.13v6.08Z"/><path d="M1596.24,418.28v-27.29s12.14,0,12.14,0c1.66,0,3.08.6,4.27,1.79,1.19,1.19,1.78,2.61,1.78,4.26v3.04c0,1.66-.59,3.08-1.78,4.27-1.19,1.19-2.61,1.78-4.27,1.78h-6.08s0,12.14,0,12.14h-6.05ZM1602.29,403.13h3.04c.83,0,1.54-.3,2.14-.9s.9-1.31.9-2.14v-3.04c0-.83-.3-1.53-.9-2.13-.6-.59-1.31-.89-2.14-.89h-3.04v9.1Z"/><path d="M1626.54,390.99h6.08c1.66,0,3.08.6,4.27,1.79,1.19,1.19,1.78,2.61,1.78,4.26v15.18c0,1.64-.59,3.06-1.78,4.26-1.19,1.2-2.61,1.8-4.27,1.8h-6.08c-1.66,0-3.08-.59-4.27-1.78-1.19-1.19-1.78-2.61-1.78-4.27v-15.18c0-1.66.6-3.08,1.78-4.27s2.61-1.78,4.27-1.78ZM1626.54,397.05v15.18c0,.82.3,1.52.89,2.12.59.6,1.31.9,2.15.9s1.56-.3,2.15-.9c.59-.6.89-1.3.89-2.12v-15.18c0-.83-.3-1.53-.9-2.13-.6-.59-1.31-.89-2.14-.89s-1.55.3-2.15.89c-.6.59-.89,1.3-.89,2.13Z"/><path d="M1659.88,397.05h-3.01c-.27-2.03-1.22-3.04-2.87-3.04-1.06,0-1.86.26-2.4.77-.54.51-.81,1.27-.81,2.29,0,.76.3,1.47.89,2.13l6.42,7.22c1.18,1.33,1.78,2.75,1.78,4.28v1.53c0,1.64-.59,3.06-1.78,4.26-1.18,1.2-2.61,1.8-4.28,1.8h-3.04c-2.01,0-3.52-.51-4.53-1.52-1.01-1.01-1.52-2.53-1.52-4.53h3.04c-.02.21-.03.37-.03.5,0,.83.32,1.45.95,1.88.64.43,1.33.64,2.09.64,1.08,0,1.86-.26,2.33-.78s.71-1.28.71-2.27c0-.77-.3-1.48-.89-2.13l-6.42-7.19c-1.18-1.32-1.78-2.74-1.78-4.28v-1.53c0-1.65.59-3.07,1.78-4.26,1.18-1.19,2.61-1.79,4.28-1.79h3.04c3.79,0,5.81,2.02,6.05,6.05Z"/><path d="M1665.97,418.28v-27.29s15.15,0,15.15,0v3.04s-9.1,0-9.1,0v9.1h6.08s0,3.01,0,3.01h-6.08v9.1s9.1,0,9.1,0v3.04s-15.15,0-15.15,0Z"/><path d="M1687.2,418.28v-27.29s12.14,0,12.14,0c1.66,0,3.08.6,4.27,1.79,1.19,1.19,1.78,2.61,1.78,4.26v1.65c0,1.35-.46,2.66-1.39,3.92-.93,1.26-2.48,1.88-4.66,1.88h3.01c.83,0,1.55.3,2.15.89.6.6.89,1.31.89,2.15v10.75s-6.05,0-6.05,0v-9.1c0-.83-.3-1.55-.9-2.15-.6-.6-1.31-.89-2.14-.89h-3.04v12.14s-6.05,0-6.05,0ZM1693.26,403.13h3.04c.83,0,1.54-.3,2.14-.9.6-.6.9-1.31.9-2.14v-3.04c0-.83-.3-1.53-.9-2.13-.6-.59-1.31-.89-2.14-.89h-3.04v9.1Z"/><path d="M1714.46,409.18v-18.19s6.07,0,6.07,0v18.19s-6.07,0-6.07,0ZM1714.46,418.28v-6.05s6.07,0,6.07,0v6.05s-6.07,0-6.07,0Z"/><path d="M1612.69,593.4v-68.72s0-25.29,0-25.29v-11.67c0-.49.11-.98.32-1.42l.91-1.93c.29-.61.76-1.11,1.34-1.42l4.61-2.44c.77-.41,1.66-.44,2.46-.11l5.25,2.22c1.14.48,1.89,1.65,1.89,2.95v4.95s0,5.32,0,5.32v8.62s0,6.33,0,6.33v10.73s0,7.15,0,7.15l3.33-25.51c.02-.14.03-.29.03-.43v-6.88s0-5.32,0-5.32v-5.32c0-1.85,1.61-3.69,3.36-3.55h1.68c.08,0,1.6,0,1.68,0h1.68c1.47,0,3.12.24,3.36,1.77l1.68,10.64,1.64,10.38c.03.17.04.35.04.52v14.89s0,7.7,0,7.7v4.95s3.23-11.39,3.23-11.39c.08-.3.13-.6.13-.91v-8.32s0-18.43,0-18.43v-8.53s0-17.6,0-17.6v-22.28s0-11,0-11c0-.71.23-1.4.64-1.96l1.81-2.44c.57-.77,1.44-1.21,2.36-1.21h1.61s4.3,0,4.3,0c.43,0,.85.1,1.23.28l1.37.65c1.08.51,1.77,1.65,1.77,2.9v1.38c0,.27.03.54.1.8l1.49,6.01c.06.26.1.53.1.8v11.52s0,7.76,0,7.76v7.76s0,8.01,0,8.01v7.51s0,6.69,0,6.69v9.09s0,8.01,0,8.01v8.51s0,5.76,0,5.76v3.23c0,1.65,1.9,2.46,2.98,1.28h0c.25-.27.41-.61.47-.97l1.55-9.82c.03-.17.04-.35.04-.52v-11.22s0-9.14,0-9.14c0-.25.03-.5.08-.74l-1.76-7.01c.06-.24,0-5.07,0-5.32v-3.55s1.68-1.77,1.68-1.77c0-1.9,3.25.94,5.03,1.15l2.98.37c1.24.15,2.27,1.1,2.57,2.38l1.09,4.59c.06.25.09.51.09.77v7.01s0,14.52,0,14.52v8c0,.18-.01.35-.04.52l-1.6,10.09c-.03.17-.04.35-.04.52v5.06s4.85-13.65,4.85-13.65c.13-.36.19-.73.19-1.11v-5.63s0-9.56,0-9.56v-9.77s0-7.26,0-7.26v-1.89c0-1.28.73-2.44,1.85-2.93l2.64-1.16c.37-.16.76-.25,1.16-.25h.9c1.14,0,2.18.68,2.69,1.76l.53,1.12c.21.44.32.93.32,1.42v3.94s0,10.27,0,10.27v6.18s0,5.34,0,5.34v5.51s0,8.81,0,8.81v5.32s0,5.32,0,5.32v5.32s0,1.77,0,1.77v5.32h0c0,1.89,1.56,3.36,3.34,3.16l11.61-1.36c.11-.01.22-.02.33-.02h9.91s6.72,0,6.72,0h10.08s9.59,0,9.59,0c.32,0,.64.06.95.16l7.56,2.66c1.23.43,2.06,1.65,2.06,3.01v2.93c0,1.25-.69,2.38-1.77,2.89l-1.45.69c-.09.04-.19.08-.29.12l-9.63,3.39c-.2.07-.41.12-.62.14l-14.8,1.74-24.19,3.41c-.65.09-1.26.41-1.73.9l-5.12,5.41c-.56.6-.88,1.4-.88,2.25v2.95c0,.69-.21,1.36-.6,1.91l-4.2,5.91c-.16.22-.29.47-.39.73l-3.1,8.17c-.08.2-.17.4-.29.58l-2.57,4.08c-.4.63-.99,1.08-1.68,1.29l-10.29,3.1c-.27.08-.55.12-.83.12h-18.6s-12.33,0-12.33,0h-11.38s-9.8,0-9.8,0h-11.3"/><polygon class="cls-9" points="1632.62 264.28 1632.62 247.04 1700.13 247.04 1700.12 305.41 1632.52 305.41 1632.62 264.28"/><polygon class="cls-9" points="1555.51 272.2 1747.09 271.6 1747.09 284.75 1555.51 282.99 1555.51 272.2"/><circle class="cls-9" cx="1647.55" cy="258.45" r="3.76"/><circle class="cls-9" cx="1683.23" cy="258.45" r="3.76"/><circle class="cls-9" cx="1647.55" cy="296.01" r="3.76"/><circle class="cls-9" cx="1683.23" cy="296.01" r="3.76"/><path class="cls-17" d="M1553.64,260.46v36.52s19.53,16.6,37.01,0l.55-36.52s-17.49-18.92-37.56,0Z"/><path class="cls-17" d="M1735.82,260.33v36.52s19.53,16.6,37.01,0l.55-36.52s-17.49-18.92-37.56,0Z"/><polygon class="cls-9" points="1628.69 651.8 1628.69 634.56 1696.2 634.56 1696.18 692.92 1628.59 692.92 1628.69 651.8"/><polygon class="cls-9" points="1551.58 659.71 1743.15 659.12 1743.15 672.26 1551.58 670.5 1551.58 659.71"/><circle class="cls-9" cx="1643.61" cy="645.97" r="3.76"/><circle class="cls-9" cx="1679.3" cy="645.97" r="3.76"/><circle class="cls-9" cx="1643.61" cy="683.53" r="3.76"/><circle class="cls-9" cx="1679.3" cy="683.53" r="3.76"/><path class="cls-17" d="M1549.7,647.98v36.52s19.53,16.6,37.01,0l.55-36.52s-17.49-18.92-37.56,0Z"/><path class="cls-17" d="M1731.89,647.85v36.52s19.53,16.6,37.01,0l.55-36.52s-17.49-18.92-37.56,0Z"/><g class="cls-35"><path class="cls-30" d="M1766.11,261.87c0,12.53,0,25.06,0,37.59,0,.48.75.48.75,0,0-12.53,0-25.06,0-37.59,0-.48-.75-.48-.75,0h0Z"/></g><g class="cls-35"><path class="cls-30" d="M1754.09,264.63c0,9.48,0,18.95,0,28.43,0,.48.75.48.75,0,0-9.48,0-18.95,0-28.43,0-.48-.75-.48-.75,0h0Z"/></g><g class="cls-35"><path class="cls-30" d="M1746.19,270.63v2.21c0,.2.17.38.38.38s.38-.16.38-.38v-2.21c0-.2-.17-.38-.38-.38s-.38.16-.38.38h0Z"/></g><g class="cls-35"><path class="cls-30" d="M1745.24,280.74v4.11c0,.48.75.48.75,0v-4.11c0-.48-.75-.48-.75,0h0Z"/></g><g class="cls-35"><path class="cls-30" d="M1762.61,268.42c0,4.63,0,9.27,0,13.9,0,.48.75.48.75,0,0-4.63,0-9.27,0-13.9,0-.48-.75-.48-.75,0h0Z"/></g><g class="cls-35"><path class="cls-30" d="M1748.08,258.95c0,2.42,0,4.84,0,7.27,0,.48.75.48.75,0,0-2.42,0-4.84,0-7.27,0-.48-.75-.48-.75,0h0Z"/></g><g class="cls-36"><path class="cls-30" d="M1567.7,261.47c0,6.53,0,13.06,0,19.59,0,.48.75.48.75,0,0-6.53,0-13.06,0-19.59,0-.48-.75-.48-.75,0h0Z"/></g><g class="cls-36"><path class="cls-30" d="M1579.39,264.63c0,2.84,0,5.69,0,8.53,0,.48.75.48.75,0,0-2.84,0-5.69,0-8.53,0-.48-.75-.48-.75,0h0Z"/></g><g class="cls-36"><path class="cls-30" d="M1574.34,263.68c0,1.58,0,3.16,0,4.74,0,.48.75.48.75,0,0-1.58,0-3.16,0-4.74,0-.48-.75-.48-.75,0h0Z"/></g><g class="cls-36"><path class="cls-30" d="M1587.29,268.11c0,3.37,0,6.74,0,10.11,0,.48.75.48.75,0,0-3.37,0-6.74,0-10.11,0-.48-.75-.48-.75,0h0Z"/></g><g class="cls-36"><path class="cls-30" d="M1575.6,283.9c0,3.16,0,6.32,0,9.48,0,.48.75.48.75,0,0-3.16,0-6.32,0-9.48,0-.48-.75-.48-.75,0h0Z"/></g><g class="cls-36"><path class="cls-30" d="M1565.49,287.38c0,1.79,0,3.58,0,5.37,0,.48.75.48.75,0,0-1.79,0-3.58,0-5.37,0-.48-.75-.48-.75,0h0Z"/></g><g class="cls-35"><path class="cls-30" d="M1562.58,653.67c0,6.64,0,13.28,0,19.92,0,.48.75.48.75,0,0-6.64,0-13.28,0-19.92,0-.48-.75-.48-.75,0h0Z"/></g><g class="cls-35"><path class="cls-30" d="M1581.72,649.38c0,2.08,0,4.17,0,6.25,0,.48.75.48.75,0,0-2.08,0-4.17,0-6.25,0-.48-.75-.48-.75,0h0Z"/></g><g class="cls-35"><path class="cls-30" d="M1573.52,648.6c0,2.86,0,5.73,0,8.59,0,.48.75.48.75,0,0-2.86,0-5.73,0-8.59,0-.48-.75-.48-.75,0h0Z"/></g><g class="cls-35"><path class="cls-30" d="M1568.83,670.46c0,3.38,0,6.77,0,10.15,0,.48.75.48.75,0,0-3.38,0-6.77,0-10.15,0-.48-.75-.48-.75,0h0Z"/></g><g class="cls-35"><path class="cls-30" d="M1584.45,667.34c0,4.17,0,8.33,0,12.5,0,.48.75.48.75,0,0-4.17,0-8.33,0-12.5,0-.48-.75-.48-.75,0h0Z"/></g><g class="cls-37"><path class="cls-30" d="M1744.18,648.99v11.72c0,.48.75.48.75,0v-11.72c0-.48-.75-.48-.75,0h0Z"/></g><g class="cls-37"><path class="cls-30" d="M1751.99,648.99c0,2.21,0,4.43,0,6.64,0,.48.75.48.75,0,0-2.21,0-4.43,0-6.64,0-.48-.75-.48-.75,0h0Z"/></g><g class="cls-37"><path class="cls-30" d="M1744.96,666.95c0,5.99,0,11.98,0,17.96,0,.48.75.48.75,0,0-5.99,0-11.98,0-17.96,0-.48-.75-.48-.75,0h0Z"/></g><g class="cls-37"><path class="cls-30" d="M1750.43,661.48v2.73c0,.48.75.48.75,0v-2.73c0-.48-.75-.48-.75,0h0Z"/></g><g class="cls-37"><path class="cls-30" d="M1762.82,660.31c-.38,8.98-.46,17.97-.25,26.95.01.48.76.48.75,0-.21-8.98-.13-17.97.25-26.95.02-.48-.73-.48-.75,0h0Z"/></g><g class="cls-37"><path class="cls-30" d="M1756.68,668.9c0,2.6,0,5.21,0,7.81,0,.48.75.48.75,0,0-2.6,0-5.21,0-7.81,0-.48-.75-.48-.75,0h0Z"/></g><g class="cls-37"><path class="cls-30" d="M1751.21,671.25c0,4.56,0,9.11,0,13.67,0,.48.75.48.75,0,0-4.56,0-9.11,0-13.67,0-.48-.75-.48-.75,0h0Z"/></g><g class="cls-35"><path class="cls-30" d="M1764.1,648.99v1.17c0,.2.17.38.38.38s.38-.16.38-.38v-1.17c0-.2-.17-.38-.38-.38s-.38.16-.38.38h0Z"/></g><g class="cls-35"><path class="cls-30" d="M1577.25,663.57c0,3.78,0,7.55,0,11.33,0,.48.75.48.75,0,0-3.78,0-7.55,0-11.33,0-.48-.75-.48-.75,0h0Z"/></g><path class="cls-12" d="M154.3,496.88c0,128.77,2.13,263.68,36.39,325.19,17.53,31.48,69.07,50.03,90.96,50.03,21.65,0,59.92-26.03,77.32-56.85,34.58-61.27,29.56-188.85,29.56-318.37,0-101.71,9.25-233.57-13.64-297.9-20.93-58.8-71.45-75.04-102.33-75.04-32.34,0-78.87,13.53-100.06,77.32-21.19,63.79-18.19,198.29-18.19,295.63Z"/><path class="cls-13" d="M160.88,493.49c0,125.79-1.42,253.72,30.95,313.8,16.57,30.75,58.9,54.58,79.59,54.58,20.46,0,63.15-19.92,79.59-50.03,32.68-59.85,31.23-191.83,31.23-318.35,0-99.36,8.74-228.16-12.89-291.01-19.78-57.44-68.74-68.31-97.93-68.31-30.56,0-73.32,8.22-93.35,70.53-20.03,62.31-17.19,193.7-17.19,288.79Z"/><circle class="cls-22" cx="260.93" cy="278.32" r="5.43"/><circle class="cls-22" cx="297.6" cy="278.32" r="5.43"/><circle class="cls-22" cx="262.29" cy="308.2" r="5.43"/><circle class="cls-22" cx="298.96" cy="308.2" r="5.43"/><circle class="cls-22" cx="262.57" cy="661.17" r="5.43"/><circle class="cls-22" cx="299.24" cy="661.17" r="5.43"/><circle class="cls-22" cx="263.93" cy="691.05" r="5.43"/><circle class="cls-22" cx="300.6" cy="691.05" r="5.43"/><path d="M178.25,388.48v-27.29s12.14,0,12.14,0c1.66,0,3.08.6,4.27,1.79s1.78,2.61,1.78,4.26v15.18c0,1.64-.59,3.06-1.78,4.26-1.19,1.2-2.61,1.8-4.27,1.8h-12.14ZM184.3,385.44h3.04c.84,0,1.56-.3,2.15-.9.59-.6.89-1.3.89-2.12v-15.18c0-.83-.3-1.53-.9-2.13-.6-.59-1.31-.89-2.14-.89h-3.04s0,21.21,0,21.21Z"/><path d="M208.55,361.19h6.08c1.66,0,3.08.6,4.27,1.79,1.19,1.19,1.78,2.61,1.78,4.26v15.18c0,1.64-.59,3.06-1.78,4.26-1.19,1.2-2.61,1.8-4.27,1.8h-6.08c-1.66,0-3.08-.59-4.27-1.78-1.19-1.19-1.78-2.61-1.78-4.27v-15.18c0-1.66.6-3.08,1.78-4.27,1.19-1.19,2.61-1.78,4.27-1.78ZM208.55,367.24v15.18c0,.82.3,1.52.89,2.12.59.6,1.31.9,2.15.9s1.56-.3,2.15-.9c.59-.6.89-1.3.89-2.12v-15.18c0-.83-.3-1.53-.9-2.13-.6-.59-1.31-.89-2.14-.89s-1.55.3-2.15.89c-.6.59-.89,1.3-.89,2.13Z"/><path d="M226.74,388.48v-27.29s1.38,0,1.38,0l16.81,15.15v-15.15s3.04,0,3.04,0v27.29s-1.39,0-1.39,0l-16.8-15.15v15.15s-3.04,0-3.04,0Z"/><path d="M254.03,361.19h6.05s0,6.05,0,6.05c0,3.59-2.02,5.62-6.05,6.08v-3.04c1.95-.08,2.97-1.09,3.04-3.04h-3.04s0-6.05,0-6.05Z"/><path d="M269.18,388.48v-24.25s-6.05,0-6.05,0v-3.04s18.19,0,18.19,0v3.04s-6.05,0-6.05,0v24.25s-6.08,0-6.08,0Z"/><path d="M293.24,388.48v-27.29s12.14,0,12.14,0c1.66,0,3.08.6,4.27,1.79,1.19,1.19,1.78,2.61,1.78,4.26v1.53c0,1.77-.5,3.16-1.51,4.18-1.01,1.01-2.52,1.64-4.54,1.88,2.02,0,3.53.61,4.54,1.83,1.01,1.22,1.51,2.63,1.51,4.23v1.53c0,1.64-.6,3.06-1.8,4.26-1.2,1.2-2.62,1.8-4.26,1.8h-12.14ZM299.3,373.33h3.04c.83,0,1.54-.3,2.14-.9s.9-1.31.9-2.14v-3.04c0-.83-.3-1.53-.9-2.13-.6-.59-1.31-.89-2.14-.89h-3.04v9.1ZM299.3,385.44h3.04c.83,0,1.54-.3,2.14-.9.6-.6.9-1.3.9-2.12v-3.04c0-2.03-1.01-3.04-3.04-3.04h-3.04v9.1Z"/><path d="M317.49,388.48v-27.29s15.15,0,15.15,0v3.04s-9.1,0-9.1,0v9.1h6.08s0,3.01,0,3.01h-6.08v9.1s9.1,0,9.1,0v3.04s-15.15,0-15.15,0Z"/><path d="M347.61,388.48v-21.23c0-1.66.6-3.08,1.78-4.27,1.19-1.19,2.61-1.78,4.27-1.78h6.08c1.66,0,3.08.6,4.27,1.79s1.78,2.61,1.78,4.26v21.23s-6.05,0-6.05,0v-12.14s-6.08,0-6.08,0v12.14s-6.05,0-6.05,0ZM353.66,373.33h6.08v-6.08c0-.83-.3-1.53-.9-2.13-.6-.59-1.31-.89-2.14-.89s-1.55.3-2.15.89c-.6.59-.89,1.3-.89,2.13v6.08Z"/><path d="M208.35,432.14v-27.29s12.14,0,12.14,0c1.66,0,3.08.6,4.27,1.79,1.19,1.19,1.78,2.61,1.78,4.26v3.04c0,1.66-.59,3.08-1.78,4.27-1.19,1.19-2.61,1.78-4.27,1.78h-6.08s0,12.14,0,12.14h-6.05ZM214.41,416.99h3.04c.83,0,1.54-.3,2.14-.9s.9-1.31.9-2.14v-3.04c0-.83-.3-1.53-.9-2.13-.6-.59-1.31-.89-2.14-.89h-3.04v9.1Z"/><path d="M238.66,404.85h6.08c1.66,0,3.08.6,4.27,1.79,1.19,1.19,1.78,2.61,1.78,4.26v15.18c0,1.64-.59,3.06-1.78,4.26-1.19,1.2-2.61,1.8-4.27,1.8h-6.08c-1.66,0-3.08-.59-4.27-1.78-1.19-1.19-1.78-2.61-1.78-4.27v-15.18c0-1.66.6-3.08,1.78-4.27s2.61-1.78,4.27-1.78ZM238.66,410.91v15.18c0,.82.3,1.52.89,2.12.59.6,1.31.9,2.15.9s1.56-.3,2.15-.9c.59-.6.89-1.3.89-2.12v-15.18c0-.83-.3-1.53-.9-2.13-.6-.59-1.31-.89-2.14-.89s-1.55.3-2.15.89c-.6.59-.89,1.3-.89,2.13Z"/><path d="M272,410.91h-3.01c-.27-2.03-1.22-3.04-2.87-3.04-1.06,0-1.86.26-2.4.77-.54.51-.81,1.27-.81,2.29,0,.76.3,1.47.89,2.13l6.42,7.22c1.18,1.33,1.78,2.75,1.78,4.28v1.53c0,1.64-.59,3.06-1.78,4.26-1.18,1.2-2.61,1.8-4.28,1.8h-3.04c-2.01,0-3.52-.51-4.53-1.52-1.01-1.01-1.52-2.53-1.52-4.53h3.04c-.02.21-.03.37-.03.5,0,.83.32,1.45.95,1.88.64.43,1.33.64,2.09.64,1.08,0,1.86-.26,2.33-.78s.71-1.28.71-2.27c0-.77-.3-1.48-.89-2.13l-6.42-7.19c-1.18-1.32-1.78-2.74-1.78-4.28v-1.53c0-1.65.59-3.07,1.78-4.26,1.18-1.19,2.61-1.79,4.28-1.79h3.04c3.79,0,5.81,2.02,6.05,6.05Z"/><path d="M278.08,432.14v-27.29s15.15,0,15.15,0v3.04s-9.1,0-9.1,0v9.1h6.08s0,3.01,0,3.01h-6.08v9.1s9.1,0,9.1,0v3.04s-15.15,0-15.15,0Z"/><path d="M299.32,432.14v-27.29s12.14,0,12.14,0c1.66,0,3.08.6,4.27,1.79,1.19,1.19,1.78,2.61,1.78,4.26v1.65c0,1.35-.46,2.66-1.39,3.92-.93,1.26-2.48,1.88-4.66,1.88h3.01c.83,0,1.55.3,2.15.89.6.6.89,1.31.89,2.15v10.75s-6.05,0-6.05,0v-9.1c0-.83-.3-1.55-.9-2.15-.6-.6-1.31-.89-2.14-.89h-3.04v12.14s-6.05,0-6.05,0ZM305.37,416.99h3.04c.83,0,1.54-.3,2.14-.9.6-.6.9-1.31.9-2.14v-3.04c0-.83-.3-1.53-.9-2.13-.6-.59-1.31-.89-2.14-.89h-3.04v9.1Z"/><path d="M326.57,423.04v-18.19s6.07,0,6.07,0v18.19s-6.07,0-6.07,0ZM326.57,432.14v-6.05s6.07,0,6.07,0v6.05s-6.07,0-6.07,0Z"/><path d="M224.8,607.26v-68.72s0-25.29,0-25.29v-11.67c0-.49.11-.98.32-1.42l.91-1.93c.29-.61.76-1.11,1.34-1.42l4.61-2.44c.77-.41,1.66-.44,2.46-.11l5.25,2.22c1.14.48,1.89,1.65,1.89,2.95v4.95s0,5.32,0,5.32v8.62s0,6.33,0,6.33v10.73s0,7.15,0,7.15l3.33-25.51c.02-.14.03-.29.03-.43v-6.88s0-5.32,0-5.32v-5.32c0-1.85,1.61-3.69,3.36-3.55h1.68c.08,0,1.6,0,1.68,0h1.68c1.47,0,3.12.24,3.36,1.77l1.68,10.64,1.64,10.38c.03.17.04.35.04.52v14.89s0,7.7,0,7.7v4.95s3.23-11.39,3.23-11.39c.08-.3.13-.6.13-.91v-8.32s0-18.43,0-18.43v-8.53s0-17.6,0-17.6v-22.28s0-11,0-11c0-.71.23-1.4.64-1.96l1.81-2.44c.57-.77,1.44-1.21,2.36-1.21h1.61s4.3,0,4.3,0c.43,0,.85.1,1.23.28l1.37.65c1.08.51,1.77,1.65,1.77,2.9v1.38c0,.27.03.54.1.8l1.49,6.01c.06.26.1.53.1.8v11.52s0,7.76,0,7.76v7.76s0,8.01,0,8.01v7.51s0,6.69,0,6.69v9.09s0,8.01,0,8.01v8.51s0,5.76,0,5.76v3.23c0,1.65,1.9,2.46,2.98,1.28h0c.25-.27.41-.61.47-.97l1.55-9.82c.03-.17.04-.35.04-.52v-11.22s0-9.14,0-9.14c0-.25.03-.5.08-.74l-1.76-7.01c.06-.24,0-5.07,0-5.32v-3.55s1.68-1.77,1.68-1.77c0-1.9,3.25.94,5.03,1.15l2.98.37c1.24.15,2.27,1.1,2.57,2.38l1.09,4.59c.06.25.09.51.09.77v7.01s0,14.52,0,14.52v8c0,.18-.01.35-.04.52l-1.6,10.09c-.03.17-.04.35-.04.52v5.06s4.85-13.65,4.85-13.65c.13-.36.19-.73.19-1.11v-5.63s0-9.56,0-9.56v-9.77s0-7.26,0-7.26v-1.89c0-1.28.73-2.44,1.85-2.93l2.64-1.16c.37-.16.76-.25,1.16-.25h.9c1.14,0,2.18.68,2.69,1.76l.53,1.12c.21.44.32.93.32,1.42v3.94s0,10.27,0,10.27v6.18s0,5.34,0,5.34v5.51s0,8.81,0,8.81v5.32s0,5.32,0,5.32v5.32s0,1.77,0,1.77v5.32h0c0,1.89,1.56,3.36,3.34,3.16l11.61-1.36c.11-.01.22-.02.33-.02h9.91s6.72,0,6.72,0h10.08s9.59,0,9.59,0c.32,0,.64.06.95.16l7.56,2.66c1.23.43,2.06,1.65,2.06,3.01v2.93c0,1.25-.69,2.38-1.77,2.89l-1.45.69c-.09.04-.19.08-.29.12l-9.63,3.39c-.2.07-.41.12-.62.14l-14.8,1.74-24.19,3.41c-.65.09-1.26.41-1.73.9l-5.12,5.41c-.56.6-.88,1.4-.88,2.25v2.95c0,.69-.21,1.36-.6,1.91l-4.2,5.91c-.16.22-.29.47-.39.73l-3.1,8.17c-.08.2-.17.4-.29.58l-2.57,4.08c-.4.63-.99,1.08-1.68,1.29l-10.29,3.1c-.27.08-.55.12-.83.12h-18.6s-12.33,0-12.33,0h-11.38s-9.8,0-9.8,0h-11.3"/><polygon class="cls-9" points="244.74 278.14 244.74 260.9 312.25 260.9 312.23 319.27 244.64 319.27 244.74 278.14"/><polygon class="cls-9" points="167.63 286.06 359.2 285.46 359.2 298.61 167.63 296.85 167.63 286.06"/><circle class="cls-9" cx="259.66" cy="272.31" r="3.76"/><circle class="cls-9" cx="295.35" cy="272.31" r="3.76"/><circle class="cls-9" cx="259.66" cy="309.87" r="3.76"/><circle class="cls-9" cx="295.35" cy="309.87" r="3.76"/><path class="cls-17" d="M165.75,274.32v36.52s19.53,16.6,37.01,0l.55-36.52s-17.49-18.92-37.56,0Z"/><path class="cls-17" d="M347.94,274.19v36.52s19.53,16.6,37.01,0l.55-36.52s-17.49-18.92-37.56,0Z"/><polygon class="cls-9" points="240.8 665.65 240.8 648.42 308.32 648.42 308.3 706.78 240.7 706.78 240.8 665.65"/><polygon class="cls-9" points="163.7 673.57 355.27 672.98 355.27 686.12 163.7 684.36 163.7 673.57"/><circle class="cls-9" cx="255.73" cy="659.83" r="3.76"/><circle class="cls-9" cx="291.41" cy="659.83" r="3.76"/><circle class="cls-9" cx="255.73" cy="697.39" r="3.76"/><circle class="cls-9" cx="291.41" cy="697.39" r="3.76"/><path class="cls-17" d="M161.82,661.84v36.52s19.53,16.6,37.01,0l.55-36.52s-17.49-18.92-37.56,0Z"/><path class="cls-17" d="M344,661.71v36.52s19.53,16.6,37.01,0l.55-36.52s-17.49-18.92-37.56,0Z"/><g class="cls-35"><path class="cls-30" d="M378.22,275.73c0,12.53,0,25.06,0,37.59,0,.48.75.48.75,0,0-12.53,0-25.06,0-37.59,0-.48-.75-.48-.75,0h0Z"/></g><g class="cls-35"><path class="cls-30" d="M366.2,278.49c0,9.48,0,18.95,0,28.43,0,.48.75.48.75,0,0-9.48,0-18.95,0-28.43,0-.48-.75-.48-.75,0h0Z"/></g><g class="cls-35"><path class="cls-30" d="M358.3,284.49c0,.74,0,1.47,0,2.21,0,.2.17.38.38.38s.38-.16.38-.38c0-.74,0-1.47,0-2.21,0-.2-.17-.38-.38-.38s-.38.16-.38.38h0Z"/></g><g class="cls-35"><path class="cls-30" d="M357.35,294.6c0,1.37,0,2.74,0,4.11,0,.48.75.48.75,0,0-1.37,0-2.74,0-4.11,0-.48-.75-.48-.75,0h0Z"/></g><g class="cls-35"><path class="cls-30" d="M374.73,282.28v13.9c0,.48.75.48.75,0v-13.9c0-.48-.75-.48-.75,0h0Z"/></g><g class="cls-35"><path class="cls-30" d="M360.2,272.81c0,2.42,0,4.84,0,7.27,0,.48.75.48.75,0,0-2.42,0-4.84,0-7.27,0-.48-.75-.48-.75,0h0Z"/></g><g class="cls-36"><path class="cls-30" d="M179.82,275.33c0,6.53,0,13.06,0,19.59,0,.48.75.48.75,0,0-6.53,0-13.06,0-19.59,0-.48-.75-.48-.75,0h0Z"/></g><g class="cls-36"><path class="cls-30" d="M191.51,278.49c0,2.84,0,5.69,0,8.53,0,.48.75.48.75,0,0-2.84,0-5.69,0-8.53,0-.48-.75-.48-.75,0h0Z"/></g><g class="cls-36"><path class="cls-30" d="M186.45,277.54v4.74c0,.48.75.48.75,0v-4.74c0-.48-.75-.48-.75,0h0Z"/></g><g class="cls-36"><path class="cls-30" d="M199.4,281.97c0,3.37,0,6.74,0,10.11,0,.48.75.48.75,0,0-3.37,0-6.74,0-10.11,0-.48-.75-.48-.75,0h0Z"/></g><g class="cls-36"><path class="cls-30" d="M187.72,297.76c0,3.16,0,6.32,0,9.48,0,.48.75.48.75,0,0-3.16,0-6.32,0-9.48,0-.48-.75-.48-.75,0h0Z"/></g><g class="cls-36"><path class="cls-30" d="M177.61,301.24c0,1.79,0,3.58,0,5.37,0,.48.75.48.75,0,0-1.79,0-3.58,0-5.37,0-.48-.75-.48-.75,0h0Z"/></g><g class="cls-35"><path class="cls-30" d="M174.7,667.53c0,6.64,0,13.28,0,19.92,0,.48.75.48.75,0,0-6.64,0-13.28,0-19.92,0-.48-.75-.48-.75,0h0Z"/></g><g class="cls-35"><path class="cls-30" d="M193.84,663.24c0,2.08,0,4.17,0,6.25,0,.48.75.48.75,0,0-2.08,0-4.17,0-6.25,0-.48-.75-.48-.75,0h0Z"/></g><g class="cls-35"><path class="cls-30" d="M185.63,662.46c0,2.86,0,5.73,0,8.59,0,.48.75.48.75,0,0-2.86,0-5.73,0-8.59,0-.48-.75-.48-.75,0h0Z"/></g><g class="cls-35"><path class="cls-30" d="M180.95,684.32c0,3.38,0,6.77,0,10.15,0,.48.75.48.75,0,0-3.38,0-6.77,0-10.15,0-.48-.75-.48-.75,0h0Z"/></g><g class="cls-35"><path class="cls-30" d="M196.57,681.2c0,4.17,0,8.33,0,12.5,0,.48.75.48.75,0,0-4.17,0-8.33,0-12.5,0-.48-.75-.48-.75,0h0Z"/></g><g class="cls-37"><path class="cls-30" d="M356.29,662.85c0,3.91,0,7.81,0,11.72,0,.48.75.48.75,0,0-3.91,0-7.81,0-11.72,0-.48-.75-.48-.75,0h0Z"/></g><g class="cls-37"><path class="cls-30" d="M364.1,662.85c0,2.21,0,4.43,0,6.64,0,.48.75.48.75,0,0-2.21,0-4.43,0-6.64,0-.48-.75-.48-.75,0h0Z"/></g><g class="cls-37"><path class="cls-30" d="M357.08,680.81c0,5.99,0,11.98,0,17.96,0,.48.75.48.75,0,0-5.99,0-11.98,0-17.96,0-.48-.75-.48-.75,0h0Z"/></g><g class="cls-37"><path class="cls-30" d="M362.54,675.34v2.73c0,.48.75.48.75,0v-2.73c0-.48-.75-.48-.75,0h0Z"/></g><g class="cls-37"><path class="cls-30" d="M374.93,674.17c-.38,8.98-.46,17.97-.25,26.95.01.48.76.48.75,0-.21-8.98-.13-17.97.25-26.95.02-.48-.73-.48-.75,0h0Z"/></g><g class="cls-37"><path class="cls-30" d="M368.79,682.76c0,2.6,0,5.21,0,7.81,0,.48.75.48.75,0,0-2.6,0-5.21,0-7.81,0-.48-.75-.48-.75,0h0Z"/></g><g class="cls-37"><path class="cls-30" d="M363.32,685.11c0,4.56,0,9.11,0,13.67,0,.48.75.48.75,0,0-4.56,0-9.11,0-13.67,0-.48-.75-.48-.75,0h0Z"/></g><g class="cls-35"><path class="cls-30" d="M376.21,662.85v1.17c0,.2.17.38.38.38s.38-.16.38-.38v-1.17c0-.2-.17-.38-.38-.38s-.38.16-.38.38h0Z"/></g><g class="cls-35"><path class="cls-30" d="M189.36,677.43c0,3.78,0,7.55,0,11.33,0,.48.75.48.75,0,0-3.78,0-7.55,0-11.33,0-.48-.75-.48-.75,0h0Z"/></g><use transform="translate(681 945) scale(4.27 2.67)" xlink:href="#image"/><use transform="translate(1228 945) scale(4.27 2.67)" xlink:href="#image"/><use transform="translate(188 945) scale(4.27 2.67)" xlink:href="#image"/><use transform="translate(7 945) scale(4.27 2.67)" xlink:href="#image"/><use transform="translate(1358 945) scale(4.27 2.67)" xlink:href="#image"/><use transform="translate(1837 1077.56) rotate(-89.43) scale(2.8 1.75)" xlink:href="#image"/><use transform="translate(1839 705.56) rotate(-89.43) scale(2.8 1.75)" xlink:href="#image"/><use transform="translate(1837 377.56) rotate(-89.43) scale(2.8 1.75)" xlink:href="#image"/><use transform="translate(91.12 706) rotate(90) scale(2.8 1.75)" xlink:href="#image"/><use transform="translate(91.12 346) rotate(90) scale(2.8 1.75)" xlink:href="#image"/><use transform="translate(91.12) rotate(90) scale(2.8 1.75)" xlink:href="#image"/><use transform="translate(475.99 114.15) rotate(-180) scale(3.5 2.2)" xlink:href="#image"/><use transform="translate(897.99 114.15) rotate(-180) scale(3.5 2.2)" xlink:href="#image"/><use transform="translate(1339.99 114.15) rotate(-180) scale(3.5 2.2)" xlink:href="#image"/><use transform="translate(1929.99 114.15) rotate(-180) scale(3.5 2.2)" xlink:href="#image"/><use transform="translate(1584.99 114.15) rotate(-180) scale(3.5 2.2)" xlink:href="#image"/><path class="cls-1" d="M967.48,726.59l14.46,10.63s1.65,2.2-3.09,1.93l-14.16-10.23s-2.26-4.68,2.79-2.34Z"/><line class="cls-7" x1="807.54" y1="363.85" x2="807.54" y2="363.85"/><g class="cls-35"><path class="cls-30" d="M1288.58,555.87v19c0,.48.75.48.75,0v-19c0-.48-.75-.48-.75,0h0Z"/></g><g class="cls-35"><path class="cls-30" d="M1282.56,557.26v14.37c0,.48.75.48.75,0v-14.37c0-.48-.75-.48-.75,0h0Z"/></g><g class="cls-35"><path class="cls-30" d="M1278.61,560.29v1.12c0,.2.17.38.38.38s.38-.16.38-.38v-1.12c0-.2-.17-.38-.38-.38s-.38.16-.38.38h0Z"/></g><g class="cls-35"><path class="cls-30" d="M1278.13,565.4v2.08c0,.2.17.38.38.38s.38-.16.38-.38v-2.08c0-.2-.17-.38-.38-.38s-.38.16-.38.38h0Z"/></g><g class="cls-35"><path class="cls-30" d="M1279.56,554.39v3.67c0,.48.75.48.75,0v-3.67c0-.48-.75-.48-.75,0h0Z"/></g><g class="cls-36"><path class="cls-30" d="M1195.13,557.26v4.31c0,.48.75.48.75,0v-4.31c0-.48-.75-.48-.75,0h0Z"/></g><g class="cls-36"><path class="cls-30" d="M1192.6,556.78v2.39c0,.2.17.38.38.38s.38-.16.38-.38v-2.39c0-.2-.17-.38-.38-.38s-.38.16-.38.38h0Z"/></g><g class="cls-36"><path class="cls-30" d="M1199.08,559.02v5.11c0,.48.75.48.75,0v-5.11c0-.48-.75-.48-.75,0h0Z"/></g><g class="cls-36"><path class="cls-30" d="M1193.23,567v4.79c0,.48.75.48.75,0v-4.79c0-.48-.75-.48-.75,0h0Z"/></g><g class="cls-36"><path class="cls-30" d="M1197.5,567.64v5.75c0,.48.75.48.75,0v-5.75c0-.48-.75-.48-.75,0h0Z"/></g><g class="cls-36"><path class="cls-30" d="M1188.17,568.76v2.71c0,.2.17.38.38.38s.38-.17.38-.38v-2.71c0-.2-.17-.38-.38-.38s-.38.17-.38.38h0Z"/></g><g class="cls-35"><path class="cls-30" d="M1186.72,753.85c0,3.35,0,6.71,0,10.06,0,.48.75.48.75,0,0-3.35,0-6.71,0-10.06,0-.48-.75-.48-.75,0h0Z"/></g><g class="cls-35"><path class="cls-30" d="M1196.29,751.68v3.16c0,.48.75.48.75,0v-3.16c0-.48-.75-.48-.75,0h0Z"/></g><g class="cls-35"><path class="cls-30" d="M1192.19,751.29v4.34c0,.48.75.48.75,0v-4.34c0-.48-.75-.48-.75,0h0Z"/></g><g class="cls-35"><path class="cls-30" d="M1189.84,762.34c0,1.71,0,3.42,0,5.13,0,.48.75.48.75,0,0-1.71,0-3.42,0-5.13,0-.48-.75-.48-.75,0h0Z"/></g><g class="cls-35"><path class="cls-30" d="M1197.66,760.76v6.31c0,.48.75.48.75,0v-6.31c0-.48-.75-.48-.75,0h0Z"/></g><g class="cls-37"><path class="cls-30" d="M1277.6,751.48v5.92c0,.48.75.48.75,0v-5.92c0-.48-.75-.48-.75,0h0Z"/></g><g class="cls-37"><path class="cls-30" d="M1281.51,751.48v3.35c0,.48.75.48.75,0v-3.35c0-.48-.75-.48-.75,0h0Z"/></g><g class="cls-37"><path class="cls-30" d="M1277.99,760.56v9.08c0,.48.75.48.75,0v-9.08c0-.48-.75-.48-.75,0h0Z"/></g><g class="cls-37"><path class="cls-30" d="M1285.03,751.09v3.16c0,.48.75.48.75,0v-3.16c0-.48-.75-.48-.75,0h0Z"/></g><g class="cls-37"><path class="cls-30" d="M1280.73,757.8v1.38c0,.2.17.38.38.38s.38-.16.38-.38v-1.38c0-.2-.17-.38-.38-.38s-.38.16-.38.38h0Z"/></g><g class="cls-37"><path class="cls-30" d="M1286.93,757.2c-.19,4.54-.23,9.08-.12,13.62.01.48.76.48.75,0-.11-4.54-.07-9.08.12-13.62.02-.48-.73-.48-.75,0h0Z"/></g><g class="cls-37"><path class="cls-30" d="M1283.86,761.55v3.95c0,.48.75.48.75,0v-3.95c0-.48-.75-.48-.75,0h0Z"/></g><g class="cls-37"><path class="cls-30" d="M1281.12,762.73v6.91c0,.48.75.48.75,0v-6.91c0-.48-.75-.48-.75,0h0Z"/></g><g class="cls-35"><path class="cls-30" d="M1287.57,751.48v.59c0,.1.04.2.11.27s.17.11.27.11.2-.04.27-.11.11-.16.11-.27v-.59c0-.1-.04-.2-.11-.27s-.17-.11-.27-.11-.2.04-.27.11-.11.16-.11.27h0Z"/></g><g class="cls-35"><path class="cls-30" d="M1194.05,758.85v5.72c0,.48.75.48.75,0v-5.72c0-.48-.75-.48-.75,0h0Z"/></g><text class="cls-24" transform="translate(636.68 314.78)"><tspan class="cls-41" x="0" y="0">W</tspan><tspan class="cls-39" x="141.76" y="0">A</tspan><tspan class="cls-38" x="248.12" y="0">S</tspan><tspan x="351.4" y="0">TED</tspan></text><path class="cls-27" d="M841.32,551.32l-10.01,10.26,9.22,12.24,1,4.19c-52.92,73.76,21.22,81.17,21.22,81.17l43.72,25.04s9.49.24.89,22.08c31.52,18.88,105.28-22.62,118.78,34.05l4.05,30.6,9.52,11.98-.63,1.12-1.18,2.8-4.72,8.2-3.31,4.99-2.23,3.66,2.07,8.42c13.67,60.55,59.88,47.24,68.71,43.05,71.43,92.12,159.36,7.52,159.36,7.52,76.32-82.47-14.33-153.9-14.33-153.9l4.88-22.3c-9.81-41.6-46.41-45.3-46.41-45.3l-4.55-.7-5.89-1.16-5.75-1.44s-6.48-1.85-9.41,3.18l-4.87,9.84s-1.35,1.09-8.82-5.4l-5.82-.9s-16.39-1.56-45.57-4.3l-2.49-10.29,3.18-33.9s-2.05-30.81-10.64-49.66c0,0-7.27-17.25-13.63-31.2-3.67-.92-22.2,2.18-21.25,6.12s-3.39-5.82-3.39-5.82c0,0,11.93-17.35-7.9-28.85l-8.37-.1s-6.6-.34-8.67-18.69c-.88-7.77-10.61-51.33-57.02-30.61-16.07,14.85-22.8,24.18-22.8,24.18l-5.54,6.56s-10.43-5.82-21.63-2.74c-1.61,1.59-4.13-.61-5.64.89-48.16,47.66-42,39.09-42,39.09l-47.53,51.52"/><line class="cls-7" x1="1182.5" y1="767.78" x2="1127.94" y2="713.84"/><line class="cls-7" x1="1105.08" y1="743.95" x2="1131.12" y2="716.91"/><line class="cls-7" x1="1156.51" y1="794.18" x2="1101.9" y2="740.88"/><line class="cls-7" x1="1013.6" y1="478.63" x2="988.38" y2="456.06"/><line class="cls-7" x1="987.31" y1="455.06" x2="976.06" y2="476.36"/><ellipse class="cls-7" cx="987.37" cy="457.02" rx="1.36" ry="1.41" transform="translate(-29.34 844.42) rotate(-45.7)"/><line class="cls-7" x1="866.25" y1="633.14" x2="842.83" y2="608.71"/><line class="cls-7" x1="841.8" y1="607.68" x2="862.68" y2="595.69"/><ellipse class="cls-7" cx="843.75" cy="607.67" rx="1.36" ry="1.41" transform="translate(-180.45 787.06) rotate(-45.7)"/><ellipse class="cls-10" cx="1057.36" cy="498.76" rx="12.73" ry="13.14" transform="translate(-38.1 907.09) rotate(-45.7)"/><line class="cls-7" x1="1051.94" y1="510.33" x2="1029.87" y2="528.52"/><line class="cls-7" x1="1018.21" y1="516.7" x2="1044.62" y2="496.11"/><line class="cls-2" x1="1045.27" y1="506.07" x2="1023.63" y2="523.03"/><line class="cls-2" x1="1140.9" y1="789.74" x2="1140.53" y2="789.73"/><path class="cls-7" d="M829.59,643.43c-7.72-7.54-6.31-15.61-6.83-24.62-.45-7.77.87-14.49,6.17-19.92,5-5.12,7.97-13.23,15.25-13.28,9.39-.06,18.73,7.47,26.84,15.38,5.99,5.85,9.9,12.88,11.6,19.95,2.38,9.9-1.67,17.83-8.34,24.67-5.5,5.63-11.11,10.15-19.22,9.66-8.76-.53-17.99-4.55-25.47-11.84Z"/><polyline class="cls-8" points="1111.22 631.94 1104.95 638.13 1111.22 631.94 1104.95 638.13"/><path class="cls-25" d="M1100.03,857.08s59.5,74.17,145.03,7.05l10.18-10.29s66.01-80.84-13.12-142.35l6.06,23.32,4.05,31.01-.26,9.93-2.03,5.63-77.12,79.02-7.08,7.25-65.73-10.55Z"/><path class="cls-11" d="M1111.22,631.94c21.66-13.1,8.17-71.06-21.73-112.58-8.35-11.6-12.86-7.65-19.18-3.3-6.75,4.65-13.82,9.37-13.82,9.37,0,0-20.66,18.25-8.01,28.61,25.06,20.51,34.15,33.55,34.15,33.55l-1.23,1.17-106.9-110.02s-2.69-5.69-6.63.69l-105.22,108.16s-5.43,1.28.88,8.73l95.23,93.05,15.03,12.46-2.94,3.77c-17.13-15.74-39.53-38.86-39.53-38.86,0,0-10.18,7.18-15.33,17.19-5.16,10.02-10.01,20.34-10.01,20.34,0,0-5.45,1.62,7.86,7.67,14.5,6.6,81.83,40.35,98.32,22.22"/><path class="cls-16" d="M853.59,587.5l-135.29-18.26,20.79-16.97,10.7-11.38,14.35-12.5,13.19-14.38s104.76-3.12,125.03,16.12l4.1.36s-2.6,7.66-1.19-2.76c-16.41-15.35-125.49-17.18-125.49-17.18,0,0,46.52-46.18,61.21-60.75,6.29-6.07-18.66,21.13-18.66,21.13,0,0,10.97-23.11,23.99-15.51,8.44,4.92,121.41,10.08,121.83,17.29.22,3.7-7.32,10.3-12.68,15.54-88.8,86.75-89.04,88.76-89.04,88.76,0,0-11.3,12.42-12.84,10.49Z"/><path class="cls-26" d="M1180.85,655.09l-2.83-6.92,5.12-5.24,7.18,2.47-1.33,8.17-8.14,1.53Z"/><polygon class="cls-21" points="1044.42 805.92 1045.01 796.7 1037.62 794.38 1031.8 800.34 1034.4 806.94 1044.42 805.92"/><path class="cls-1" d="M972.89,513.25l2-19.66s-.58-2.97-3.85,1.13l-2.11,19.11s2.14,5.28,3.96-.59Z"/><path class="cls-1" d="M1111.22,631.94l-97.93,96.6,97.93-96.6Z"/><line class="cls-6" x1="1243.44" y1="708.78" x2="1170.09" y2="651.97"/><line class="cls-6" x1="1101.33" y1="854.82" x2="1039.71" y2="782.91"/><line class="cls-4" x1="1108.92" y1="635.31" x2="1013.34" y2="732.42"/><path class="cls-23" d="M1123.16,889.16s52.78,69.33,144.01-12.7l7.96-7.34s77.09-61.9,2.4-138.13l-154.37,158.16Z"/><path class="cls-7" d="M1301.57,763.97c-47.26,50.01-97.55,98.55-145.6,148.2"/><line class="cls-7" x1="1150.46" y1="909.69" x2="1150.46" y2="909.69"/><line class="cls-5" x1="1284.83" y1="780.1" x2="1256.35" y2="752.7"/><line class="cls-5" x1="1244.66" y1="764.67" x2="1273.33" y2="792.63"/><line class="cls-5" x1="1232.94" y1="776.68" x2="1261.34" y2="804.17"/><line class="cls-5" x1="1221.65" y1="788.25" x2="1250.05" y2="815.74"/><line class="cls-5" x1="1209.57" y1="799.84" x2="1237.97" y2="827.33"/><line class="cls-5" x1="1292.21" y1="772.2" x2="1263.72" y2="744.8"/><line class="cls-5" x1="1298.99" y1="764.31" x2="1270.51" y2="736.9"/><line class="cls-5" x1="1198.61" y1="811.07" x2="1227.01" y2="838.56"/><line class="cls-5" x1="1187.04" y1="824.09" x2="1215.43" y2="851.58"/><line class="cls-5" x1="1174.37" y1="836.34" x2="1202.77" y2="863.83"/><line class="cls-5" x1="1161.88" y1="848.7" x2="1190.28" y2="876.19"/><line class="cls-5" x1="1149.93" y1="860.94" x2="1178.33" y2="888.43"/><line class="cls-5" x1="1137.82" y1="873.35" x2="1166.22" y2="900.84"/><line class="cls-5" x1="1127.89" y1="883.53" x2="1156.29" y2="911.02"/><line class="cls-18" x1="1264.9" y1="870.71" x2="1248.38" y2="856.96"/><line class="cls-18" x1="1232.33" y1="888.75" x2="1303.13" y2="816.21"/><line class="cls-7" x1="1136.05" y1="671.29" x2="1059.43" y2="750.9"/><line class="cls-7" x1="1138.28" y1="644.31" x2="1102.52" y2="641.25"/><line class="cls-7" x1="1024.35" y1="721.95" x2="1029.63" y2="769.14"/><line class="cls-7" x1="1013.02" y1="736.87" x2="1022.55" y2="727.48"/><path class="cls-7" d="M982.03,487.59c-7.74-7.19-8-11.54-18.29-17.93-11.32-7.03,3.13-24.45,17.31-32.35,14.34-7.99,30.76-7.28,43.48,2.5,11.13,8.56,13.4,40.94,1.6,52.07-11.98,11.28-33.06,5.96-44.09-4.29Z"/><line class="cls-3" x1="1112.95" y1="630.06" x2="1105.12" y2="638.29"/><ellipse class="cls-14" cx="1109.68" cy="623.1" rx="8.41" ry="12.25" transform="translate(-65.57 1111.41) rotate(-51.88)"/><ellipse class="cls-14" cx="1083.46" cy="611.9" rx="8.53" ry="13.1" transform="translate(403.75 1654.16) rotate(-86.35)"/><ellipse class="cls-19" cx="1101.17" cy="614.8" rx="8.41" ry="8.68" transform="translate(-107.93 973.44) rotate(-45.7)"/><ellipse class="cls-14" cx="1048.8" cy="608.72" rx="8.53" ry="13.1" transform="translate(374.48 1616.59) rotate(-86.35)"/><ellipse class="cls-14" cx="1016.08" cy="604.16" rx="8.53" ry="13.1" transform="translate(348.39 1579.66) rotate(-86.35)"/><ellipse class="cls-19" cx="1067.58" cy="610.53" rx="8.41" ry="8.68" transform="translate(-115.01 948.11) rotate(-45.7)"/><ellipse class="cls-19" cx="1033.79" cy="607.06" rx="8.41" ry="8.68" transform="translate(-122.71 922.88) rotate(-45.7)"/><ellipse class="cls-14" cx="1008.66" cy="728.48" rx="8.41" ry="11.52" transform="translate(-220.69 920.25) rotate(-44.7)"/><ellipse class="cls-14" cx="1002.88" cy="698.31" rx="8.48" ry="13.16" transform="translate(-142.48 272.21) rotate(-14.44)"/><path class="cls-19" d="M997.42,711.68c2.32-4.03,7.54-5.32,11.65-2.87s5.56,7.7,3.24,11.74-7.54,5.32-11.65,2.87c-4.11-2.45-5.56-7.7-3.24-11.74Z"/><ellipse class="cls-14" cx="996.58" cy="664.01" rx="8.48" ry="13.16" transform="translate(-134.12 269.56) rotate(-14.44)"/><ellipse class="cls-14" cx="992.14" cy="631.3" rx="8.48" ry="13.16" transform="translate(-126.1 267.42) rotate(-14.44)"/><path class="cls-19" d="M992.47,678.17c2.32-4.03,7.54-5.32,11.65-2.87,4.11,2.45,5.56,7.7,3.24,11.74s-7.54,5.32-11.65,2.87c-4.11-2.45-5.56-7.7-3.24-11.74Z"/><path class="cls-19" d="M986.68,644.66c2.32-4.03,7.54-5.32,11.65-2.87,4.11,2.45,5.56,7.7,3.24,11.74s-7.54,5.32-11.65,2.87c-4.11-2.45-5.56-7.7-3.24-11.74Z"/><ellipse class="cls-19" cx="980.37" cy="595.35" rx="32.47" ry="33.5" transform="translate(-130.44 881.12) rotate(-45.7)"/><text class="cls-29" transform="translate(960.14 612.57) rotate(-57.3) scale(.97 -1)"><tspan x="0" y="0">Eric </tspan></text><path class="cls-15" d="M778.46,513.79l-53.13,51.72-53.72,3.34-22.61-7.95s-18.1-16.37-15.47-21.78c.78-9.86,9.04-21.23,9.04-21.23l13.04-13.36,19.93-18.61,29.74-22.31,10.2-8.64,62.98,58.82Z"/><path class="cls-20" d="M729.09,477.13s-17.31-.12-47.99,18.65c-7.1,5.64-8.38,6.47-8.38,6.47-5.86,4.3-30.08,31.62-20.43,56.86.54,1.42-5.09-1.63-5.09-1.63,0,0-13.53-6.53-8.69-25.18,2.72-10.46,14.94-22.15,14.94-22.15,0,0,8.54-12.53,14.1-16.29,29.33-19.79,43.63-30.88,43.63-30.88,0,0,2.12-2.75,4.19-2.59,2.43-.06,10.24,8.32,10.24,8.32,0,0,6.22,4.48,6.86,8.37-1.35.79-6.76.08-6.76.08"/><path class="cls-10" d="M708.31,530.1l-6.73,23.56s5.06,3.73,8.71.46c6.64-20.59,7.33-23.58,7.33-23.58,0,0-4.27-4.07-9.32-.44Z"/><path class="cls-10" d="M669.1,556.09l6.55-31.52s-4.65-10.28-7.64-6.48l-5.81,7.58s-7.15,22.36-3.72,27.17l2.28,2.18s6.49,3.67,8.34,1.07Z"/><path class="cls-10" d="M686.21,528.25l-6.73,23.56s5.06,3.73,8.71.46c6.64-20.59,7.33-23.58,7.33-23.58,0,0-4.27-4.07-9.32-.44Z"/><path class="cls-10" d="M747.25,500.69l-11.77-11.49s-.64-2.67-4.32-1.18l-12.67,2.4s-18.77,5.25-28.39,13.21l6.46,13.48s1.33,2.61,6.63.9c6.99.26,20.23-.21,20.23-.21,0,0,9.8-.68,17.4-9l2.68-2.02s6.43-.97,3.74-6.1Z"/><path class="cls-15" d="M837.31,457.3l-55.46,49.21-53.81.86-22.22-8.98s-17.32-17.19-14.45-22.47c1.23-9.82,10.01-20.79,10.01-20.79l13.64-12.74,20.77-17.67,30.74-20.92,10.59-8.16,60.2,61.66Z"/><path class="cls-20" d="M789.69,418.4s-17.29-.92-48.8,16.42c-7.35,5.31-8.67,6.08-8.67,6.08-6.05,4.02-31.5,30.2-23.03,55.86.48,1.44-5.01-1.86-5.01-1.86,0,0-13.22-7.15-7.52-25.55,3.2-10.33,15.95-21.44,15.95-21.44,0,0,9.1-12.13,14.84-15.62,30.21-18.42,45-28.84,45-28.84,0,0,2.24-2.65,4.31-2.39,2.43.05,9.85,8.79,9.85,8.79,0,0,6,4.76,6.47,8.67-1.39.73-6.75-.23-6.75-.23"/><path class="cls-10" d="M766.48,470.36l-7.81,23.22s4.88,3.95,8.68.87c7.59-20.26,8.41-23.22,8.41-23.22,0,0-4.07-4.26-9.29-.87Z"/><path class="cls-10" d="M726.11,494.52l8-31.18s-4.17-10.48-7.33-6.83l-6.16,7.3s-8.17,22.01-4.96,26.97l2.18,2.28s6.32,3.96,8.28,1.45Z"/><path class="cls-10" d="M744.5,467.5l-7.81,23.22s4.88,3.95,8.68.87c7.59-20.26,8.41-23.22,8.41-23.22,0,0-4.07-4.26-9.29-.87Z"/><path class="cls-10" d="M806.74,442.77l-11.23-12.02s-.51-2.69-4.26-1.38l-12.76,1.81s-18.99,4.37-28.97,11.89l5.83,13.77s1.21,2.67,6.58,1.2c6.97.58,20.21.72,20.21.72,0,0,9.82-.23,17.79-8.19l2.77-1.89s6.47-.67,4.02-5.92Z"/><line class="cls-7" x1="1129.2" y1="802.48" x2="1129.2" y2="834.38"/><line class="cls-7" x1="1110" y1="818.22" x2="1148.41" y2="819.51"/><line class="cls-7" x1="1197.81" y1="741.96" x2="1231.51" y2="747.02"/><line class="cls-7" x1="1219.22" y1="726.24" x2="1212.65" y2="759.78"/><path class="cls-33" d="M831.01,557.4c-.8,0-1.78-.18-2.94-.53-6.72-2.04-11.75-2.1-15.08-2.14-1.28-.02-2.71-.03-3.2-.21,0-.05,0-.11.01-.2.17-1.57-.47-3.21-1.85-4.75-2.14-2.38-5.66-4.17-9.06-4.69,1.41-.79,3.16-1.68,4.93-2.49.45-.21.78-.63.86-1.12.08-.49-.09-.99-.45-1.34l-.2-.19c-1.08-1.03-3.32-3.18-9.48-5.91-.08-.04-.16-.07-.24-.11,3.48-.32,8.38-1.15,13.45-3.64,4.63-2.27,9.05-3.43,13.15-3.43s6.34,1.19,6.36,1.2c.09.05.2.09.3.12l11.05,3.21c-1.16,1.95-3.58,5.85-8.2,12.72,0,0-1.93,2.86-1.93,2.86-1.05,1.56-1.24,1.84-.82,2.64.26.49.77.8,1.32.8.65,0,.77,0,2.42-2.42,1.37,3.29,2.42,7.26,1.46,8.85-.13.21-.46.76-1.87.76Z"/><path class="cls-31" d="M820.91,528.16c3.61,0,5.62,1.01,5.63,1.01,0,0,0,0,0,0,.19.11.4.19.61.25l9.17,2.66c-1.37,2.21-3.61,5.73-7.16,11l-1.9,2.83c-1.06,1.57-1.76,2.61-.91,4.2.52.98,1.54,1.59,2.65,1.59.9,0,1.43-.21,1.99-.78.74,2.36.99,4.27.63,4.89-.08.03-.28.07-.61.07-.45,0-1.24-.08-2.5-.46-6.92-2.11-12.09-2.17-15.5-2.21-.56,0-1.19-.01-1.71-.04-.16-1.58-.91-3.16-2.23-4.63-1.54-1.72-3.74-3.16-6.12-4.11.04-.02.08-.04.12-.06.29.08.62.13.97.13,1.41,0,2.33-.73,3.61-1.74,1.86-1.47,1.68-3.02,1.4-3.81-.43-1.25-1.59-2.06-2.94-2.06-.46,0-.99.05-2.32.58-.95-.8-2.35-1.82-4.47-2.99,2.77-.57,5.9-1.5,9.1-3.08,4.42-2.17,8.62-3.27,12.49-3.27M820.91,525.16c-3.47,0-8.13.79-13.81,3.58-13.16,6.46-25,1.23-13.16,6.46,6.34,2.8,8.28,4.9,9.25,5.82,1.43-.65,2.57-1.09,2.91-1.09.2,0,.13.15-.32.51-.95.75-1.38,1.09-1.75,1.09-.26,0-.49-.18-.84-.51-4.03,1.83-10.41,5.33-8.16,5.33.15,0,.33-.02.56-.05.42-.06.86-.09,1.3-.09,5.39,0,11.82,4.24,11.42,7.94-.44,4,6.17.15,19.33,4.15,1.35.41,2.46.59,3.37.59,8.01,0,.65-14.15.65-14.15,0,0,0,0,0,0-.07.11-2.66,3.96-2.66,3.96,0,0,.66-.99,2.66-3.96,0,0,0,0,0,0,7.46-11.08,9.21-14.47,9.21-14.47l-12.89-3.74s-2.5-1.38-7.08-1.38h0Z"/><path class="cls-28" d="M774.82,551.48s-25.68-12.14,2.74-14.08c.05-.24-27.96-16.44,2.81-14.42l9.77,9.83,24.26,3.45,17.64,3.44-1.71,8.78-30.62-2.75-11.71-1.86-4.07.91-9.1,6.71Z"/><path class="cls-33" d="M1197.92,912.62l-2.79-12.57-.04-.07c.13-.3.84-1.54,4.7-4.53.86-.66,1.82-1.37,2.85-2.11l.42-.88-.51-7.8-.03-.17-.21-.86h8.26l3.97.79,6,2,3.22,1.52-1.22,6.01.25.88,2.93,3.17-4.43,3.41-2.37-1.04-.11-.04-4.99-1.53-1.24.63-4.5,13.18h-10.15Z"/><path class="cls-31" d="M1210.47,884.63l3.81.76,5.88,1.96,2.45,1.16-1.07,5.24.49,1.76,2.19,2.36-3.09,2.38-1.82-.8-.22-.08-4.99-1.53-2.48,1.27-4.27,12.51h-8.63l-2.55-11.5c.34-.48,1.36-1.65,4.23-3.87.83-.65,1.78-1.35,2.82-2.09l.83-1.76-.51-7.77h6.93M1210.67,882.63h-9.63l.51,2.1.51,7.8c-1.1.79-2.06,1.5-2.88,2.13-6.21,4.81-5.02,5.6-5.02,5.6l2.96,13.35h11.67l4.73-13.86,4.99,1.53,2.91,1.27,5.76-4.44-3.67-3.97,1.38-6.78-3.98-1.89-6.11-2.04-4.12-.83h0Z"/><path class="cls-32" d="M1201.65,915.74c-1.42,3.38-2.93,7.03-2.93,7.03,0,0,3.56,12.09,7.11,0l-1.51-6.58-.71-5.25-1.96,4.8Z"/><path class="cls-32" d="M818.84,562.5c-1.42,3.38-2.93,7.03-2.93,7.03,0,0,3.56,12.09,7.11,0l-1.51-6.58-.71-5.25-1.96,4.8Z"/><path class="cls-32" d="M803.66,586.08c-1.42,3.38-2.93,7.03-2.93,7.03,0,0,3.56,12.09,7.11,0l-1.51-6.58-.71-5.25-1.96,4.8Z"/><path class="cls-32" d="M809.07,611c-1.42,3.38-2.93,7.03-2.93,7.03,0,0,3.56,12.09,7.11,0l-1.51-6.58-.71-5.25-1.96,4.8Z"/></svg>