<?xml version="1.0" encoding="UTF-8"?><svg id="Layer_1" xmlns="http://www.w3.org/2000/svg" viewBox="0 0 632.15 798.4"><defs><style>.cls-1,.cls-2,.cls-3,.cls-4,.cls-5,.cls-6,.cls-7{fill:none;}.cls-8{fill:#673606;}.cls-8,.cls-9,.cls-10,.cls-11,.cls-12,.cls-13,.cls-14,.cls-2,.cls-3,.cls-15,.cls-16,.cls-17,.cls-18,.cls-19,.cls-20,.cls-4,.cls-5,.cls-6,.cls-21,.cls-22,.cls-23,.cls-24,.cls-25,.cls-7,.cls-26,.cls-27{stroke-miterlimit:10;}.cls-8,.cls-19,.cls-4,.cls-6,.cls-27{stroke:#0d122e;}.cls-9{opacity:.22;}.cls-9,.cls-10,.cls-11,.cls-12,.cls-13,.cls-14,.cls-2,.cls-3,.cls-20,.cls-21,.cls-22,.cls-23,.cls-7{stroke:#241f20;}.cls-9,.cls-19,.cls-5,.cls-21,.cls-7{stroke-width:4px;}.cls-9,.cls-27{fill:#2d3196;}.cls-10,.cls-13,.cls-14,.cls-18,.cls-23,.cls-24,.cls-26{fill:#fff;}.cls-10,.cls-2,.cls-6,.cls-27{stroke-width:5px;}.cls-11{fill:#d3945d;stroke-width:7px;}.cls-12{fill:#999;}.cls-12,.cls-15,.cls-18,.cls-20,.cls-22,.cls-23{stroke-width:2px;}.cls-13{stroke-width:3px;}.cls-14,.cls-3,.cls-17{stroke-width:6px;}.cls-15,.cls-16,.cls-17,.cls-25{stroke:#000;}.cls-16{fill:#ff000f;}.cls-17{fill:#00943a;}.cls-28{fill:#231f20;font-family:Arial-Black, 'Arial Black';font-size:23.15px;font-weight:800;}.cls-18,.cls-24{stroke:#808083;}.cls-19{fill:#292470;}.cls-20{fill:#ffef00;}.cls-5{stroke:#ffef00;}.cls-21,.cls-29{fill:#241f20;}.cls-22{fill:#f2f2f2;}.cls-30{opacity:.45;}.cls-31{opacity:.46;}.cls-32{opacity:.44;}.cls-26{stroke:#919396;}</style></defs><path class="cls-11" d="M250.05,518.75c-3.45.15-13.8.59-13.8.59l-2.85-14.48-.32-3.2v-9s-1-23-1-23l-3-53-2-90-68,33-42,17-38,50c-8.51,2.61-5,16-28,11-15.44-3.36-20.89-11.95-20.58-17.49.37-6.55,5.52-18.02,13.58-26.51,8.05-8.49,32-11,32-11l29-23c17-15,46-29,35-28,10-32,125.19-20.85,93.23-66.96l-19.34-22.58-2.47-14.53-1.21-.27-2.77-.96-8.91-1.89-5.71-.84-4.06-.75-4.71-6.89c-34.64-48.73,4.62-73.31,13.3-76.95-20.14-110.45,97.05-119.12,97.05-119.12,108.21-1.71,101.16,109.22,101.16,109.22l19.13,10.84c23.53,33.78,2.65,62.41,2.65,62.41l-2.42,3.71-2.95,4.97-2.66,5.05s-2.84,5.84-8.33,4.7l-10.18-2.83s-1.65.27-1.8,9.79l-3.1,4.75s-9.42,12.76-26.21,35.44l5.78,8.4,26.36,19.51s27.2-16.51,35.19,1.76c0,0,27.09-5.53,33,8-1.7,3.22,9.58,14.87,13,13,6.85-3.74,21.77,1.44,39.03,10.31,12.61,6.48,10.09,5.29,22.97,13.69,25.77,16.8,46,30,46,30,0,0,27,4,32,18l2,19s-.62,17.15-34,16c-24.06-.83-21.64-5.81-26-20-.89-2.91,1.55-9.82,1-12-.94-3.78-14.26-8-31.37-17.11-11.17-5.95-29.6-20.98-41.63-23.89-8.55-2.07-8-2-18,8-3.58,3.58-80.86-37.68-86-38s-1,23-1,43c0,6.32,1,11,2,23,1.68,20.22,4.1,29.32,4,30-1,7-2,15,1,40,2.51,20.93,4.56,33.98,4.56,33.98l-1.92,3.72s3.29,11.44-6.11,17.49c-2.18.13-4.29.26-6.34.38q-65.14,3.9-65.14,3.9l-67.5.96"/><ellipse class="cls-21" cx="243.14" cy="138.08" rx="14.05" ry="7.37" transform="translate(-5.64 10.43) rotate(-2.43)"/><line class="cls-7" x1="314.16" y1="134.91" x2="317.76" y2="208.71"/><line class="cls-7" x1="281.47" y1="205.75" x2="317.6" y2="204.46"/><line class="cls-7" x1="278.51" y1="136.58" x2="281.62" y2="210"/><ellipse class="cls-21" cx="350.1" cy="133.54" rx="14.05" ry="7.37" transform="translate(-5.35 14.96) rotate(-2.43)"/><ellipse class="cls-13" cx="548.99" cy="345.81" rx="12.26" ry="12.65" transform="translate(-52.58 588.9) rotate(-54.21)"/><line class="cls-7" x1="538.91" y1="352.86" x2="525.31" y2="376.82"/><line class="cls-7" x1="536.45" y1="385.92" x2="551.62" y2="357.46"/><line class="cls-5" x1="544.05" y1="356.49" x2="531.55" y2="379.83"/><line class="cls-5" x1="493.68" y1="449.16" x2="493.37" y2="449.17"/><line class="cls-7" x1="70.03" y1="407.6" x2="52.63" y2="430.32"/><line class="cls-7" x1="51.86" y1="431.28" x2="70.21" y2="439.07"/><ellipse class="cls-7" cx="53.49" cy="431.09" rx="1.19" ry="1.12" transform="translate(-309.86 193.02) rotate(-49.69)"/><path class="cls-7" d="M38.73,402.87c-5.78,7.06-3.93,13.62-3.61,21.16.28,6.5,3.62,6.18,8.47,10.13,4.58,3.73,9.95,5.72,16,5,7.8-.92,11.03,2.06,17.09-5.36,4.49-5.48,3.63-13.48,7.96-17.77,10.95-10.87,4.06-21.88-2.05-26.87-5.04-4.11-17.02-.02-23.71,1.23-7.23,1.35-14.56,5.65-20.15,12.48Z"/><polyline class="cls-10" points="365.75 273.36 357.28 273.88 365.75 273.36 357.28 273.88"/><path class="cls-8" d="M197.09,136.65s-14.94-90.35,88.19-108.54l13.93-.69s100.41,4.63,93.65,100.92l-12.82-19.34-19.63-22.84-7.29-6.2-5.34-2.16-106.25,4.51-9.75.41-34.69,53.92Z"/><path class="cls-14" d="M365.75,273.36c12.97-3.96,43.52,6.58,69.84,8.8,21.01,1.77,54.31,6.63,59,28,2.95,13.45-30.82,55.26-38,57-7.67,1.85-10-3-10-3,0,0-4-7-20-16-17.88-10.06-47.41-25.78-47.41-25.78l-1.63.14,10.18,147.39s2.35,5.59-4.76,4.31l-145.21,5.93s-4.41,3.07-5.7-6.24q-5.51-128.12-5.51-128.12l.73-18.78.31.16c.08,6.42-18,17-22,22-4.71,5.89-10,10-18,15-9.75,6.1-18,14-18,14,0,0-10-19-16-28s-14-19-14-19c0,0-14.37-10.69-3-19,26-19,45-20,92.17-33.46"/><path class="cls-19" d="M231.99,486.69l-31.45,103.54,13-3,58-6,13-21,6-5c7.18.55,28.98-38.63,13.95-66.62-1.87-3.49,2.37-3.17,2.37-3.17,0,0-7.17-3.06,1.21,2.63.46,21.63,1.47,23.16,1.47,23.16,0,0,48.11,66.17,68,65,8.4-.61,10,0,10,0,0,0,53.08,13.22,56-1,1.89-9.22-53.04-93.13-57.94-98.07-2.52-2.53-9.73-.2-16.93.28-119.3,7.92-120.9,6.79-120.9,6.79,0,0-16.17.12-15.77,2.46Z"/><path class="cls-26" d="M393.91,208.54l3.15,6.48,7.05-.3,2.85-6.73-6.72-4.3-6.33,4.85Z"/><polygon class="cls-24" points="198.03 209.41 205.02 214.93 201.93 221.71 193.92 222.05 190.86 215.95 198.03 209.41"/><path class="cls-1" d="M361.93,448.86l15.38,11.2s1.76,2.32-3.29,2.04l-15.06-10.77s-2.41-4.93,2.97-2.47Z"/><path class="cls-1" d="M365.75,273.36l-132.23,8.13,132.23-8.13Z"/><line class="cls-6" x1="395.64" y1="129.14" x2="389.22" y2="218.26"/><line class="cls-6" x1="199.55" y1="137.17" x2="211.51" y2="227.59"/><line class="cls-3" x1="361.85" y1="272.84" x2="230.76" y2="278.96"/><path class="cls-27" d="M188.96,99.43s-15.79-82.42,101.69-95.11l10.38-.99s93.95-15.49,100.61,87.08l-212.67,9.02Z"/><path class="cls-7" d="M393.43,51.97c-66.25,1.74-133.39,6.6-199.89,9.15"/><line class="cls-7" x1="191.78" y1="66.66" x2="191.78" y2="66.66"/><line class="cls-4" x1="371.1" y1="53.6" x2="372.44" y2="91.65"/><line class="cls-4" x1="356.35" y1="92.33" x2="354.73" y2="53.8"/><line class="cls-4" x1="340.19" y1="93.02" x2="338.73" y2="54.98"/><line class="cls-4" x1="324.64" y1="93.68" x2="323.18" y2="55.64"/><line class="cls-4" x1="308.57" y1="94.89" x2="307.11" y2="56.85"/><line class="cls-4" x1="381.51" y1="53.39" x2="382.85" y2="91.44"/><line class="cls-4" x1="391.53" y1="53.6" x2="392.87" y2="91.65"/><line class="cls-4" x1="293.46" y1="95.53" x2="292" y2="57.49"/><line class="cls-4" x1="276.69" y1="95.46" x2="275.23" y2="57.42"/><line class="cls-4" x1="259.76" y1="96.66" x2="258.3" y2="58.62"/><line class="cls-4" x1="242.86" y1="97.68" x2="241.4" y2="59.64"/><line class="cls-4" x1="226.4" y1="98.37" x2="224.94" y2="60.34"/><line class="cls-4" x1="209.72" y1="99.08" x2="208.26" y2="61.04"/><line class="cls-4" x1="196.03" y1="99.66" x2="194.57" y2="61.62"/><line class="cls-9" x1="298.85" y1="8.55" x2="298.09" y2="29.24"/><line class="cls-9" x1="349.08" y1="16.75" x2="251.55" y2="20.89"/><line class="cls-7" x1="353.48" y1="230.26" x2="247.14" y2="234.03"/><line class="cls-7" x1="374.27" y1="246" x2="353.48" y2="273.61"/><line class="cls-7" x1="245.35" y1="277.79" x2="214.9" y2="243.67"/><line class="cls-7" x1="227.36" y1="276.33" x2="240.22" y2="275.53"/><line class="cls-7" x1="581.58" y1="396.38" x2="592.16" y2="418.21"/><line class="cls-7" x1="592.59" y1="419.16" x2="581.59" y2="426.16"/><ellipse class="cls-7" cx="591.3" cy="418.71" rx=".98" ry="1.01" transform="translate(-127.88 330.72) rotate(-28.33)"/><path class="cls-7" d="M556.1,392.04c-2.43,23.06-3.75,30.08,9.48,33.11,9.31,2.14,31.27,3.3,38-3,17.96-16.8,12.58-34.53,6-37-8-3-17-13-28.1-11.79-11.72,1.28-24.25,7.94-25.38,18.67Z"/><line class="cls-2" x1="368.21" y1="273.32" x2="357.27" y2="273.65"/><ellipse class="cls-18" cx="371.09" cy="280.14" rx="11.8" ry="8.1" transform="translate(67.27 632.11) rotate(-86.25)"/><ellipse class="cls-18" cx="362.27" cy="306.15" rx="12.61" ry="8.21" transform="translate(-102.38 401.36) rotate(-51.78)"/><ellipse class="cls-20" cx="371.58" cy="291.58" rx="8.1" ry="8.36" transform="translate(-12.03 16.02) rotate(-2.43)"/><ellipse class="cls-18" cx="342.27" cy="333.05" rx="12.61" ry="8.21" transform="translate(-131.14 395.91) rotate(-51.78)"/><ellipse class="cls-18" cx="324.5" cy="359.45" rx="12.61" ry="8.21" transform="translate(-158.66 392.01) rotate(-51.78)"/><ellipse class="cls-20" cx="353.04" cy="318.42" rx="8.1" ry="8.36" transform="translate(-13.18 15.25) rotate(-2.43)"/><ellipse class="cls-20" cx="333.81" cy="344.89" rx="8.1" ry="8.36" transform="translate(-14.32 14.46) rotate(-2.43)"/><ellipse class="cls-18" cx="230.58" cy="284.84" rx="8.1" ry="11.1" transform="translate(-16.59 14.27) rotate(-3.42)"/><ellipse class="cls-18" cx="248.5" cy="308.38" rx="8.17" ry="12.68" transform="translate(-129.31 189.59) rotate(-33.68)"/><path class="cls-20" d="M235.4,303.71c4.39.93,8.66-1.99,9.55-6.51.89-4.52-1.95-8.94-6.34-9.87s-8.66,1.99-9.55,6.51c-.89,4.52,1.95,8.94,6.34,9.87Z"/><ellipse class="cls-18" cx="269.05" cy="334.95" rx="8.17" ry="12.68" transform="translate(-140.6 205.44) rotate(-33.68)"/><ellipse class="cls-18" cx="289.66" cy="359.17" rx="8.17" ry="12.68" transform="translate(-150.57 220.94) rotate(-33.68)"/><path class="cls-20" d="M256.24,328.8c4.39.93,8.66-1.99,9.55-6.51.89-4.52-1.95-8.94-6.34-9.87-4.39-.93-8.66,1.99-9.55,6.51-.89,4.52,1.95,8.94,6.34,9.87Z"/><path class="cls-20" d="M276.56,354.49c4.39.93,8.66-1.99,9.55-6.51.89-4.52-1.95-8.94-6.34-9.87s-8.66,1.99-9.55,6.51c-.89,4.52,1.95,8.94,6.34,9.87Z"/><ellipse class="cls-20" cx="307.87" cy="390.72" rx="31.28" ry="32.26" transform="translate(-16.29 13.4) rotate(-2.43)"/><text class="cls-28" transform="translate(282.48 394.19) rotate(9.17) scale(.97 1)"><tspan x="0" y="0">Eric </tspan></text><path class="cls-17" d="M271.34,584.24l-71.16,5.92-36.38,36.93-8.52,21.45s.46,23.5,6.05,25.01c7.66,5.67,21.14,6.85,21.14,6.85l17.94-1.03,26.12-2.72,35.01-7.51,12.72-1.95-2.93-82.95Z"/><path class="cls-23" d="M266.79,643.28s-10.86,12.66-43.89,23.09c-8.59,1.59-10,2-10,2-6.83,1.55-41.99,1.87-54.23-21.09-.69-1.29-2.03,4.73-2.03,4.73,0,0-3.81,13.96,12.8,22.23,9.32,4.64,25.54,3.14,25.54,3.14,0,0,14.5,1.72,20.75.05,32.92-8.81,50.02-12.18,50.02-12.18,0,0,3.34.2,4.53-1.41,1.58-1.73.42-12.7.42-12.7,0,0,.67-7.35-1.74-10.27-1.43.48-4.33,4.86-4.33,4.86"/><path class="cls-13" d="M215.15,624.9l-21.37-10s.49-6.03,5.17-6.63c19.16,8.18,21.77,9.57,21.77,9.57,0,0,.26,5.67-5.57,7.05Z"/><path class="cls-13" d="M171.48,636.97l27.04,15.16s4.53,9.88-.12,9.65l-9.18-.57s-20.77-8.94-22.09-14.47l-.15-3.03s1.44-7.04,4.5-6.73Z"/><path class="cls-13" d="M202.53,642.13l-21.37-10s.49-6.03,5.17-6.63c19.16,8.18,21.77,9.57,21.77,9.57,0,0,.26,5.67-5.57,7.05Z"/><path class="cls-13" d="M261.14,615.2l.91,15.81s1.53,2.15-1.87,3.89l-9.75,7.69s-15.68,10.33-27.55,12.28l-5.72-13.22s-1.06-2.62,3.54-5.39c4.23-5.24,12.94-14.56,12.94-14.56,0,0,6.69-6.69,17.54-6.96l3.16-.67s4.77-4.06,6.8,1.13Z"/><path class="cls-17" d="M370.56,578.6l71.4,1.34,38.67,34.51,9.88,20.86s1.05,23.48-4.43,25.35c-7.28,6.15-20.66,8.2-20.66,8.2l-17.97.12-26.24-1.04-35.42-5.25-12.82-1.13-2.4-82.96Z"/><path class="cls-23" d="M378.9,637.24s11.65,11.93,45.28,20.22c8.67,1.04,10.1,1.35,10.1,1.35,6.91,1.1,42.02-.83,52.77-24.53.6-1.33,2.33,4.59,2.33,4.59,0,0,4.7,13.69-11.35,23.01-9,5.23-25.28,4.78-25.28,4.78,0,0-14.36,2.65-20.7,1.38-33.42-6.68-50.7-8.95-50.7-8.95,0,0-3.32.41-4.61-1.12-1.69-1.62-1.24-12.65-1.24-12.65,0,0-1.14-7.29,1.08-10.36,1.46.39,4.63,4.57,4.63,4.57"/><path class="cls-13" d="M429.25,615.58l20.69-11.35s-.87-5.99-5.59-6.28c-18.59,9.4-21.11,10.95-21.11,10.95,0,0,.1,5.68,6.01,6.68Z"/><path class="cls-13" d="M473.61,624.82l-26.01,16.86s-3.89,10.15.74,9.62l9.13-1.16s20.15-10.25,21.12-15.86l-.05-3.04s-1.89-6.93-4.92-6.43Z"/><path class="cls-13" d="M442.95,631.96l20.69-11.35s-.87-5.99-5.59-6.28c-18.59,9.4-21.11,10.95-21.11,10.95,0,0,.1,5.68,6.01,6.68Z"/><path class="cls-13" d="M382.73,608.84l.11,15.84s-1.39,2.24,2.12,3.76l10.22,7.05s16.31,9.3,28.28,10.48l4.85-13.56s.89-2.68-3.88-5.15c-4.56-4.96-13.85-13.7-13.85-13.7,0,0-7.1-6.25-17.95-5.82l-3.2-.47s-5.02-3.75-6.71,1.57Z"/><g class="cls-31"><path class="cls-29" d="M606.65,281.38v6.06c0,.48.75.48.75,0v-6.06c0-.48-.75-.48-.75,0h0Z"/></g><path class="cls-15" d="M333.24,669.55c-68.5,2.91-140.22,7.09-172.16,26.7-16.35,10.04-25.05,37.87-24.56,49.52.49,11.52,15.2,31.29,31.99,39.85,33.37,17.01,101.13,11.46,170.02,8.54,54.11-2.3,124.45-.35,158.16-13.98,30.81-12.46,38.31-39.7,37.61-56.13s-8.98-41.65-43.39-51.48c-34.41-9.83-105.89-5.2-157.67-3Z"/><path class="cls-16" d="M335.2,672.97c-66.91,2.84-135,4.97-166.23,23.55-15.98,9.51-27.7,32.56-27.24,43.57s12.02,33.14,28.41,41.21c32.57,16.04,102.75,12.28,170.05,9.43,52.85-2.24,121.57-.5,154.51-13.43,30.11-11.82,34.79-38.11,34.13-53.63s-6.03-38.82-39.63-48.06c-33.6-9.25-103.43-4.77-154.01-2.63Z"/><circle class="cls-25" cx="451.92" cy="721.34" r="2.89"/><circle class="cls-25" cx="452.74" cy="740.85" r="2.89"/><circle class="cls-25" cx="436.05" cy="722.74" r="2.89"/><circle class="cls-25" cx="436.88" cy="742.24" r="2.89"/><circle class="cls-25" cx="248.3" cy="730.86" r="2.89"/><circle class="cls-25" cx="249.12" cy="750.36" r="2.89"/><circle class="cls-25" cx="232.43" cy="732.25" r="2.89"/><circle class="cls-25" cx="233.26" cy="751.76" r="2.89"/><path d="M391.45,679.84l14.52-.62.27,6.46c.04.88-.25,1.65-.86,2.31s-1.35,1.01-2.23,1.04l-8.07.34c-.87.04-1.64-.25-2.3-.85-.66-.61-1.02-1.35-1.05-2.23l-.27-6.46ZM393.2,683l.07,1.62c.02.45.19.82.53,1.13.33.3.71.44,1.15.42l8.07-.34c.44-.02.81-.19,1.11-.53.3-.33.44-.72.42-1.16l-.07-1.62-11.28.48Z"/><path d="M406.65,695.35l.14,3.24c.04.88-.25,1.65-.86,2.31s-1.35,1.01-2.23,1.04l-8.07.34c-.87.04-1.64-.25-2.3-.85-.66-.61-1.02-1.35-1.05-2.23l-.14-3.24c-.04-.88.25-1.65.85-2.31.61-.66,1.35-1.01,2.23-1.05l8.07-.34c.88-.04,1.65.25,2.31.85s1.01,1.35,1.05,2.23ZM403.43,695.48l-8.07.34c-.43.02-.8.19-1.11.52-.3.33-.45.72-.43,1.17s.19.82.53,1.13c.33.3.71.44,1.15.42l8.07-.34c.44-.02.81-.19,1.11-.53.3-.33.44-.72.42-1.16s-.19-.82-.52-1.12c-.33-.3-.71-.45-1.15-.43Z"/><path d="M392.54,705.64l14.52-.62.03.73-7.68,9.29,8.06-.34.07,1.62-14.52.62-.03-.74,7.68-9.28-8.06.34-.07-1.62Z"/><path d="M407.68,719.54l.14,3.22-3.22.14c-1.91.08-3.03-.95-3.37-3.08l1.62-.07c.08,1.04.65,1.55,1.69,1.55l-.07-1.62,3.22-.14Z"/><path d="M393.5,728.22l12.9-.55-.14-3.22,1.62-.07.41,9.68-1.62.07-.14-3.22-12.9.55-.14-3.24Z"/><path d="M394.04,741.02l14.52-.62.27,6.46c.04.88-.25,1.65-.86,2.31s-1.35,1.01-2.23,1.04l-.82.03c-.94.04-1.69-.2-2.26-.71-.56-.51-.93-1.3-1.1-2.37.05,1.07-.24,1.89-.87,2.46-.62.56-1.36.86-2.22.9l-.82.03c-.87.04-1.64-.25-2.31-.86-.66-.61-1.02-1.35-1.05-2.22l-.27-6.46ZM402.24,743.89l.07,1.62c.02.44.19.81.53,1.12s.72.45,1.16.43l1.62-.07c.44-.02.81-.19,1.11-.53.3-.33.44-.72.42-1.16l-.07-1.62-4.84.21ZM395.8,744.17l.07,1.62c.02.44.19.81.52,1.12.33.31.71.45,1.15.43l1.62-.07c1.08-.05,1.59-.61,1.55-1.69l-.07-1.62-4.84.21Z"/><path d="M394.59,753.91l14.52-.62.34,8.06-1.62.07-.21-4.84-4.84.21.14,3.24-1.6.07-.14-3.24-4.84.21.21,4.84-1.62.07-.34-8.06Z"/><path d="M395.27,769.93l11.3-.48c.88-.04,1.65.25,2.31.85s1.01,1.35,1.05,2.23l.14,3.24c.04.88-.25,1.65-.86,2.31s-1.35,1.01-2.23,1.04l-11.3.48-.14-3.22,6.46-.27-.14-3.24-6.46.27-.14-3.22ZM403.47,772.81l.14,3.24,3.24-.14c.44-.02.81-.19,1.11-.53.3-.33.44-.72.42-1.16s-.19-.82-.52-1.12c-.33-.3-.71-.45-1.15-.43l-3.24.14Z"/><path d="M368.9,696.84l14.52-.62.27,6.46c.04.88-.25,1.65-.86,2.31s-1.35,1.01-2.23,1.04l-1.62.07c-.88.04-1.65-.25-2.31-.85-.66-.61-1.01-1.35-1.05-2.23l-.14-3.24-6.46.27-.14-3.22ZM377.1,699.72l.07,1.62c.02.44.19.81.53,1.12s.72.45,1.16.43l1.62-.07c.44-.02.81-.19,1.11-.53.3-.33.44-.72.42-1.16l-.07-1.62-4.84.21Z"/><path d="M384.1,712.35l.14,3.24c.04.88-.25,1.65-.86,2.31s-1.35,1.01-2.23,1.04l-8.07.34c-.87.04-1.64-.25-2.3-.85-.66-.61-1.02-1.35-1.05-2.23l-.14-3.24c-.04-.88.25-1.65.85-2.31.61-.66,1.35-1.01,2.23-1.05l8.07-.34c.88-.04,1.65.25,2.31.85s1.01,1.35,1.05,2.23ZM380.88,712.48l-8.07.34c-.43.02-.8.19-1.11.52-.3.33-.45.72-.43,1.17s.19.82.53,1.13c.33.3.71.44,1.15.42l8.07-.34c.44-.02.81-.19,1.11-.53.3-.33.44-.72.42-1.16s-.19-.82-.52-1.12c-.33-.3-.71-.45-1.15-.43Z"/><path d="M381.63,730.22l-.07-1.6c1.07-.19,1.59-.72,1.55-1.6-.02-.56-.18-.98-.46-1.26-.28-.28-.7-.4-1.24-.38-.4.02-.77.19-1.11.52l-3.7,3.58c-.68.66-1.42,1.01-2.24,1.04l-.82.03c-.87.04-1.64-.25-2.3-.85-.66-.6-1.02-1.35-1.05-2.24l-.07-1.62c-.05-1.07.19-1.88.71-2.45.52-.56,1.31-.87,2.38-.91l.07,1.62c-.11,0-.2,0-.27,0-.44.02-.76.2-.98.55-.21.35-.31.72-.29,1.13.02.57.18.98.47,1.22s.7.35,1.23.33c.41-.02.78-.19,1.11-.52l3.68-3.58c.67-.66,1.42-1.01,2.24-1.04l.82-.03c.88-.04,1.65.25,2.31.85s1.01,1.35,1.05,2.24l.07,1.62c.09,2.02-.94,3.14-3.08,3.36Z"/><path d="M370.48,733.93l14.52-.62.34,8.06-1.62.07-.21-4.84-4.84.21.14,3.24-1.6.07-.14-3.24-4.84.21.21,4.84-1.62.07-.34-8.06Z"/><path d="M370.96,745.23l14.52-.62.27,6.46c.04.88-.25,1.65-.86,2.31s-1.35,1.01-2.23,1.04l-.88.04c-.72.03-1.43-.19-2.11-.65-.69-.47-1.06-1.28-1.11-2.44l.07,1.6c.02.44-.12.83-.43,1.16-.3.33-.68.51-1.12.52l-5.72.24-.14-3.22,4.84-.21c.44-.02.82-.2,1.12-.53.3-.33.45-.72.43-1.16l-.07-1.62-6.46.27-.14-3.22ZM379.15,748.11l.07,1.62c.02.44.19.81.53,1.12s.72.45,1.16.43l1.62-.07c.44-.02.81-.19,1.11-.53.3-.33.44-.72.42-1.16l-.07-1.62-4.84.21Z"/><path d="M376.41,759.53l9.68-.41.14,3.23-9.68.41-.14-3.23ZM371.57,759.73l3.22-.14.14,3.23-3.22.14-.14-3.23Z"/><path d="M276.12,709.54l36.56-1.55,13.45-.57,6.21-.26c.26-.01.52.04.76.14l1.05.44c.33.14.61.38.79.68l1.4,2.4c.23.4.27.88.11,1.31l-1.06,2.85c-.23.62-.83,1.04-1.53,1.07l-2.63.11-2.83.12-4.58.19-3.36.14-5.71.24-3.8.16,13.64,1.2c.08,0,.15,0,.23,0l3.66-.16,2.83-.12,2.83-.12c.98-.04,2,.77,1.96,1.71l.04.89s.04.85.04.89l.04.89c.03.78-.06,1.66-.87,1.83l-5.62,1.13-5.49,1.11c-.09.02-.18.03-.28.03l-7.92.34-4.1.17-2.63.11,6.13,1.46c.16.04.32.05.49.05l4.43-.19,9.8-.42,4.54-.19,9.36-.4,11.85-.5,5.85-.25c.38-.02.75.09,1.06.3l1.34.91c.42.29.68.74.7,1.23l.04.86.1,2.29c0,.23-.03.45-.12.66l-.32.75c-.25.59-.84.98-1.5,1.01l-.73.03c-.14,0-.29.03-.42.07l-3.17.93c-.14.04-.28.06-.42.07l-6.13.26-4.13.18-4.13.18-4.26.18-4,.17-3.56.15-4.84.21-4.26.18-4.53.19-3.06.13-1.72.07c-.88.04-1.27,1.07-.61,1.62h0c.15.12.33.2.53.23l5.26.6c.09.01.19.01.28,0l5.97-.25,4.86-.21c.13,0,.27,0,.4.03l3.69-1.1c.13.02,2.7-.11,2.83-.12l1.89-.08.98.85c1.01-.04-.42,1.75-.5,2.7l-.13,1.59c-.05.66-.54,1.23-1.21,1.42l-2.41.68c-.13.04-.27.06-.41.07l-3.73.16-7.73.33-4.26.18c-.09,0-.19,0-.28-.01l-5.4-.62c-.09-.01-.19-.01-.28-.01l-2.69.11,7.37,2.27c.19.06.39.09.6.08l3-.13,5.08-.22,5.2-.22,3.86-.16,1.01-.04c.68-.03,1.31.33,1.6.92l.68,1.38c.09.19.15.4.16.61l.02.48c.03.61-.31,1.18-.87,1.47l-.58.31c-.23.12-.49.19-.75.2l-2.09.09-5.46.23-3.29.14-2.84.12-2.93.12-4.69.2-2.83.12-2.83.12-2.83.12-.94.04-2.83.12h0c-1.01.04-1.75.9-1.6,1.85l.99,6.15c0,.06.02.12.02.18l.22,5.27.15,3.57.23,5.36.22,5.1c0,.17-.01.34-.07.51l-1.24,4.08c-.2.66-.83,1.13-1.56,1.16l-1.56.07c-.66.03-1.28-.31-1.58-.88l-.4-.76s-.05-.1-.07-.15l-2.02-5.05c-.04-.11-.07-.21-.09-.33l-1.26-7.83-2.36-12.79c-.06-.35-.25-.66-.52-.9l-2.99-2.6c-.33-.29-.77-.44-1.21-.42l-1.57.07c-.37.02-.73-.08-1.03-.28l-3.24-2.1c-.12-.08-.25-.14-.39-.19l-4.42-1.46c-.11-.04-.22-.08-.32-.14l-2.23-1.28c-.34-.2-.6-.5-.72-.86l-1.88-5.4c-.05-.14-.08-.29-.08-.44l-.42-9.89-.28-6.56-.26-6.05-.22-5.21-.25-6.01"/><polygon class="cls-12" points="451.65 712.72 460.81 712.33 462.34 748.25 431.29 749.55 429.77 713.6 451.65 712.72"/><polygon class="cls-12" points="445.69 671.88 450.34 773.78 443.34 774.07 439.95 672.13 445.69 671.88"/><circle class="cls-12" cx="455.08" cy="720.53" r="2"/><circle class="cls-12" cx="455.89" cy="739.51" r="2"/><circle class="cls-12" cx="435.1" cy="721.38" r="2"/><circle class="cls-12" cx="435.91" cy="740.36" r="2"/><path class="cls-22" d="M451.89,670.62l-19.43.82s-8.39,10.76.84,19.69l19.44-.53s9.67-9.73-.85-19.98Z"/><path class="cls-22" d="M456.07,767.53l-19.43.82s-8.39,10.76.84,19.69l19.44-.53s9.67-9.73-.85-19.98Z"/><polygon class="cls-12" points="245.42 719.38 254.58 718.99 256.11 754.9 225.06 756.21 223.54 720.25 245.42 719.38"/><polygon class="cls-12" points="239.46 678.54 244.11 780.43 237.11 780.73 233.72 678.78 239.46 678.54"/><circle class="cls-12" cx="248.85" cy="727.18" r="2"/><circle class="cls-12" cx="249.66" cy="746.17" r="2"/><circle class="cls-12" cx="228.87" cy="728.03" r="2"/><circle class="cls-12" cx="229.68" cy="747.01" r="2"/><path class="cls-22" d="M245.66,677.27l-19.43.82s-8.39,10.76.84,19.69l19.44-.53s9.67-9.73-.85-19.98Z"/><path class="cls-22" d="M249.84,774.18l-19.43.82s-8.39,10.76.84,19.69l19.44-.53s9.67-9.73-.85-19.98Z"/><g class="cls-30"><path class="cls-29" d="M455.95,783.5c-6.67.28-13.33.57-20,.85-.48.02-.48.77,0,.75,6.67-.28,13.33-.57,20-.85.48-.02.48-.77,0-.75h0Z"/></g><g class="cls-30"><path class="cls-29" d="M454.21,777.17c-5.04.21-10.08.43-15.12.64-.48.02-.48.77,0,.75,5.04-.21,10.08-.43,15.12-.64.48-.02.48-.77,0-.75h0Z"/></g><g class="cls-30"><path class="cls-29" d="M450.84,773.1l-1.18.05c-.2,0-.38.17-.38.38,0,.2.17.38.38.38l1.18-.05c.2,0,.38-.17.38-.38,0-.2-.17-.38-.38-.38h0Z"/></g><g class="cls-30"><path class="cls-29" d="M445.44,772.82l-2.18.09c-.2,0-.38.17-.38.38,0,.2.17.38.38.38l2.18-.09c.2,0,.38-.17.38-.38,0-.2-.17-.38-.38-.38h0Z"/></g><g class="cls-30"><path class="cls-29" d="M452.38,781.79c-2.46.1-4.93.21-7.39.31-.48.02-.48.77,0,.75,2.46-.1,4.93-.21,7.39-.31.48-.02.48-.77,0-.75h0Z"/></g><g class="cls-30"><path class="cls-29" d="M457.1,773.84l-3.86.16c-.48.02-.48.77,0,.75l3.86-.16c.48-.02.48-.77,0-.75h0Z"/></g><g class="cls-31"><path class="cls-29" d="M451.68,677.95c-3.47.15-6.95.29-10.42.44-.48.02-.48.77,0,.75,3.47-.15,6.95-.29,10.42-.44.48-.02.48-.77,0-.75h0Z"/></g><g class="cls-31"><path class="cls-29" d="M450.26,684.24l-4.54.19c-.48.02-.48.77,0,.75l4.54-.19c.48-.02.48-.77,0-.75h0Z"/></g><g class="cls-31"><path class="cls-29" d="M450.65,681.53l-2.52.11c-.2,0-.38.17-.38.38,0,.2.17.38.38.38l2.52-.11c.2,0,.38-.17.38-.38,0-.2-.17-.38-.38-.38h0Z"/></g><g class="cls-31"><path class="cls-29" d="M448.59,688.52l-5.38.23c-.48.02-.48.77,0,.75l5.38-.23c.48-.02.48-.77,0-.75h0Z"/></g><g class="cls-31"><path class="cls-29" d="M439.93,682.66l-5.04.21c-.48.02-.48.77,0,.75l5.04-.21c.48-.02.48-.77,0-.75h0Z"/></g><g class="cls-31"><path class="cls-29" d="M437.85,677.36l-2.86.12c-.2,0-.38.17-.38.38,0,.2.17.38.38.38l2.86-.12c.2,0,.38-.17.38-.38,0-.2-.17-.38-.38-.38h0Z"/></g><g class="cls-30"><path class="cls-29" d="M242.93,684.08c-3.53.15-7.06.3-10.59.45-.48.02-.48.77,0,.75,3.53-.15,7.06-.3,10.59-.45.48-.02.48-.77,0-.75h0Z"/></g><g class="cls-30"><path class="cls-29" d="M245.65,694.16c-1.11.05-2.22.09-3.32.14-.48.02-.48.77,0,.75,1.11-.05,2.22-.09,3.32-.14.48-.02.48-.77,0-.75h0Z"/></g><g class="cls-30"><path class="cls-29" d="M245.88,689.78l-4.57.19c-.48.02-.48.77,0,.75l4.57-.19c.48-.02.48-.77,0-.75h0Z"/></g><g class="cls-30"><path class="cls-29" d="M234.14,687.78l-5.4.23c-.48.02-.48.77,0,.75l5.4-.23c.48-.02.48-.77,0-.75h0Z"/></g><g class="cls-30"><path class="cls-29" d="M236.16,696.02c-2.22.09-4.43.19-6.65.28-.48.02-.48.77,0,.75,2.22-.09,4.43-.19,6.65-.28.48-.02.48-.77,0-.75h0Z"/></g><g class="cls-32"><path class="cls-29" d="M249.53,780.57c-2.08.09-4.15.18-6.23.26-.48.02-.48.77,0,.75,2.08-.09,4.15-.18,6.23-.26.48-.02.48-.77,0-.75h0Z"/></g><g class="cls-32"><path class="cls-29" d="M249.7,784.73l-3.53.15c-.48.02-.48.77,0,.75l3.53-.15c.48-.02.48-.77,0-.75h0Z"/></g><g class="cls-32"><path class="cls-29" d="M239.99,781.39c-3.19.14-6.37.27-9.56.41-.48.02-.48.77,0,.75,3.19-.14,6.37-.27,9.56-.41.48-.02.48-.77,0-.75h0Z"/></g><g class="cls-32"><path class="cls-29" d="M243.02,784.18l-1.45.06c-.2,0-.38.17-.38.38,0,.2.17.38.38.38l1.45-.06c.2,0,.38-.17.38-.38,0-.2-.17-.38-.38-.38h0Z"/></g><g class="cls-32"><path class="cls-29" d="M243.93,790.74c-4.78,0-9.57.16-14.34.48-.48.03-.48.78,0,.75,4.77-.32,9.56-.48,14.34-.48.48,0,.48-.75,0-.75h0Z"/></g><g class="cls-32"><path class="cls-29" d="M239.21,787.67c-1.38.06-2.77.12-4.15.18-.48.02-.48.77,0,.75,1.38-.06,2.77-.12,4.15-.18.48-.02.48-.77,0-.75h0Z"/></g><g class="cls-32"><path class="cls-29" d="M237.84,784.81c-2.42.1-4.85.21-7.27.31-.48.02-.48.77,0,.75,2.42-.1,4.85-.21,7.27-.31.48-.02.48-.77,0-.75h0Z"/></g><g class="cls-30"><path class="cls-29" d="M249.98,791.17l-.62.03c-.1,0-.19.04-.27.11-.07.07-.11.17-.11.27s.04.2.11.27.17.11.27.11l.62-.03c.1,0,.19-.04.27-.11.07-.07.11-.17.11-.27s-.04-.2-.11-.27-.17-.11-.27-.11h0Z"/></g><g class="cls-30"><path class="cls-29" d="M238,692.1l-6.03.26c-.48.02-.48.77,0,.75l6.03-.26c.48-.02.48-.77,0-.75h0Z"/></g></svg>