<?xml version="1.0" encoding="UTF-8"?><svg id="Layer_1" xmlns="http://www.w3.org/2000/svg" xmlns:xlink="http://www.w3.org/1999/xlink" viewBox="0 0 1933.98 1084"><defs><style>.cls-1,.cls-2,.cls-3,.cls-4,.cls-5,.cls-6,.cls-7{fill:none;}.cls-8{fill:#673606;}.cls-8,.cls-9,.cls-10,.cls-11,.cls-12,.cls-13,.cls-14,.cls-2,.cls-3,.cls-15,.cls-16,.cls-17,.cls-18,.cls-19,.cls-20,.cls-4,.cls-5,.cls-6,.cls-21,.cls-22,.cls-23,.cls-24,.cls-25,.cls-26,.cls-7,.cls-27,.cls-28{stroke-miterlimit:10;}.cls-8,.cls-19,.cls-4,.cls-6,.cls-28{stroke:#0d122e;}.cls-9{opacity:.22;}.cls-9,.cls-10,.cls-11,.cls-12,.cls-13,.cls-14,.cls-2,.cls-3,.cls-20,.cls-21,.cls-22,.cls-23,.cls-7{stroke:#241f20;}.cls-9,.cls-19,.cls-5,.cls-21,.cls-7{stroke-width:4px;}.cls-9,.cls-28{fill:#2d3196;}.cls-10,.cls-13,.cls-14,.cls-18,.cls-23,.cls-24,.cls-27{fill:#fff;}.cls-10,.cls-2,.cls-6,.cls-28{stroke-width:5px;}.cls-11{fill:#d3945d;stroke-width:7px;}.cls-12{fill:#999;}.cls-12,.cls-15,.cls-18,.cls-20,.cls-22,.cls-23{stroke-width:2px;}.cls-13{stroke-width:3px;}.cls-14,.cls-3,.cls-17{stroke-width:6px;}.cls-29{fill:#231f20;font-family:Arial-Black, 'Arial Black';font-size:21.96px;font-weight:800;}.cls-15,.cls-16,.cls-17,.cls-25{stroke:#000;}.cls-16{fill:#ff000f;}.cls-17{fill:#00943a;}.cls-18,.cls-24{stroke:#808083;}.cls-19{fill:#292470;}.cls-20{fill:#ffef00;}.cls-30{fill:blue;}.cls-5{stroke:#ffef00;}.cls-21,.cls-31{fill:#241f20;}.cls-22{fill:#f2f2f2;}.cls-32{opacity:.45;}.cls-33{opacity:.46;}.cls-34{opacity:.44;}.cls-35{fill:#006837;}.cls-26{fill:#ec1c24;stroke:#231f20;stroke-width:9px;}.cls-27{stroke:#919396;}</style><image id="image" width="135" height="52" xlink:href="../../../../../../IMG_6882.png"/></defs><rect class="cls-35" x="9" width="1920" height="1080"/><rect x="60" y="50" width="1778.72" height="970"/><rect class="cls-30" x="46" y="50" width="1838.33" height="970"/><path class="cls-15" d="M1542.19,483.02c0,128.77,2.13,263.68,36.39,325.19,17.53,31.48,69.07,50.03,90.96,50.03,21.65,0,59.92-26.03,77.32-56.85,34.58-61.27,29.56-188.85,29.56-318.37,0-101.71,9.25-233.57-13.64-297.9-20.93-58.8-71.45-75.04-102.33-75.04-32.34,0-78.87,13.53-100.06,77.32-21.19,63.79-18.19,198.29-18.19,295.63Z"/><path class="cls-16" d="M1548.76,479.63c0,125.79-1.42,253.72,30.95,313.8,16.57,30.75,58.9,54.58,79.59,54.58,20.46,0,63.15-19.92,79.59-50.03,32.68-59.85,31.23-191.83,31.23-318.35,0-99.36,8.74-228.16-12.89-291.01-19.78-57.44-68.74-68.31-97.93-68.31-30.56,0-73.32,8.22-93.35,70.53-20.03,62.31-17.19,193.7-17.19,288.79Z"/><circle class="cls-25" cx="1648.82" cy="264.46" r="5.43"/><circle class="cls-25" cx="1685.49" cy="264.46" r="5.43"/><circle class="cls-25" cx="1650.18" cy="294.34" r="5.43"/><circle class="cls-25" cx="1686.85" cy="294.34" r="5.43"/><circle class="cls-25" cx="1650.46" cy="647.31" r="5.43"/><circle class="cls-25" cx="1687.13" cy="647.31" r="5.43"/><circle class="cls-25" cx="1651.82" cy="677.19" r="5.43"/><circle class="cls-25" cx="1688.49" cy="677.19" r="5.43"/><path d="M1566.14,374.62v-27.29s12.14,0,12.14,0c1.66,0,3.08.6,4.27,1.79s1.78,2.61,1.78,4.26v15.18c0,1.64-.59,3.06-1.78,4.26-1.19,1.2-2.61,1.8-4.27,1.8h-12.14ZM1572.19,371.58h3.04c.84,0,1.56-.3,2.15-.9.59-.6.89-1.3.89-2.12v-15.18c0-.83-.3-1.53-.9-2.13-.6-.59-1.31-.89-2.14-.89h-3.04s0,21.21,0,21.21Z"/><path d="M1596.44,347.33h6.08c1.66,0,3.08.6,4.27,1.79,1.19,1.19,1.78,2.61,1.78,4.26v15.18c0,1.64-.59,3.06-1.78,4.26-1.19,1.2-2.61,1.8-4.27,1.8h-6.08c-1.66,0-3.08-.59-4.27-1.78-1.19-1.19-1.78-2.61-1.78-4.27v-15.18c0-1.66.6-3.08,1.78-4.27,1.19-1.19,2.61-1.78,4.27-1.78ZM1596.44,353.38v15.18c0,.82.3,1.52.89,2.12.59.6,1.31.9,2.15.9s1.56-.3,2.15-.9c.59-.6.89-1.3.89-2.12v-15.18c0-.83-.3-1.53-.9-2.13-.6-.59-1.31-.89-2.14-.89s-1.55.3-2.15.89c-.6.59-.89,1.3-.89,2.13Z"/><path d="M1614.63,374.62v-27.29s1.38,0,1.38,0l16.81,15.15v-15.15s3.04,0,3.04,0v27.29s-1.39,0-1.39,0l-16.8-15.15v15.15s-3.04,0-3.04,0Z"/><path d="M1641.92,347.33h6.05s0,6.05,0,6.05c0,3.59-2.02,5.62-6.05,6.08v-3.04c1.95-.08,2.97-1.09,3.04-3.04h-3.04s0-6.05,0-6.05Z"/><path d="M1657.07,374.62v-24.25s-6.05,0-6.05,0v-3.04s18.19,0,18.19,0v3.04s-6.05,0-6.05,0v24.25s-6.08,0-6.08,0Z"/><path d="M1681.13,374.62v-27.29s12.14,0,12.14,0c1.66,0,3.08.6,4.27,1.79,1.19,1.19,1.78,2.61,1.78,4.26v1.53c0,1.77-.5,3.16-1.51,4.18-1.01,1.01-2.52,1.64-4.54,1.88,2.02,0,3.53.61,4.54,1.83,1.01,1.22,1.51,2.63,1.51,4.23v1.53c0,1.64-.6,3.06-1.8,4.26-1.2,1.2-2.62,1.8-4.26,1.8h-12.14ZM1687.18,359.47h3.04c.83,0,1.54-.3,2.14-.9s.9-1.31.9-2.14v-3.04c0-.83-.3-1.53-.9-2.13-.6-.59-1.31-.89-2.14-.89h-3.04v9.1ZM1687.18,371.58h3.04c.83,0,1.54-.3,2.14-.9.6-.6.9-1.3.9-2.12v-3.04c0-2.03-1.01-3.04-3.04-3.04h-3.04v9.1Z"/><path d="M1705.38,374.62v-27.29s15.15,0,15.15,0v3.04s-9.1,0-9.1,0v9.1h6.08s0,3.01,0,3.01h-6.08v9.1s9.1,0,9.1,0v3.04s-15.15,0-15.15,0Z"/><path d="M1735.49,374.62v-21.23c0-1.66.6-3.08,1.78-4.27s2.61-1.78,4.27-1.78h6.08c1.66,0,3.08.6,4.27,1.79s1.78,2.61,1.78,4.26v21.23s-6.05,0-6.05,0v-12.14s-6.08,0-6.08,0v12.14s-6.05,0-6.05,0ZM1741.55,359.47h6.08v-6.08c0-.83-.3-1.53-.9-2.13-.6-.59-1.31-.89-2.14-.89s-1.55.3-2.15.89c-.6.59-.89,1.3-.89,2.13v6.08Z"/><path d="M1596.24,418.28v-27.29s12.14,0,12.14,0c1.66,0,3.08.6,4.27,1.79,1.19,1.19,1.78,2.61,1.78,4.26v3.04c0,1.66-.59,3.08-1.78,4.27-1.19,1.19-2.61,1.78-4.27,1.78h-6.08s0,12.14,0,12.14h-6.05ZM1602.29,403.13h3.04c.83,0,1.54-.3,2.14-.9s.9-1.31.9-2.14v-3.04c0-.83-.3-1.53-.9-2.13-.6-.59-1.31-.89-2.14-.89h-3.04v9.1Z"/><path d="M1626.54,390.99h6.08c1.66,0,3.08.6,4.27,1.79,1.19,1.19,1.78,2.61,1.78,4.26v15.18c0,1.64-.59,3.06-1.78,4.26-1.19,1.2-2.61,1.8-4.27,1.8h-6.08c-1.66,0-3.08-.59-4.27-1.78-1.19-1.19-1.78-2.61-1.78-4.27v-15.18c0-1.66.6-3.08,1.78-4.27s2.61-1.78,4.27-1.78ZM1626.54,397.05v15.18c0,.82.3,1.52.89,2.12.59.6,1.31.9,2.15.9s1.56-.3,2.15-.9c.59-.6.89-1.3.89-2.12v-15.18c0-.83-.3-1.53-.9-2.13-.6-.59-1.31-.89-2.14-.89s-1.55.3-2.15.89c-.6.59-.89,1.3-.89,2.13Z"/><path d="M1659.88,397.05h-3.01c-.27-2.03-1.22-3.04-2.87-3.04-1.06,0-1.86.26-2.4.77-.54.51-.81,1.27-.81,2.29,0,.76.3,1.47.89,2.13l6.42,7.22c1.18,1.33,1.78,2.75,1.78,4.28v1.53c0,1.64-.59,3.06-1.78,4.26-1.18,1.2-2.61,1.8-4.28,1.8h-3.04c-2.01,0-3.52-.51-4.53-1.52-1.01-1.01-1.52-2.53-1.52-4.53h3.04c-.02.21-.03.37-.03.5,0,.83.32,1.45.95,1.88.64.43,1.33.64,2.09.64,1.08,0,1.86-.26,2.33-.78s.71-1.28.71-2.27c0-.77-.3-1.48-.89-2.13l-6.42-7.19c-1.18-1.32-1.78-2.74-1.78-4.28v-1.53c0-1.65.59-3.07,1.78-4.26,1.18-1.19,2.61-1.79,4.28-1.79h3.04c3.79,0,5.81,2.02,6.05,6.05Z"/><path d="M1665.97,418.28v-27.29s15.15,0,15.15,0v3.04s-9.1,0-9.1,0v9.1h6.08s0,3.01,0,3.01h-6.08v9.1s9.1,0,9.1,0v3.04s-15.15,0-15.15,0Z"/><path d="M1687.2,418.28v-27.29s12.14,0,12.14,0c1.66,0,3.08.6,4.27,1.79,1.19,1.19,1.78,2.61,1.78,4.26v1.65c0,1.35-.46,2.66-1.39,3.92-.93,1.26-2.48,1.88-4.66,1.88h3.01c.83,0,1.55.3,2.15.89.6.6.89,1.31.89,2.15v10.75s-6.05,0-6.05,0v-9.1c0-.83-.3-1.55-.9-2.15-.6-.6-1.31-.89-2.14-.89h-3.04v12.14s-6.05,0-6.05,0ZM1693.26,403.13h3.04c.83,0,1.54-.3,2.14-.9.6-.6.9-1.31.9-2.14v-3.04c0-.83-.3-1.53-.9-2.13-.6-.59-1.31-.89-2.14-.89h-3.04v9.1Z"/><path d="M1714.46,409.18v-18.19s6.07,0,6.07,0v18.19s-6.07,0-6.07,0ZM1714.46,418.28v-6.05s6.07,0,6.07,0v6.05s-6.07,0-6.07,0Z"/><path d="M1612.69,593.4v-68.72s0-25.29,0-25.29v-11.67c0-.49.11-.98.32-1.42l.91-1.93c.29-.61.76-1.11,1.34-1.42l4.61-2.44c.77-.41,1.66-.44,2.46-.11l5.25,2.22c1.14.48,1.89,1.65,1.89,2.95v4.95s0,5.32,0,5.32v8.62s0,6.33,0,6.33v10.73s0,7.15,0,7.15l3.33-25.51c.02-.14.03-.29.03-.43v-6.88s0-5.32,0-5.32v-5.32c0-1.85,1.61-3.69,3.36-3.55h1.68c.08,0,1.6,0,1.68,0h1.68c1.47,0,3.12.24,3.36,1.77l1.68,10.64,1.64,10.38c.03.17.04.35.04.52v14.89s0,7.7,0,7.7v4.95s3.23-11.39,3.23-11.39c.08-.3.13-.6.13-.91v-8.32s0-18.43,0-18.43v-8.53s0-17.6,0-17.6v-22.28s0-11,0-11c0-.71.23-1.4.64-1.96l1.81-2.44c.57-.77,1.44-1.21,2.36-1.21h1.61s4.3,0,4.3,0c.43,0,.85.1,1.23.28l1.37.65c1.08.51,1.77,1.65,1.77,2.9v1.38c0,.27.03.54.1.8l1.49,6.01c.06.26.1.53.1.8v11.52s0,7.76,0,7.76v7.76s0,8.01,0,8.01v7.51s0,6.69,0,6.69v9.09s0,8.01,0,8.01v8.51s0,5.76,0,5.76v3.23c0,1.65,1.9,2.46,2.98,1.28h0c.25-.27.41-.61.47-.97l1.55-9.82c.03-.17.04-.35.04-.52v-11.22s0-9.14,0-9.14c0-.25.03-.5.08-.74l-1.76-7.01c.06-.24,0-5.07,0-5.32v-3.55s1.68-1.77,1.68-1.77c0-1.9,3.25.94,5.03,1.15l2.98.37c1.24.15,2.27,1.1,2.57,2.38l1.09,4.59c.06.25.09.51.09.77v7.01s0,14.52,0,14.52v8c0,.18-.01.35-.04.52l-1.6,10.09c-.03.17-.04.35-.04.52v5.06s4.85-13.65,4.85-13.65c.13-.36.19-.73.19-1.11v-5.63s0-9.56,0-9.56v-9.77s0-7.26,0-7.26v-1.89c0-1.28.73-2.44,1.85-2.93l2.64-1.16c.37-.16.76-.25,1.16-.25h.9c1.14,0,2.18.68,2.69,1.76l.53,1.12c.21.44.32.93.32,1.42v3.94s0,10.27,0,10.27v6.18s0,5.34,0,5.34v5.51s0,8.81,0,8.81v5.32s0,5.32,0,5.32v5.32s0,1.77,0,1.77v5.32h0c0,1.89,1.56,3.36,3.34,3.16l11.61-1.36c.11-.01.22-.02.33-.02h9.91s6.72,0,6.72,0h10.08s9.59,0,9.59,0c.32,0,.64.06.95.16l7.56,2.66c1.23.43,2.06,1.65,2.06,3.01v2.93c0,1.25-.69,2.38-1.77,2.89l-1.45.69c-.09.04-.19.08-.29.12l-9.63,3.39c-.2.07-.41.12-.62.14l-14.8,1.74-24.19,3.41c-.65.09-1.26.41-1.73.9l-5.12,5.41c-.56.6-.88,1.4-.88,2.25v2.95c0,.69-.21,1.36-.6,1.91l-4.2,5.91c-.16.22-.29.47-.39.73l-3.1,8.17c-.08.2-.17.4-.29.58l-2.57,4.08c-.4.63-.99,1.08-1.68,1.29l-10.29,3.1c-.27.08-.55.12-.83.12h-18.6s-12.33,0-12.33,0h-11.38s-9.8,0-9.8,0h-11.3"/><polygon class="cls-12" points="1632.62 264.28 1632.62 247.04 1700.13 247.04 1700.12 305.41 1632.52 305.41 1632.62 264.28"/><polygon class="cls-12" points="1555.51 272.2 1747.09 271.6 1747.09 284.75 1555.51 282.99 1555.51 272.2"/><circle class="cls-12" cx="1647.55" cy="258.45" r="3.76"/><circle class="cls-12" cx="1683.23" cy="258.45" r="3.76"/><circle class="cls-12" cx="1647.55" cy="296.01" r="3.76"/><circle class="cls-12" cx="1683.23" cy="296.01" r="3.76"/><path class="cls-22" d="M1553.64,260.46v36.52s19.53,16.6,37.01,0l.55-36.52s-17.49-18.92-37.56,0Z"/><path class="cls-22" d="M1735.82,260.33v36.52s19.53,16.6,37.01,0l.55-36.52s-17.49-18.92-37.56,0Z"/><polygon class="cls-12" points="1628.69 651.8 1628.69 634.56 1696.2 634.56 1696.18 692.92 1628.59 692.92 1628.69 651.8"/><polygon class="cls-12" points="1551.58 659.71 1743.15 659.12 1743.15 672.26 1551.58 670.5 1551.58 659.71"/><circle class="cls-12" cx="1643.61" cy="645.97" r="3.76"/><circle class="cls-12" cx="1679.3" cy="645.97" r="3.76"/><circle class="cls-12" cx="1643.61" cy="683.53" r="3.76"/><circle class="cls-12" cx="1679.3" cy="683.53" r="3.76"/><path class="cls-22" d="M1549.7,647.98v36.52s19.53,16.6,37.01,0l.55-36.52s-17.49-18.92-37.56,0Z"/><path class="cls-22" d="M1731.89,647.85v36.52s19.53,16.6,37.01,0l.55-36.52s-17.49-18.92-37.56,0Z"/><g class="cls-32"><path class="cls-31" d="M1766.11,261.87c0,12.53,0,25.06,0,37.59,0,.48.75.48.75,0,0-12.53,0-25.06,0-37.59,0-.48-.75-.48-.75,0h0Z"/></g><g class="cls-32"><path class="cls-31" d="M1754.09,264.63c0,9.48,0,18.95,0,28.43,0,.48.75.48.75,0,0-9.48,0-18.95,0-28.43,0-.48-.75-.48-.75,0h0Z"/></g><g class="cls-32"><path class="cls-31" d="M1746.19,270.63v2.21c0,.2.17.38.38.38s.38-.16.38-.38v-2.21c0-.2-.17-.38-.38-.38s-.38.16-.38.38h0Z"/></g><g class="cls-32"><path class="cls-31" d="M1745.24,280.74v4.11c0,.48.75.48.75,0v-4.11c0-.48-.75-.48-.75,0h0Z"/></g><g class="cls-32"><path class="cls-31" d="M1762.61,268.42c0,4.63,0,9.27,0,13.9,0,.48.75.48.75,0,0-4.63,0-9.27,0-13.9,0-.48-.75-.48-.75,0h0Z"/></g><g class="cls-32"><path class="cls-31" d="M1748.08,258.95c0,2.42,0,4.84,0,7.27,0,.48.75.48.75,0,0-2.42,0-4.84,0-7.27,0-.48-.75-.48-.75,0h0Z"/></g><g class="cls-33"><path class="cls-31" d="M1567.7,261.47c0,6.53,0,13.06,0,19.59,0,.48.75.48.75,0,0-6.53,0-13.06,0-19.59,0-.48-.75-.48-.75,0h0Z"/></g><g class="cls-33"><path class="cls-31" d="M1579.39,264.63c0,2.84,0,5.69,0,8.53,0,.48.75.48.75,0,0-2.84,0-5.69,0-8.53,0-.48-.75-.48-.75,0h0Z"/></g><g class="cls-33"><path class="cls-31" d="M1574.34,263.68c0,1.58,0,3.16,0,4.74,0,.48.75.48.75,0,0-1.58,0-3.16,0-4.74,0-.48-.75-.48-.75,0h0Z"/></g><g class="cls-33"><path class="cls-31" d="M1587.29,268.11c0,3.37,0,6.74,0,10.11,0,.48.75.48.75,0,0-3.37,0-6.74,0-10.11,0-.48-.75-.48-.75,0h0Z"/></g><g class="cls-33"><path class="cls-31" d="M1575.6,283.9c0,3.16,0,6.32,0,9.48,0,.48.75.48.75,0,0-3.16,0-6.32,0-9.48,0-.48-.75-.48-.75,0h0Z"/></g><g class="cls-33"><path class="cls-31" d="M1565.49,287.38c0,1.79,0,3.58,0,5.37,0,.48.75.48.75,0,0-1.79,0-3.58,0-5.37,0-.48-.75-.48-.75,0h0Z"/></g><g class="cls-32"><path class="cls-31" d="M1562.58,653.67c0,6.64,0,13.28,0,19.92,0,.48.75.48.75,0,0-6.64,0-13.28,0-19.92,0-.48-.75-.48-.75,0h0Z"/></g><g class="cls-32"><path class="cls-31" d="M1581.72,649.38c0,2.08,0,4.17,0,6.25,0,.48.75.48.75,0,0-2.08,0-4.17,0-6.25,0-.48-.75-.48-.75,0h0Z"/></g><g class="cls-32"><path class="cls-31" d="M1573.52,648.6c0,2.86,0,5.73,0,8.59,0,.48.75.48.75,0,0-2.86,0-5.73,0-8.59,0-.48-.75-.48-.75,0h0Z"/></g><g class="cls-32"><path class="cls-31" d="M1568.83,670.46c0,3.38,0,6.77,0,10.15,0,.48.75.48.75,0,0-3.38,0-6.77,0-10.15,0-.48-.75-.48-.75,0h0Z"/></g><g class="cls-32"><path class="cls-31" d="M1584.45,667.34c0,4.17,0,8.33,0,12.5,0,.48.75.48.75,0,0-4.17,0-8.33,0-12.5,0-.48-.75-.48-.75,0h0Z"/></g><g class="cls-34"><path class="cls-31" d="M1744.18,648.99v11.72c0,.48.75.48.75,0v-11.72c0-.48-.75-.48-.75,0h0Z"/></g><g class="cls-34"><path class="cls-31" d="M1751.99,648.99c0,2.21,0,4.43,0,6.64,0,.48.75.48.75,0,0-2.21,0-4.43,0-6.64,0-.48-.75-.48-.75,0h0Z"/></g><g class="cls-34"><path class="cls-31" d="M1744.96,666.95c0,5.99,0,11.98,0,17.96,0,.48.75.48.75,0,0-5.99,0-11.98,0-17.96,0-.48-.75-.48-.75,0h0Z"/></g><g class="cls-34"><path class="cls-31" d="M1750.43,661.48v2.73c0,.48.75.48.75,0v-2.73c0-.48-.75-.48-.75,0h0Z"/></g><g class="cls-34"><path class="cls-31" d="M1762.82,660.31c-.38,8.98-.46,17.97-.25,26.95.01.48.76.48.75,0-.21-8.98-.13-17.97.25-26.95.02-.48-.73-.48-.75,0h0Z"/></g><g class="cls-34"><path class="cls-31" d="M1756.68,668.9c0,2.6,0,5.21,0,7.81,0,.48.75.48.75,0,0-2.6,0-5.21,0-7.81,0-.48-.75-.48-.75,0h0Z"/></g><g class="cls-34"><path class="cls-31" d="M1751.21,671.25c0,4.56,0,9.11,0,13.67,0,.48.75.48.75,0,0-4.56,0-9.11,0-13.67,0-.48-.75-.48-.75,0h0Z"/></g><g class="cls-32"><path class="cls-31" d="M1764.1,648.99v1.17c0,.2.17.38.38.38s.38-.16.38-.38v-1.17c0-.2-.17-.38-.38-.38s-.38.16-.38.38h0Z"/></g><g class="cls-32"><path class="cls-31" d="M1577.25,663.57c0,3.78,0,7.55,0,11.33,0,.48.75.48.75,0,0-3.78,0-7.55,0-11.33,0-.48-.75-.48-.75,0h0Z"/></g><path class="cls-15" d="M154.3,496.88c0,128.77,2.13,263.68,36.39,325.19,17.53,31.48,69.07,50.03,90.96,50.03,21.65,0,59.92-26.03,77.32-56.85,34.58-61.27,29.56-188.85,29.56-318.37,0-101.71,9.25-233.57-13.64-297.9-20.93-58.8-71.45-75.04-102.33-75.04-32.34,0-78.87,13.53-100.06,77.32-21.19,63.79-18.19,198.29-18.19,295.63Z"/><path class="cls-16" d="M160.88,493.49c0,125.79-1.42,253.72,30.95,313.8,16.57,30.75,58.9,54.58,79.59,54.58,20.46,0,63.15-19.92,79.59-50.03,32.68-59.85,31.23-191.83,31.23-318.35,0-99.36,8.74-228.16-12.89-291.01-19.78-57.44-68.74-68.31-97.93-68.31-30.56,0-73.32,8.22-93.35,70.53-20.03,62.31-17.19,193.7-17.19,288.79Z"/><circle class="cls-25" cx="260.93" cy="278.32" r="5.43"/><circle class="cls-25" cx="297.6" cy="278.32" r="5.43"/><circle class="cls-25" cx="262.29" cy="308.2" r="5.43"/><circle class="cls-25" cx="298.96" cy="308.2" r="5.43"/><circle class="cls-25" cx="262.57" cy="661.17" r="5.43"/><circle class="cls-25" cx="299.24" cy="661.17" r="5.43"/><circle class="cls-25" cx="263.93" cy="691.05" r="5.43"/><circle class="cls-25" cx="300.6" cy="691.05" r="5.43"/><path d="M178.25,388.48v-27.29s12.14,0,12.14,0c1.66,0,3.08.6,4.27,1.79s1.78,2.61,1.78,4.26v15.18c0,1.64-.59,3.06-1.78,4.26-1.19,1.2-2.61,1.8-4.27,1.8h-12.14ZM184.3,385.44h3.04c.84,0,1.56-.3,2.15-.9.59-.6.89-1.3.89-2.12v-15.18c0-.83-.3-1.53-.9-2.13-.6-.59-1.31-.89-2.14-.89h-3.04s0,21.21,0,21.21Z"/><path d="M208.55,361.19h6.08c1.66,0,3.08.6,4.27,1.79,1.19,1.19,1.78,2.61,1.78,4.26v15.18c0,1.64-.59,3.06-1.78,4.26-1.19,1.2-2.61,1.8-4.27,1.8h-6.08c-1.66,0-3.08-.59-4.27-1.78-1.19-1.19-1.78-2.61-1.78-4.27v-15.18c0-1.66.6-3.08,1.78-4.27,1.19-1.19,2.61-1.78,4.27-1.78ZM208.55,367.24v15.18c0,.82.3,1.52.89,2.12.59.6,1.31.9,2.15.9s1.56-.3,2.15-.9c.59-.6.89-1.3.89-2.12v-15.18c0-.83-.3-1.53-.9-2.13-.6-.59-1.31-.89-2.14-.89s-1.55.3-2.15.89c-.6.59-.89,1.3-.89,2.13Z"/><path d="M226.74,388.48v-27.29s1.38,0,1.38,0l16.81,15.15v-15.15s3.04,0,3.04,0v27.29s-1.39,0-1.39,0l-16.8-15.15v15.15s-3.04,0-3.04,0Z"/><path d="M254.03,361.19h6.05s0,6.05,0,6.05c0,3.59-2.02,5.62-6.05,6.08v-3.04c1.95-.08,2.97-1.09,3.04-3.04h-3.04s0-6.05,0-6.05Z"/><path d="M269.18,388.48v-24.25s-6.05,0-6.05,0v-3.04s18.19,0,18.19,0v3.04s-6.05,0-6.05,0v24.25s-6.08,0-6.08,0Z"/><path d="M293.24,388.48v-27.29s12.14,0,12.14,0c1.66,0,3.08.6,4.27,1.79,1.19,1.19,1.78,2.61,1.78,4.26v1.53c0,1.77-.5,3.16-1.51,4.18-1.01,1.01-2.52,1.64-4.54,1.88,2.02,0,3.53.61,4.54,1.83,1.01,1.22,1.51,2.63,1.51,4.23v1.53c0,1.64-.6,3.06-1.8,4.26-1.2,1.2-2.62,1.8-4.26,1.8h-12.14ZM299.3,373.33h3.04c.83,0,1.54-.3,2.14-.9s.9-1.31.9-2.14v-3.04c0-.83-.3-1.53-.9-2.13-.6-.59-1.31-.89-2.14-.89h-3.04v9.1ZM299.3,385.44h3.04c.83,0,1.54-.3,2.14-.9.6-.6.9-1.3.9-2.12v-3.04c0-2.03-1.01-3.04-3.04-3.04h-3.04v9.1Z"/><path d="M317.49,388.48v-27.29s15.15,0,15.15,0v3.04s-9.1,0-9.1,0v9.1h6.08s0,3.01,0,3.01h-6.08v9.1s9.1,0,9.1,0v3.04s-15.15,0-15.15,0Z"/><path d="M347.61,388.48v-21.23c0-1.66.6-3.08,1.78-4.27,1.19-1.19,2.61-1.78,4.27-1.78h6.08c1.66,0,3.08.6,4.27,1.79s1.78,2.61,1.78,4.26v21.23s-6.05,0-6.05,0v-12.14s-6.08,0-6.08,0v12.14s-6.05,0-6.05,0ZM353.66,373.33h6.08v-6.08c0-.83-.3-1.53-.9-2.13-.6-.59-1.31-.89-2.14-.89s-1.55.3-2.15.89c-.6.59-.89,1.3-.89,2.13v6.08Z"/><path d="M208.35,432.14v-27.29s12.14,0,12.14,0c1.66,0,3.08.6,4.27,1.79,1.19,1.19,1.78,2.61,1.78,4.26v3.04c0,1.66-.59,3.08-1.78,4.27-1.19,1.19-2.61,1.78-4.27,1.78h-6.08s0,12.14,0,12.14h-6.05ZM214.41,416.99h3.04c.83,0,1.54-.3,2.14-.9s.9-1.31.9-2.14v-3.04c0-.83-.3-1.53-.9-2.13-.6-.59-1.31-.89-2.14-.89h-3.04v9.1Z"/><path d="M238.66,404.85h6.08c1.66,0,3.08.6,4.27,1.79,1.19,1.19,1.78,2.61,1.78,4.26v15.18c0,1.64-.59,3.06-1.78,4.26-1.19,1.2-2.61,1.8-4.27,1.8h-6.08c-1.66,0-3.08-.59-4.27-1.78-1.19-1.19-1.78-2.61-1.78-4.27v-15.18c0-1.66.6-3.08,1.78-4.27s2.61-1.78,4.27-1.78ZM238.66,410.91v15.18c0,.82.3,1.52.89,2.12.59.6,1.31.9,2.15.9s1.56-.3,2.15-.9c.59-.6.89-1.3.89-2.12v-15.18c0-.83-.3-1.53-.9-2.13-.6-.59-1.31-.89-2.14-.89s-1.55.3-2.15.89c-.6.59-.89,1.3-.89,2.13Z"/><path d="M272,410.91h-3.01c-.27-2.03-1.22-3.04-2.87-3.04-1.06,0-1.86.26-2.4.77-.54.51-.81,1.27-.81,2.29,0,.76.3,1.47.89,2.13l6.42,7.22c1.18,1.33,1.78,2.75,1.78,4.28v1.53c0,1.64-.59,3.06-1.78,4.26-1.18,1.2-2.61,1.8-4.28,1.8h-3.04c-2.01,0-3.52-.51-4.53-1.52-1.01-1.01-1.52-2.53-1.52-4.53h3.04c-.02.21-.03.37-.03.5,0,.83.32,1.45.95,1.88.64.43,1.33.64,2.09.64,1.08,0,1.86-.26,2.33-.78s.71-1.28.71-2.27c0-.77-.3-1.48-.89-2.13l-6.42-7.19c-1.18-1.32-1.78-2.74-1.78-4.28v-1.53c0-1.65.59-3.07,1.78-4.26,1.18-1.19,2.61-1.79,4.28-1.79h3.04c3.79,0,5.81,2.02,6.05,6.05Z"/><path d="M278.08,432.14v-27.29s15.15,0,15.15,0v3.04s-9.1,0-9.1,0v9.1h6.08s0,3.01,0,3.01h-6.08v9.1s9.1,0,9.1,0v3.04s-15.15,0-15.15,0Z"/><path d="M299.32,432.14v-27.29s12.14,0,12.14,0c1.66,0,3.08.6,4.27,1.79,1.19,1.19,1.78,2.61,1.78,4.26v1.65c0,1.35-.46,2.66-1.39,3.92-.93,1.26-2.48,1.88-4.66,1.88h3.01c.83,0,1.55.3,2.15.89.6.6.89,1.31.89,2.15v10.75s-6.05,0-6.05,0v-9.1c0-.83-.3-1.55-.9-2.15-.6-.6-1.31-.89-2.14-.89h-3.04v12.14s-6.05,0-6.05,0ZM305.37,416.99h3.04c.83,0,1.54-.3,2.14-.9.6-.6.9-1.31.9-2.14v-3.04c0-.83-.3-1.53-.9-2.13-.6-.59-1.31-.89-2.14-.89h-3.04v9.1Z"/><path d="M326.57,423.04v-18.19s6.07,0,6.07,0v18.19s-6.07,0-6.07,0ZM326.57,432.14v-6.05s6.07,0,6.07,0v6.05s-6.07,0-6.07,0Z"/><path d="M224.8,607.26v-68.72s0-25.29,0-25.29v-11.67c0-.49.11-.98.32-1.42l.91-1.93c.29-.61.76-1.11,1.34-1.42l4.61-2.44c.77-.41,1.66-.44,2.46-.11l5.25,2.22c1.14.48,1.89,1.65,1.89,2.95v4.95s0,5.32,0,5.32v8.62s0,6.33,0,6.33v10.73s0,7.15,0,7.15l3.33-25.51c.02-.14.03-.29.03-.43v-6.88s0-5.32,0-5.32v-5.32c0-1.85,1.61-3.69,3.36-3.55h1.68c.08,0,1.6,0,1.68,0h1.68c1.47,0,3.12.24,3.36,1.77l1.68,10.64,1.64,10.38c.03.17.04.35.04.52v14.89s0,7.7,0,7.7v4.95s3.23-11.39,3.23-11.39c.08-.3.13-.6.13-.91v-8.32s0-18.43,0-18.43v-8.53s0-17.6,0-17.6v-22.28s0-11,0-11c0-.71.23-1.4.64-1.96l1.81-2.44c.57-.77,1.44-1.21,2.36-1.21h1.61s4.3,0,4.3,0c.43,0,.85.1,1.23.28l1.37.65c1.08.51,1.77,1.65,1.77,2.9v1.38c0,.27.03.54.1.8l1.49,6.01c.06.26.1.53.1.8v11.52s0,7.76,0,7.76v7.76s0,8.01,0,8.01v7.51s0,6.69,0,6.69v9.09s0,8.01,0,8.01v8.51s0,5.76,0,5.76v3.23c0,1.65,1.9,2.46,2.98,1.28h0c.25-.27.41-.61.47-.97l1.55-9.82c.03-.17.04-.35.04-.52v-11.22s0-9.14,0-9.14c0-.25.03-.5.08-.74l-1.76-7.01c.06-.24,0-5.07,0-5.32v-3.55s1.68-1.77,1.68-1.77c0-1.9,3.25.94,5.03,1.15l2.98.37c1.24.15,2.27,1.1,2.57,2.38l1.09,4.59c.06.25.09.51.09.77v7.01s0,14.52,0,14.52v8c0,.18-.01.35-.04.52l-1.6,10.09c-.03.17-.04.35-.04.52v5.06s4.85-13.65,4.85-13.65c.13-.36.19-.73.19-1.11v-5.63s0-9.56,0-9.56v-9.77s0-7.26,0-7.26v-1.89c0-1.28.73-2.44,1.85-2.93l2.64-1.16c.37-.16.76-.25,1.16-.25h.9c1.14,0,2.18.68,2.69,1.76l.53,1.12c.21.44.32.93.32,1.42v3.94s0,10.27,0,10.27v6.18s0,5.34,0,5.34v5.51s0,8.81,0,8.81v5.32s0,5.32,0,5.32v5.32s0,1.77,0,1.77v5.32h0c0,1.89,1.56,3.36,3.34,3.16l11.61-1.36c.11-.01.22-.02.33-.02h9.91s6.72,0,6.72,0h10.08s9.59,0,9.59,0c.32,0,.64.06.95.16l7.56,2.66c1.23.43,2.06,1.65,2.06,3.01v2.93c0,1.25-.69,2.38-1.77,2.89l-1.45.69c-.09.04-.19.08-.29.12l-9.63,3.39c-.2.07-.41.12-.62.14l-14.8,1.74-24.19,3.41c-.65.09-1.26.41-1.73.9l-5.12,5.41c-.56.6-.88,1.4-.88,2.25v2.95c0,.69-.21,1.36-.6,1.91l-4.2,5.91c-.16.22-.29.47-.39.73l-3.1,8.17c-.08.2-.17.4-.29.58l-2.57,4.08c-.4.63-.99,1.08-1.68,1.29l-10.29,3.1c-.27.08-.55.12-.83.12h-18.6s-12.33,0-12.33,0h-11.38s-9.8,0-9.8,0h-11.3"/><polygon class="cls-12" points="244.74 278.14 244.74 260.9 312.25 260.9 312.23 319.27 244.64 319.27 244.74 278.14"/><polygon class="cls-12" points="167.63 286.06 359.2 285.46 359.2 298.61 167.63 296.85 167.63 286.06"/><circle class="cls-12" cx="259.66" cy="272.31" r="3.76"/><circle class="cls-12" cx="295.35" cy="272.31" r="3.76"/><circle class="cls-12" cx="259.66" cy="309.87" r="3.76"/><circle class="cls-12" cx="295.35" cy="309.87" r="3.76"/><path class="cls-22" d="M165.75,274.32v36.52s19.53,16.6,37.01,0l.55-36.52s-17.49-18.92-37.56,0Z"/><path class="cls-22" d="M347.94,274.19v36.52s19.53,16.6,37.01,0l.55-36.52s-17.49-18.92-37.56,0Z"/><polygon class="cls-12" points="240.8 665.65 240.8 648.42 308.32 648.42 308.3 706.78 240.7 706.78 240.8 665.65"/><polygon class="cls-12" points="163.7 673.57 355.27 672.98 355.27 686.12 163.7 684.36 163.7 673.57"/><circle class="cls-12" cx="255.73" cy="659.83" r="3.76"/><circle class="cls-12" cx="291.41" cy="659.83" r="3.76"/><circle class="cls-12" cx="255.73" cy="697.39" r="3.76"/><circle class="cls-12" cx="291.41" cy="697.39" r="3.76"/><path class="cls-22" d="M161.82,661.84v36.52s19.53,16.6,37.01,0l.55-36.52s-17.49-18.92-37.56,0Z"/><path class="cls-22" d="M344,661.71v36.52s19.53,16.6,37.01,0l.55-36.52s-17.49-18.92-37.56,0Z"/><g class="cls-32"><path class="cls-31" d="M378.22,275.73c0,12.53,0,25.06,0,37.59,0,.48.75.48.75,0,0-12.53,0-25.06,0-37.59,0-.48-.75-.48-.75,0h0Z"/></g><g class="cls-32"><path class="cls-31" d="M366.2,278.49c0,9.48,0,18.95,0,28.43,0,.48.75.48.75,0,0-9.48,0-18.95,0-28.43,0-.48-.75-.48-.75,0h0Z"/></g><g class="cls-32"><path class="cls-31" d="M358.3,284.49c0,.74,0,1.47,0,2.21,0,.2.17.38.38.38s.38-.16.38-.38c0-.74,0-1.47,0-2.21,0-.2-.17-.38-.38-.38s-.38.16-.38.38h0Z"/></g><g class="cls-32"><path class="cls-31" d="M357.35,294.6c0,1.37,0,2.74,0,4.11,0,.48.75.48.75,0,0-1.37,0-2.74,0-4.11,0-.48-.75-.48-.75,0h0Z"/></g><g class="cls-32"><path class="cls-31" d="M374.73,282.28v13.9c0,.48.75.48.75,0v-13.9c0-.48-.75-.48-.75,0h0Z"/></g><g class="cls-32"><path class="cls-31" d="M360.2,272.81c0,2.42,0,4.84,0,7.27,0,.48.75.48.75,0,0-2.42,0-4.84,0-7.27,0-.48-.75-.48-.75,0h0Z"/></g><g class="cls-33"><path class="cls-31" d="M179.82,275.33c0,6.53,0,13.06,0,19.59,0,.48.75.48.75,0,0-6.53,0-13.06,0-19.59,0-.48-.75-.48-.75,0h0Z"/></g><g class="cls-33"><path class="cls-31" d="M191.51,278.49c0,2.84,0,5.69,0,8.53,0,.48.75.48.75,0,0-2.84,0-5.69,0-8.53,0-.48-.75-.48-.75,0h0Z"/></g><g class="cls-33"><path class="cls-31" d="M186.45,277.54v4.74c0,.48.75.48.75,0v-4.74c0-.48-.75-.48-.75,0h0Z"/></g><g class="cls-33"><path class="cls-31" d="M199.4,281.97c0,3.37,0,6.74,0,10.11,0,.48.75.48.75,0,0-3.37,0-6.74,0-10.11,0-.48-.75-.48-.75,0h0Z"/></g><g class="cls-33"><path class="cls-31" d="M187.72,297.76c0,3.16,0,6.32,0,9.48,0,.48.75.48.75,0,0-3.16,0-6.32,0-9.48,0-.48-.75-.48-.75,0h0Z"/></g><g class="cls-33"><path class="cls-31" d="M177.61,301.24c0,1.79,0,3.58,0,5.37,0,.48.75.48.75,0,0-1.79,0-3.58,0-5.37,0-.48-.75-.48-.75,0h0Z"/></g><g class="cls-32"><path class="cls-31" d="M174.7,667.53c0,6.64,0,13.28,0,19.92,0,.48.75.48.75,0,0-6.64,0-13.28,0-19.92,0-.48-.75-.48-.75,0h0Z"/></g><g class="cls-32"><path class="cls-31" d="M193.84,663.24c0,2.08,0,4.17,0,6.25,0,.48.75.48.75,0,0-2.08,0-4.17,0-6.25,0-.48-.75-.48-.75,0h0Z"/></g><g class="cls-32"><path class="cls-31" d="M185.63,662.46c0,2.86,0,5.73,0,8.59,0,.48.75.48.75,0,0-2.86,0-5.73,0-8.59,0-.48-.75-.48-.75,0h0Z"/></g><g class="cls-32"><path class="cls-31" d="M180.95,684.32c0,3.38,0,6.77,0,10.15,0,.48.75.48.75,0,0-3.38,0-6.77,0-10.15,0-.48-.75-.48-.75,0h0Z"/></g><g class="cls-32"><path class="cls-31" d="M196.57,681.2c0,4.17,0,8.33,0,12.5,0,.48.75.48.75,0,0-4.17,0-8.33,0-12.5,0-.48-.75-.48-.75,0h0Z"/></g><g class="cls-34"><path class="cls-31" d="M356.29,662.85c0,3.91,0,7.81,0,11.72,0,.48.75.48.75,0,0-3.91,0-7.81,0-11.72,0-.48-.75-.48-.75,0h0Z"/></g><g class="cls-34"><path class="cls-31" d="M364.1,662.85c0,2.21,0,4.43,0,6.64,0,.48.75.48.75,0,0-2.21,0-4.43,0-6.64,0-.48-.75-.48-.75,0h0Z"/></g><g class="cls-34"><path class="cls-31" d="M357.08,680.81c0,5.99,0,11.98,0,17.96,0,.48.75.48.75,0,0-5.99,0-11.98,0-17.96,0-.48-.75-.48-.75,0h0Z"/></g><g class="cls-34"><path class="cls-31" d="M362.54,675.34v2.73c0,.48.75.48.75,0v-2.73c0-.48-.75-.48-.75,0h0Z"/></g><g class="cls-34"><path class="cls-31" d="M374.93,674.17c-.38,8.98-.46,17.97-.25,26.95.01.48.76.48.75,0-.21-8.98-.13-17.97.25-26.95.02-.48-.73-.48-.75,0h0Z"/></g><g class="cls-34"><path class="cls-31" d="M368.79,682.76c0,2.6,0,5.21,0,7.81,0,.48.75.48.75,0,0-2.6,0-5.21,0-7.81,0-.48-.75-.48-.75,0h0Z"/></g><g class="cls-34"><path class="cls-31" d="M363.32,685.11c0,4.56,0,9.11,0,13.67,0,.48.75.48.75,0,0-4.56,0-9.11,0-13.67,0-.48-.75-.48-.75,0h0Z"/></g><g class="cls-32"><path class="cls-31" d="M376.21,662.85v1.17c0,.2.17.38.38.38s.38-.16.38-.38v-1.17c0-.2-.17-.38-.38-.38s-.38.16-.38.38h0Z"/></g><g class="cls-32"><path class="cls-31" d="M189.36,677.43c0,3.78,0,7.55,0,11.33,0,.48.75.48.75,0,0-3.78,0-7.55,0-11.33,0-.48-.75-.48-.75,0h0Z"/></g><use transform="translate(681 945) scale(4.27 2.67)" xlink:href="#image"/><use transform="translate(1228 945) scale(4.27 2.67)" xlink:href="#image"/><use transform="translate(188 945) scale(4.27 2.67)" xlink:href="#image"/><use transform="translate(7 945) scale(4.27 2.67)" xlink:href="#image"/><use transform="translate(1358 945) scale(4.27 2.67)" xlink:href="#image"/><use transform="translate(1837 1077.56) rotate(-89.43) scale(2.8 1.75)" xlink:href="#image"/><use transform="translate(1839 705.56) rotate(-89.43) scale(2.8 1.75)" xlink:href="#image"/><use transform="translate(1837 377.56) rotate(-89.43) scale(2.8 1.75)" xlink:href="#image"/><use transform="translate(91.12 706) rotate(90) scale(2.8 1.75)" xlink:href="#image"/><use transform="translate(91.12 346) rotate(90) scale(2.8 1.75)" xlink:href="#image"/><use transform="translate(91.12) rotate(90) scale(2.8 1.75)" xlink:href="#image"/><use transform="translate(475.99 114.15) rotate(-180) scale(3.5 2.2)" xlink:href="#image"/><use transform="translate(897.99 114.15) rotate(-180) scale(3.5 2.2)" xlink:href="#image"/><use transform="translate(1339.99 114.15) rotate(-180) scale(3.5 2.2)" xlink:href="#image"/><use transform="translate(1929.99 114.15) rotate(-180) scale(3.5 2.2)" xlink:href="#image"/><use transform="translate(1584.99 114.15) rotate(-180) scale(3.5 2.2)" xlink:href="#image"/><path class="cls-11" d="M862.31,792.92c-3.24.14-12.97.56-12.97.56l-2.68-13.74-.3-3.04v-8.54s-.94-21.83-.94-21.83l-2.82-50.3-1.88-85.42-63.92,31.32-39.48,16.13-35.72,47.45c-8,2.48-4.7,15.19-26.32,10.44-14.51-3.19-19.64-11.34-19.34-16.6.35-6.22,5.19-17.1,12.76-25.16,7.57-8.06,30.08-10.44,30.08-10.44l27.26-21.83c15.98-14.24,43.24-27.52,32.9-26.57,9.4-30.37,117.68-19.79,87.64-63.55l-18.18-21.43-2.32-13.79-1.14-.26-2.6-.91-8.38-1.79-5.36-.79-3.82-.71-4.43-6.54c-32.56-46.25,4.34-69.58,12.5-73.03-18.94-104.83,91.23-113.05,91.23-113.05,101.72-1.63,95.09,103.66,95.09,103.66l17.98,10.29c22.12,32.06,2.49,59.23,2.49,59.23l-2.28,3.52-2.78,4.71-2.5,4.8s-2.67,5.54-7.83,4.46l-9.57-2.69s-1.55.26-1.69,9.29l-2.91,4.51s-8.86,12.11-24.64,33.64l5.43,7.98,24.77,18.52s25.57-15.67,33.08,1.67c0,0,25.46-5.25,31.02,7.59-1.6,3.06,9,14.11,12.22,12.34,6.44-3.55,20.46,1.37,36.69,9.79,11.86,6.15,9.48,5.02,21.59,12.99,24.23,15.94,43.24,28.47,43.24,28.47,0,0,25.38,3.8,30.08,17.08l1.88,18.03s-.58,16.28-31.96,15.19c-22.62-.79-20.35-5.52-24.44-18.98-.84-2.76,1.45-9.32.94-11.39-.89-3.59-13.4-7.59-29.49-16.24-10.5-5.65-27.83-19.91-39.13-22.67-8.04-1.96-7.52-1.9-16.92,7.59-3.36,3.4-76.01-35.76-80.84-36.06s-.94,21.83-.94,40.81c0,5.99.94,10.44,1.88,21.83,1.58,19.19,3.85,27.83,3.76,28.47-.94,6.64-1.88,14.24.94,37.96,2.36,19.86,4.28,32.25,4.28,32.25l-1.8,3.53s3.09,10.85-5.74,16.6c-2.05.12-4.04.24-5.96.36q-61.23,3.7-61.23,3.7l-63.45.91"/><ellipse class="cls-21" cx="855.81" cy="431.64" rx="13.21" ry="6.99" transform="translate(-17.82 37.3) rotate(-2.47)"/><line class="cls-7" x1="922.57" y1="428.63" x2="925.95" y2="498.67"/><line class="cls-7" x1="891.85" y1="495.86" x2="925.81" y2="494.64"/><line class="cls-7" x1="889.06" y1="430.21" x2="891.99" y2="499.9"/><ellipse class="cls-21" cx="956.36" cy="427.33" rx="13.21" ry="6.99" transform="translate(-17.54 41.63) rotate(-2.47)"/><ellipse class="cls-13" cx="1143.32" cy="628.78" rx="11.59" ry="11.94" transform="translate(-108.42 997.16) rotate(-45.21)"/><line class="cls-7" x1="1133.84" y1="635.48" x2="1121.06" y2="658.21"/><line class="cls-7" x1="1131.54" y1="666.85" x2="1145.79" y2="639.84"/><line class="cls-5" x1="1138.68" y1="638.92" x2="1126.93" y2="661.07"/><line class="cls-5" x1="1091.33" y1="726.87" x2="1091.04" y2="726.88"/><line class="cls-7" x1="693.09" y1="687.43" x2="676.73" y2="708.99"/><line class="cls-7" x1="676.01" y1="709.91" x2="693.25" y2="717.3"/><ellipse class="cls-7" cx="677.53" cy="709.72" rx="1.12" ry="1.06" transform="translate(-293.88 847.99) rotate(-54.43)"/><path class="cls-7" d="M663.66,682.94c-5.44,6.7-3.69,12.93-3.39,20.08.26,6.17,3.4,5.86,7.96,9.62,4.3,3.54,9.35,5.43,15.04,4.75,7.34-.88,10.37,1.95,16.07-5.08,4.22-5.2,3.42-12.79,7.48-16.87,10.29-10.31,3.82-20.77-1.93-25.5-4.74-3.9-16-.02-22.28,1.17-6.79,1.28-13.69,5.36-18.94,11.85Z"/><polyline class="cls-10" points="971.07 560.02 963.1 560.52 971.07 560.02 963.1 560.52"/><path class="cls-8" d="M812.53,430.28s-14.04-85.75,82.9-103.01l13.09-.65s94.39,4.4,88.04,95.78l-12.05-18.35-18.45-21.68-6.85-5.88-5.02-2.05-99.88,4.28-9.17.39-32.61,51.17Z"/><path class="cls-14" d="M971.07,560.02c12.19-3.75,40.91,6.24,65.65,8.35,19.75,1.68,51.06,6.3,55.46,26.57,2.77,12.77-28.97,52.45-35.72,54.1-7.21,1.76-9.4-2.85-9.4-2.85,0,0-3.76-6.64-18.8-15.19-16.81-9.55-44.57-24.47-44.57-24.47l-1.53.13,9.57,139.89s2.21,5.31-4.48,4.09l-136.5,5.63s-4.14,2.91-5.36-5.92q-5.18-121.59-5.18-121.59l.69-17.83.29.15c.08,6.1-16.92,16.13-20.68,20.88-4.43,5.59-9.4,9.49-16.92,14.24-9.17,5.79-16.92,13.29-16.92,13.29,0,0-9.4-18.03-15.04-26.57-5.66-8.57-13.16-18.03-13.16-18.03,0,0-13.51-10.15-2.82-18.03,24.44-18.03,42.3-18.98,86.64-31.76"/><path class="cls-19" d="M845.33,762.49l1.7,76.52,10.1-1.81,22.35-3.3,20.21-3.62,13.47-2.41c6.75.52,14.44-36.99.31-63.56-1.76-3.31,2.23-3.01,2.23-3.01,0,0-6.74-2.91,1.14,2.5.43,20.53,12.71,58.93,12.71,58.93,0,0,1.98.16,20.68-.95,7.89-.58,14.1,0,14.1,0,0,0,28.27,7.8,31.02-5.69,1.78-8.75-1.03-57.95-5.64-62.64-2.37-2.41-9.15-.19-15.92.26-112.14,7.51-113.65,6.45-113.65,6.45,0,0-15.2.12-14.83,2.34Z"/><path class="cls-27" d="M997.54,498.51l2.96,6.15,6.63-.28,2.68-6.39-6.31-4.08-5.95,4.61Z"/><polygon class="cls-24" points="813.41 499.34 819.98 504.57 817.08 511.01 809.55 511.33 806.67 505.54 813.41 499.34"/><path class="cls-1" d="M967.48,726.59l14.46,10.63s1.65,2.2-3.09,1.93l-14.16-10.23s-2.26-4.68,2.79-2.34Z"/><path class="cls-1" d="M971.07,560.02l-124.3,7.71,124.3-7.71Z"/><line class="cls-6" x1="999.17" y1="423.15" x2="993.13" y2="507.73"/><line class="cls-6" x1="814.84" y1="430.77" x2="826.08" y2="516.59"/><line class="cls-3" x1="967.4" y1="559.54" x2="844.18" y2="565.34"/><path class="cls-28" d="M804.88,394.96s-14.84-78.22,95.59-90.27l9.75-.94s88.31-14.7,94.57,82.64l-199.91,8.56Z"/><path class="cls-7" d="M997.09,349.91c-62.27,1.65-125.39,6.27-187.9,8.68"/><line class="cls-7" x1="807.54" y1="363.85" x2="807.54" y2="363.85"/><line class="cls-4" x1="976.1" y1="351.46" x2="977.36" y2="387.57"/><line class="cls-4" x1="962.23" y1="388.22" x2="960.71" y2="351.64"/><line class="cls-4" x1="947.04" y1="388.87" x2="945.67" y2="352.76"/><line class="cls-4" x1="932.43" y1="389.49" x2="931.06" y2="353.39"/><line class="cls-4" x1="917.32" y1="390.64" x2="915.94" y2="354.54"/><line class="cls-4" x1="985.88" y1="351.26" x2="987.15" y2="387.37"/><line class="cls-4" x1="995.3" y1="351.46" x2="996.56" y2="387.56"/><line class="cls-4" x1="903.12" y1="391.25" x2="901.75" y2="355.15"/><line class="cls-4" x1="887.35" y1="391.18" x2="885.98" y2="355.08"/><line class="cls-4" x1="871.43" y1="392.33" x2="870.06" y2="356.22"/><line class="cls-4" x1="855.55" y1="393.29" x2="854.18" y2="357.19"/><line class="cls-4" x1="840.08" y1="393.95" x2="838.71" y2="357.85"/><line class="cls-4" x1="824.4" y1="394.62" x2="823.02" y2="358.52"/><line class="cls-4" x1="811.53" y1="395.17" x2="810.16" y2="359.07"/><line class="cls-9" x1="908.18" y1="308.7" x2="907.46" y2="328.33"/><line class="cls-9" x1="955.4" y1="316.48" x2="863.72" y2="320.41"/><line class="cls-7" x1="959.54" y1="519.12" x2="859.57" y2="522.69"/><line class="cls-7" x1="979.08" y1="534.06" x2="959.53" y2="560.26"/><line class="cls-7" x1="857.89" y1="564.23" x2="829.27" y2="531.85"/><line class="cls-7" x1="840.98" y1="562.84" x2="853.07" y2="562.08"/><line class="cls-7" x1="1173.96" y1="676.78" x2="1183.9" y2="697.5"/><line class="cls-7" x1="1184.3" y1="698.4" x2="1173.96" y2="705.04"/><ellipse class="cls-7" cx="1183.09" cy="697.98" rx=".92" ry=".95" transform="translate(-175.69 496.48) rotate(-22.1)"/><path class="cls-7" d="M1150.01,672.67c-2.28,21.89-3.53,28.54,8.92,31.43,8.75,2.03,29.39,3.13,35.72-2.85,16.88-15.94,11.82-32.77,5.64-35.12-7.52-2.85-15.98-12.34-26.42-11.19-11.02,1.22-22.8,7.53-23.86,17.72Z"/><line class="cls-2" x1="973.38" y1="559.99" x2="963.1" y2="560.3"/><ellipse class="cls-18" cx="976.09" cy="566.46" rx="11.2" ry="7.62" transform="translate(348.57 1504.47) rotate(-86.35)"/><ellipse class="cls-18" cx="967.8" cy="591.14" rx="11.93" ry="7.75" transform="translate(-90.8 997.91) rotate(-52.44)"/><ellipse class="cls-20" cx="976.55" cy="577.32" rx="7.62" ry="7.93" transform="translate(-18.19 31.94) rotate(-1.86)"/><ellipse class="cls-18" cx="949" cy="616.68" rx="11.93" ry="7.75" transform="translate(-118.38 992.98) rotate(-52.44)"/><ellipse class="cls-18" cx="932.3" cy="641.73" rx="11.93" ry="7.75" transform="translate(-144.76 989.52) rotate(-52.44)"/><ellipse class="cls-20" cx="959.13" cy="602.79" rx="7.62" ry="7.93" transform="translate(-19.02 31.38) rotate(-1.86)"/><ellipse class="cls-20" cx="941.04" cy="627.91" rx="7.62" ry="7.93" transform="translate(-19.85 30.81) rotate(-1.86)"/><ellipse class="cls-18" cx="844.01" cy="570.92" rx="7.61" ry="10.53" transform="translate(-31.63 49.8) rotate(-3.32)"/><ellipse class="cls-18" cx="860.85" cy="593.27" rx="7.7" ry="12" transform="translate(-184.27 565.92) rotate(-33.07)"/><path class="cls-20" d="M848.54,588.83c4.12.88,8.14-1.89,8.98-6.18.83-4.29-1.83-8.48-5.96-9.36-4.12-.88-8.14,1.89-8.98,6.18-.83,4.29,1.83,8.48,5.96,9.36Z"/><ellipse class="cls-18" cx="880.17" cy="618.48" rx="7.7" ry="12" transform="translate(-194.9 580.54) rotate(-33.07)"/><ellipse class="cls-18" cx="899.54" cy="641.46" rx="7.7" ry="12" transform="translate(-204.31 594.84) rotate(-33.07)"/><path class="cls-20" d="M868.13,612.64c4.12.88,8.14-1.89,8.98-6.18.83-4.29-1.83-8.48-5.96-9.36-4.12-.88-8.14,1.89-8.98,6.18-.83,4.29,1.83,8.48,5.96,9.36Z"/><path class="cls-20" d="M887.23,637.03c4.12.88,8.14-1.89,8.98-6.18.83-4.29-1.83-8.48-5.96-9.36-4.12-.88-8.14,1.89-8.98,6.18-.83,4.29,1.83,8.48,5.96,9.36Z"/><ellipse class="cls-20" cx="916.66" cy="671.41" rx="29.4" ry="30.62" transform="translate(-21.27 30.04) rotate(-1.86)"/><text class="cls-29" transform="translate(892.82 674.67) rotate(9.26) scale(.96 1) skewX(.18)"><tspan x="0" y="0">Eric </tspan></text><path class="cls-17" d="M918.25,826.3l-65.81,13.33-29.99,38.77-5.64,21.15s2.96,22.1,8.34,22.92c7.76,4.51,20.48,4.16,20.48,4.16l16.65-2.93,24.1-5.41,31.89-10.89,11.67-3.23-11.68-77.88Z"/><path class="cls-23" d="M920.37,882.47s-8.78,13.12-38.5,26.54c-7.85,2.44-9.12,2.97-9.12,2.97-6.21,2.2-39.01,6.33-52.92-13.98-.78-1.14-1.39,4.68-1.39,4.68,0,0-2.05,13.58,14.35,19.56,9.2,3.36,24.19.18,24.19.18,0,0,13.73.04,19.38-2.21,29.79-11.89,45.39-16.93,45.39-16.93,0,0,3.14-.18,4.08-1.83,1.29-1.8-.97-12.02-.97-12.02,0,0-.16-7-2.74-9.5-1.28.61-3.52,5.05-3.52,5.05"/><path class="cls-13" d="M870.17,870.75l-21.04-7.1s-.19-5.74,4.11-6.81c18.77,5.63,21.36,6.66,21.36,6.66,0,0,.86,5.32-4.44,7.25Z"/><path class="cls-13" d="M830.68,886.89l26.89,11.35s5.3,8.82.93,9.11l-8.64.46s-20.36-6.17-22.19-11.24l-.46-2.84s.59-6.79,3.47-6.84Z"/><path class="cls-13" d="M860.24,888.37l-21.04-7.1s-.19-5.74,4.11-6.81c18.77,5.63,21.36,6.66,21.36,6.66,0,0,.86,5.32-4.44,7.25Z"/><path class="cls-13" d="M912.06,856.6l2.55,14.81s1.66,1.86-1.33,3.87l-8.28,8.31s-13.53,11.44-24.4,14.57l-6.76-11.84s-1.27-2.35,2.72-5.46c3.39-5.4,10.51-15.14,10.51-15.14,0,0,5.52-7.04,15.63-8.47l2.88-.98s4.02-4.35,6.47.33Z"/><path class="cls-17" d="M931.42,823.15l67.11,1.27,36.36,32.76,9.28,19.8s.99,22.28-4.16,24.06c-6.84,5.84-19.42,7.78-19.42,7.78l-16.9.12-24.67-.99-33.3-4.98-12.05-1.08-2.25-78.74Z"/><path class="cls-23" d="M939.25,878.8s10.95,11.33,42.56,19.19c8.15.99,9.5,1.28,9.5,1.28,6.5,1.05,39.5-.79,49.6-23.28.57-1.26,2.19,4.35,2.19,4.35,0,0,4.41,12.99-10.67,21.83-8.46,4.96-23.77,4.53-23.77,4.53,0,0-13.5,2.51-19.46,1.31-31.41-6.34-47.65-8.49-47.65-8.49,0,0-3.12.39-4.33-1.06-1.59-1.54-1.16-12.01-1.16-12.01,0,0-1.07-6.92,1.02-9.84,1.37.37,4.36,4.34,4.36,4.34"/><path class="cls-13" d="M986.58,858.24l19.45-10.77s-.82-5.68-5.25-5.96c-17.48,8.92-19.85,10.39-19.85,10.39,0,0,.1,5.39,5.65,6.34Z"/><path class="cls-13" d="M1028.28,867.02l-24.45,16.01s-3.65,9.63.69,9.13l8.58-1.1s18.94-9.73,19.85-15.05l-.05-2.88s-1.77-6.58-4.62-6.1Z"/><path class="cls-13" d="M999.46,873.79l19.45-10.77s-.82-5.68-5.25-5.96c-17.48,8.92-19.85,10.39-19.85,10.39,0,0,.1,5.39,5.65,6.34Z"/><path class="cls-13" d="M942.85,851.85l.1,15.03s-1.31,2.13,1.99,3.57l9.61,6.69s15.33,8.82,26.58,9.95l4.56-12.87s.84-2.54-3.64-4.89c-4.28-4.71-13.02-13.01-13.02-13.01,0,0-6.68-5.93-16.87-5.52l-3.01-.44s-4.72-3.56-6.31,1.49Z"/><path class="cls-15" d="M1178.58,667.62c0,65.07,1.07,133.24,18.21,164.32,8.77,15.91,34.57,25.28,45.53,25.28s29.99-13.15,38.7-28.73c17.31-30.96,14.8-95.43,14.8-160.88,0-51.4,4.63-118.03-6.83-150.54-10.47-29.71-35.76-37.92-51.22-37.92s-39.47,6.84-50.08,39.07c-10.61,32.23-9.11,100.2-9.11,149.39Z"/><path class="cls-16" d="M1181.87,665.9c0,63.56-.71,128.21,15.49,158.57,8.29,15.54,29.48,27.58,39.84,27.58s31.61-10.07,39.84-25.28c16.36-30.24,15.63-96.94,15.63-160.87,0-50.21,4.38-115.29-6.45-147.05-9.9-29.02-34.4-34.52-49.01-34.52s-36.7,4.16-46.72,35.64c-10.02,31.49-8.61,97.88-8.61,145.93Z"/><ellipse class="cls-25" cx="1231.94" cy="557.17" rx="2.72" ry="2.75"/><ellipse class="cls-25" cx="1250.3" cy="557.17" rx="2.72" ry="2.75"/><ellipse class="cls-25" cx="1232.62" cy="572.27" rx="2.72" ry="2.75"/><ellipse class="cls-25" cx="1250.97" cy="572.27" rx="2.72" ry="2.75"/><ellipse class="cls-25" cx="1232.76" cy="750.63" rx="2.72" ry="2.75"/><ellipse class="cls-25" cx="1251.12" cy="750.63" rx="2.72" ry="2.75"/><ellipse class="cls-25" cx="1233.44" cy="765.73" rx="2.72" ry="2.75"/><ellipse class="cls-25" cx="1251.8" cy="765.73" rx="2.72" ry="2.75"/><path d="M1190.56,612.84v-13.79h6.07c.83,0,1.54.3,2.14.91s.89,1.32.89,2.15v7.67c0,.83-.3,1.55-.89,2.15-.6.61-1.31.91-2.14.91h-6.07ZM1193.59,611.3h1.52c.42,0,.78-.15,1.08-.45.3-.3.44-.66.44-1.07v-7.67c0-.42-.15-.77-.45-1.07-.3-.3-.66-.45-1.07-.45h-1.52v10.72Z"/><path d="M1205.73,599.05h3.04c.83,0,1.54.3,2.14.91s.89,1.32.89,2.15v7.67c0,.83-.3,1.55-.89,2.15-.6.61-1.31.91-2.14.91h-3.04c-.83,0-1.54-.3-2.14-.9-.6-.6-.89-1.32-.89-2.16v-7.67c0-.84.3-1.56.89-2.16s1.31-.9,2.14-.9ZM1205.73,602.11v7.67c0,.41.15.77.44,1.07.3.3.66.45,1.08.45s.78-.15,1.08-.45c.3-.3.44-.66.44-1.07v-7.67c0-.42-.15-.77-.45-1.07-.3-.3-.66-.45-1.07-.45s-.78.15-1.07.45c-.3.3-.45.66-.45,1.07Z"/><path d="M1214.83,612.84v-13.79h.69l8.42,7.66v-7.66h1.52v13.79h-.7l-8.41-7.66v7.66h-1.52Z"/><path d="M1228.49,599.05h3.03v3.06c0,1.81-1.01,2.84-3.03,3.07v-1.54c.98-.04,1.48-.55,1.52-1.54h-1.52v-3.06Z"/><path d="M1236.07,612.84v-12.25h-3.03v-1.54h9.11v1.54h-3.03v12.25h-3.04Z"/><path d="M1248.11,612.84v-13.79h6.07c.83,0,1.54.3,2.14.91s.89,1.32.89,2.15v.78c0,.9-.25,1.6-.76,2.11-.51.51-1.26.83-2.27.95,1.01,0,1.77.31,2.27.92.51.61.76,1.33.76,2.14v.78c0,.83-.3,1.55-.9,2.15-.6.61-1.31.91-2.13.91h-6.07ZM1251.14,605.18h1.52c.41,0,.77-.15,1.07-.46s.45-.66.45-1.08v-1.54c0-.42-.15-.77-.45-1.07-.3-.3-.66-.45-1.07-.45h-1.52v4.6ZM1251.14,611.3h1.52c.41,0,.77-.15,1.07-.45.3-.3.45-.66.45-1.07v-1.54c0-1.02-.51-1.54-1.52-1.54h-1.52v4.6Z"/><path d="M1260.25,612.84v-13.79h7.58v1.54h-4.55v4.6h3.04v1.52h-3.04v4.6h4.55v1.54h-7.58Z"/><path d="M1275.32,612.84v-10.73c0-.84.3-1.56.89-2.16s1.31-.9,2.14-.9h3.04c.83,0,1.54.3,2.14.91s.89,1.32.89,2.15v10.73h-3.03v-6.13h-3.04v6.13h-3.03ZM1278.35,605.18h3.04v-3.07c0-.42-.15-.77-.45-1.07-.3-.3-.66-.45-1.07-.45s-.78.15-1.07.45c-.3.3-.45.66-.45,1.07v3.07Z"/><path d="M1205.63,634.9v-13.79h6.07c.83,0,1.54.3,2.14.91s.89,1.32.89,2.15v1.54c0,.84-.3,1.56-.89,2.16-.6.6-1.31.9-2.14.9h-3.04v6.13h-3.03ZM1208.66,627.25h1.52c.41,0,.77-.15,1.07-.46s.45-.66.45-1.08v-1.54c0-.42-.15-.77-.45-1.07-.3-.3-.66-.45-1.07-.45h-1.52v4.6Z"/><path d="M1220.79,621.11h3.04c.83,0,1.54.3,2.14.91s.89,1.32.89,2.15v7.67c0,.83-.3,1.55-.89,2.15-.6.61-1.31.91-2.14.91h-3.04c-.83,0-1.54-.3-2.14-.9-.6-.6-.89-1.32-.89-2.16v-7.67c0-.84.3-1.56.89-2.16s1.31-.9,2.14-.9ZM1220.79,624.17v7.67c0,.41.15.77.44,1.07.3.3.66.45,1.08.45s.78-.15,1.08-.45c.3-.3.44-.66.44-1.07v-7.67c0-.42-.15-.77-.45-1.07-.3-.3-.66-.45-1.07-.45s-.78.15-1.07.45c-.3.3-.45.66-.45,1.07Z"/><path d="M1237.48,624.17h-1.51c-.13-1.02-.61-1.54-1.44-1.54-.53,0-.93.13-1.2.39-.27.26-.41.64-.41,1.16,0,.38.15.74.45,1.08l3.22,3.65c.59.67.89,1.39.89,2.16v.78c0,.83-.3,1.55-.89,2.15-.59.61-1.31.91-2.14.91h-1.52c-1.01,0-1.76-.26-2.27-.77-.51-.51-.76-1.28-.76-2.29h1.52c0,.11-.01.19-.01.25,0,.42.16.73.48.95.32.22.67.32,1.05.32.54,0,.93-.13,1.17-.4s.36-.65.36-1.15c0-.39-.15-.75-.45-1.08l-3.22-3.63c-.59-.67-.89-1.39-.89-2.16v-.78c0-.83.3-1.55.89-2.15s1.31-.91,2.14-.91h1.52c1.9,0,2.91,1.02,3.03,3.06Z"/><path d="M1240.52,634.9v-13.79h7.58v1.54h-4.55v4.6h3.04v1.52h-3.04v4.6h4.55v1.54h-7.58Z"/><path d="M1251.15,634.9v-13.79h6.07c.83,0,1.54.3,2.14.91s.89,1.32.89,2.15v.83c0,.68-.23,1.34-.7,1.98-.47.63-1.24.95-2.33.95h1.51c.42,0,.78.15,1.07.45.3.3.45.66.45,1.08v5.43h-3.03v-4.6c0-.42-.15-.78-.45-1.08-.3-.3-.66-.45-1.07-.45h-1.52v6.13h-3.03ZM1254.18,627.25h1.52c.41,0,.77-.15,1.07-.46s.45-.66.45-1.08v-1.54c0-.42-.15-.77-.45-1.07-.3-.3-.66-.45-1.07-.45h-1.52v4.6Z"/><path d="M1264.8,630.31v-9.19h3.04v9.19h-3.04ZM1264.8,634.9v-3.06h3.04v3.06h-3.04Z"/><path d="M1213.86,723.4v-53.4c0-.25.05-.49.16-.72l.46-.98c.15-.31.38-.56.67-.72l2.31-1.23c.38-.2.83-.22,1.23-.05l2.63,1.12c.57.24.95.83.95,1.49v21.77l1.67-12.89c0-.07.01-.15.01-.22v-8.85c0-.94.81-1.87,1.68-1.79h.84s.8,0,.84,0h.84c.74,0,1.56.12,1.68.9l.84,5.38.82,5.25c.01.09.02.18.02.26v13.92l1.62-5.76c.04-.15.06-.3.06-.46v-43.54c0-.36.11-.71.32-.99l.91-1.23c.29-.39.72-.61,1.18-.61h2.96c.21,0,.42.05.62.14l.69.33c.54.26.89.83.89,1.46v.7c0,.14.02.27.05.4l.74,3.04c.03.13.05.27.05.4v42.38c0,.83.95,1.24,1.49.64h0c.12-.14.2-.31.23-.49l.78-4.96c.01-.09.02-.18.02-.26v-10.29c0-.13.01-.25.04-.38l-.88-3.54c.03-.12,0-2.56,0-2.69v-1.79l.84-.9c0-.96,1.63.47,2.52.58l1.49.18c.62.08,1.13.56,1.29,1.2l.54,2.32c.03.13.04.26.04.39v14.92c0,.09,0,.18-.02.26l-.8,5.1c-.01.09-.02.18-.02.26v2.56l2.43-6.9c.06-.18.1-.37.1-.56v-17.24c0-.65.36-1.23.92-1.48l1.32-.59c.18-.08.38-.12.58-.12h.45c.57,0,1.09.34,1.35.89l.27.57c.1.22.16.47.16.72v31.89h0c0,.96.78,1.7,1.67,1.59l5.81-.69c.06,0,.11,0,.17,0h18.17c.16,0,.32.03.48.08l3.78,1.34c.61.22,1.03.83,1.03,1.52v1.48c0,.63-.35,1.2-.89,1.46l-.73.35s-.09.04-.14.06l-4.82,1.71c-.1.04-.2.06-.31.07l-7.41.88-12.11,1.72c-.33.05-.63.21-.87.46l-2.56,2.73c-.28.3-.44.71-.44,1.13v1.49c0,.35-.11.68-.3.96l-2.1,2.99c-.08.11-.14.24-.19.37l-1.55,4.13c-.04.1-.09.2-.15.29l-1.29,2.06c-.2.32-.5.55-.84.65l-5.15,1.57c-.13.04-.27.06-.41.06h-31.74"/><polygon class="cls-12" points="1223.84 557.08 1223.84 548.37 1257.63 548.37 1257.62 577.87 1223.79 577.87 1223.84 557.08"/><polygon class="cls-12" points="1185.24 561.08 1281.13 560.78 1281.13 567.43 1185.24 566.54 1185.24 561.08"/><ellipse class="cls-12" cx="1231.31" cy="554.14" rx="1.88" ry="1.9"/><ellipse class="cls-12" cx="1249.17" cy="554.14" rx="1.88" ry="1.9"/><ellipse class="cls-12" cx="1231.31" cy="573.12" rx="1.88" ry="1.9"/><ellipse class="cls-12" cx="1249.17" cy="573.12" rx="1.88" ry="1.9"/><path class="cls-22" d="M1184.3,555.16v18.45s9.77,8.39,18.53,0l.28-18.45s-8.75-9.56-18.8,0Z"/><path class="cls-22" d="M1275.49,555.09v18.45s9.77,8.39,18.53,0l.28-18.45s-8.75-9.56-18.8,0Z"/><polygon class="cls-12" points="1221.87 752.9 1221.87 744.19 1255.66 744.19 1255.65 773.69 1221.82 773.69 1221.87 752.9"/><polygon class="cls-12" points="1183.28 756.9 1279.16 756.6 1279.16 763.25 1183.28 762.36 1183.28 756.9"/><ellipse class="cls-12" cx="1229.34" cy="749.96" rx="1.88" ry="1.9"/><ellipse class="cls-12" cx="1247.2" cy="749.96" rx="1.88" ry="1.9"/><ellipse class="cls-12" cx="1229.34" cy="768.94" rx="1.88" ry="1.9"/><ellipse class="cls-12" cx="1247.2" cy="768.94" rx="1.88" ry="1.9"/><path class="cls-22" d="M1182.34,750.97v18.45s9.77,8.39,18.53,0l.28-18.45s-8.75-9.56-18.8,0Z"/><path class="cls-22" d="M1273.52,750.91v18.45s9.77,8.39,18.53,0l.28-18.45s-8.75-9.56-18.8,0Z"/><g class="cls-32"><path class="cls-31" d="M1288.58,555.87v19c0,.48.75.48.75,0v-19c0-.48-.75-.48-.75,0h0Z"/></g><g class="cls-32"><path class="cls-31" d="M1282.56,557.26v14.37c0,.48.75.48.75,0v-14.37c0-.48-.75-.48-.75,0h0Z"/></g><g class="cls-32"><path class="cls-31" d="M1278.61,560.29v1.12c0,.2.17.38.38.38s.38-.16.38-.38v-1.12c0-.2-.17-.38-.38-.38s-.38.16-.38.38h0Z"/></g><g class="cls-32"><path class="cls-31" d="M1278.13,565.4v2.08c0,.2.17.38.38.38s.38-.16.38-.38v-2.08c0-.2-.17-.38-.38-.38s-.38.16-.38.38h0Z"/></g><g class="cls-32"><path class="cls-31" d="M1286.83,559.18v7.02c0,.48.75.48.75,0v-7.02c0-.48-.75-.48-.75,0h0Z"/></g><g class="cls-32"><path class="cls-31" d="M1279.56,554.39v3.67c0,.48.75.48.75,0v-3.67c0-.48-.75-.48-.75,0h0Z"/></g><g class="cls-33"><path class="cls-31" d="M1189.28,555.67c0,3.3,0,6.6,0,9.9,0,.48.75.48.75,0,0-3.3,0-6.6,0-9.9,0-.48-.75-.48-.75,0h0Z"/></g><g class="cls-33"><path class="cls-31" d="M1195.13,557.26v4.31c0,.48.75.48.75,0v-4.31c0-.48-.75-.48-.75,0h0Z"/></g><g class="cls-33"><path class="cls-31" d="M1192.6,556.78v2.39c0,.2.17.38.38.38s.38-.16.38-.38v-2.39c0-.2-.17-.38-.38-.38s-.38.16-.38.38h0Z"/></g><g class="cls-33"><path class="cls-31" d="M1199.08,559.02v5.11c0,.48.75.48.75,0v-5.11c0-.48-.75-.48-.75,0h0Z"/></g><g class="cls-33"><path class="cls-31" d="M1193.23,567v4.79c0,.48.75.48.75,0v-4.79c0-.48-.75-.48-.75,0h0Z"/></g><g class="cls-33"><path class="cls-31" d="M1197.5,567.64v5.75c0,.48.75.48.75,0v-5.75c0-.48-.75-.48-.75,0h0Z"/></g><g class="cls-33"><path class="cls-31" d="M1188.17,568.76v2.71c0,.2.17.38.38.38s.38-.17.38-.38v-2.71c0-.2-.17-.38-.38-.38s-.38.17-.38.38h0Z"/></g><g class="cls-32"><path class="cls-31" d="M1186.72,753.85c0,3.35,0,6.71,0,10.06,0,.48.75.48.75,0,0-3.35,0-6.71,0-10.06,0-.48-.75-.48-.75,0h0Z"/></g><g class="cls-32"><path class="cls-31" d="M1196.29,751.68c0,1.05,0,2.1,0,3.16,0,.48.75.48.75,0,0-1.05,0-2.1,0-3.16,0-.48-.75-.48-.75,0h0Z"/></g><g class="cls-32"><path class="cls-31" d="M1192.19,751.29v4.34c0,.48.75.48.75,0v-4.34c0-.48-.75-.48-.75,0h0Z"/></g><g class="cls-32"><path class="cls-31" d="M1189.84,762.34c0,1.71,0,3.42,0,5.13,0,.48.75.48.75,0,0-1.71,0-3.42,0-5.13,0-.48-.75-.48-.75,0h0Z"/></g><g class="cls-32"><path class="cls-31" d="M1197.66,760.76v6.31c0,.48.75.48.75,0v-6.31c0-.48-.75-.48-.75,0h0Z"/></g><g class="cls-34"><path class="cls-31" d="M1277.6,751.48v5.92c0,.48.75.48.75,0v-5.92c0-.48-.75-.48-.75,0h0Z"/></g><g class="cls-34"><path class="cls-31" d="M1281.51,751.48v3.35c0,.48.75.48.75,0v-3.35c0-.48-.75-.48-.75,0h0Z"/></g><g class="cls-34"><path class="cls-31" d="M1277.99,760.56c0,3.03,0,6.05,0,9.08,0,.48.75.48.75,0,0-3.03,0-6.05,0-9.08,0-.48-.75-.48-.75,0h0Z"/></g><g class="cls-34"><path class="cls-31" d="M1285.03,751.09v3.16c0,.48.75.48.75,0v-3.16c0-.48-.75-.48-.75,0h0Z"/></g><g class="cls-34"><path class="cls-31" d="M1280.73,757.8v1.38c0,.2.17.38.38.38s.38-.16.38-.38v-1.38c0-.2-.17-.38-.38-.38s-.38.16-.38.38h0Z"/></g><g class="cls-34"><path class="cls-31" d="M1286.93,757.2c-.19,4.54-.23,9.08-.12,13.62.01.48.76.48.75,0-.11-4.54-.07-9.08.12-13.62.02-.48-.73-.48-.75,0h0Z"/></g><g class="cls-34"><path class="cls-31" d="M1283.86,761.55v3.95c0,.48.75.48.75,0v-3.95c0-.48-.75-.48-.75,0h0Z"/></g><g class="cls-34"><path class="cls-31" d="M1281.12,762.73v6.91c0,.48.75.48.75,0v-6.91c0-.48-.75-.48-.75,0h0Z"/></g><g class="cls-32"><path class="cls-31" d="M1287.57,751.48v.59c0,.1.04.2.11.27s.17.11.27.11.2-.04.27-.11.11-.16.11-.27v-.59c0-.1-.04-.2-.11-.27s-.17-.11-.27-.11-.2.04-.27.11-.11.16-.11.27h0Z"/></g><g class="cls-32"><path class="cls-31" d="M1194.05,758.85v5.72c0,.48.75.48.75,0v-5.72c0-.48-.75-.48-.75,0h0Z"/></g><path class="cls-26" d="M701.35,204.69l-35.99-60.61h18.5l25.79,44.72h.29l25.79-44.72h18.5l-35.99,60.61v42.37h-16.9v-42.37Z"/><path class="cls-26" d="M759.34,230.43v-69.73l16.46-16.62h50.41l16.46,16.62v69.73l-16.46,16.62h-50.41l-16.46-16.62ZM817.48,232.35l8.31-8.24v-57.08l-8.31-8.24h-32.93l-8.31,8.24v57.08l8.31,8.24h32.93Z"/><path class="cls-26" d="M861.62,229.85v-85.76h16.9v80.03l8.31,8.24h30.01l8.31-8.24v-80.03h16.9v85.76l-17.05,17.21h-46.33l-17.05-17.21Z"/><path class="cls-26" d="M994.94,144.08h17.05l13.7,77.53h.44l21.71-77.53h13.55l20.98,77.53h.58l13.55-77.53h17.05l-20.98,102.98h-16.32l-21.42-77.23h-.44l-22.15,77.23h-16.32l-20.98-102.98Z"/><path class="cls-26" d="M1128.84,144.08h16.9v102.98h-16.9v-102.98Z"/><path class="cls-26" d="M1166.87,144.08h15.44l48.08,74.88h.29v-74.88h16.17v102.98h-15.44l-48.08-74.73h-.29v74.73h-16.17v-102.98Z"/></svg>